<svg xmlns="http://www.w3.org/2000/svg" viewBox="0 0 220.2 51.2"><path d="M102.4 14.8h-7.9v19.9c0 5.3-2.7 9.1-7.9 9.1s-7.8-2.7-7.8-9.1V14.8h-7.9v21.6c0 9.6 4.9 14.8 13.8 14.8 5 0 8.2-2.4 9.9-4.5v4.1h7.9l-.1-36zm62.6-.4c-10.2 0-18.4 8.3-18.4 18.4 0 10.2 8.3 18.4 18.4 18.4 10.2 0 18.4-8.3 18.4-18.4.1-10.2-8.2-18.4-18.4-18.4zm10.6 18.4c0 5.8-4.7 10.5-10.5 10.5s-10.5-4.7-10.5-10.5 4.7-10.5 10.5-10.5 10.5 4.7 10.5 10.5zm-47.8-18.4c-2.9 0-7.2.6-10.5 4.2v-3.8h-7.9v36h7.9V30c0-4.3 3.5-7.7 7.7-7.7 1 0 1.9.2 2.8.5v-8.4zM62.6 47.7c-2.3 2.3-5.3 3.5-8.6 3.5-3.2 0-6.3-1.3-8.6-3.5-2.3-2.3-3.5-5.3-3.5-8.6h7.5c0 1.2.5 2.4 1.3 3.2.9.9 2 1.3 3.2 1.3s2.4-.5 3.2-1.3c1.8-1.8 1.8-4.6.1-6.4-1.1-.9-1.9-1-3.3-1.3-1.9-.4-4.4-.9-7-3.5-3.8-3.8-3.8-10.1 0-13.9 3.8-3.8 10.1-3.8 13.9 0 .4.4.7.8 1.1 1.3l-5 5c-.8-.9-1.5-1.4-2.5-1.5-.8-.2-1.6 0-2.1.6-.4.4-.7 1-.7 1.6s.2 1.2.7 1.6c1 1 1.7 1.2 3.2 1.4 1.7.3 4.1.8 6.8 3.1l.2.2c4.8 4.8 4.8 12.5.1 17.2zm-33.7 3.1h7.9v-18c0-10.2-8.3-18.4-18.4-18.4S0 22.6 0 32.8s8.3 18.4 18.4 18.4c3.5 0 7.4-1 10.5-4.5v4.1zm-10.5-7.5c-5.8 0-10.5-4.7-10.5-10.5s4.7-10.5 10.5-10.5S28.9 27 28.9 32.8s-4.7 10.5-10.5 10.5zm186-21c-4.4 0-7.9 3.5-7.9 7.9v20.6h-7.9V30.2c0-8.7 7.1-15.8 15.8-15.8s15.8 7.1 15.8 15.8v20.6h-7.9V30.2c0-4.4-3.5-7.9-7.9-7.9zm-70.8-7.5h7.9v36h-7.9v-36zm9.3-9.4c0 3-2.4 5.4-5.4 5.4s-5.4-2.4-5.4-5.4 2.4-5.4 5.4-5.4 5.4 2.4 5.4 5.4z"/></svg>