<svg xmlns="http://www.w3.org/2000/svg" version="1.1" id="Layer_1" x="0" y="0" viewBox="0 0 645.69 134.74" xml:space="preserve"><style type="text/css" id="style2">.st0{fill:#00447c}</style><path d="M69.67 39.11l-1.3 4.77H57.82l-7.95 31.59c-3.52 13.93-7.06 24.7-10.63 32.31-5.06 10.75-10.51 18.17-16.33 22.26-4.43 3.13-8.87 4.7-13.3 4.7-2.89 0-5.35-.87-7.37-2.6-1.49-1.21-2.24-2.77-2.24-4.7 0-1.54.61-2.88 1.84-4.01s2.73-1.7 4.52-1.7c1.3 0 2.4.41 3.29 1.23.89.82 1.34 1.76 1.34 2.82 0 1.06-.51 2.05-1.52 2.96-.77.67-1.16 1.18-1.16 1.52 0 .43.17.77.51 1.01.43.34 1.11.51 2.02.51 2.07 0 4.25-.65 6.54-1.95 2.29-1.3 4.33-3.24 6.11-5.82 1.78-2.58 3.47-6.3 5.06-11.17.67-2.02 2.48-8.7 5.42-20.02l12.58-48.93H33.97l1.01-4.77c4 0 6.79-.28 8.38-.83 1.59-.55 3.05-1.61 4.37-3.18 1.32-1.57 3.05-4.49 5.17-8.78 2.84-5.78 5.57-10.26 8.17-13.44 3.57-4.29 7.31-7.5 11.24-9.65C76.24 1.1 79.94.02 83.41.02c3.66 0 6.6.93 8.82 2.78 2.22 1.86 3.33 3.87 3.33 6.04 0 1.69-.55 3.11-1.66 4.26-1.11 1.16-2.53 1.73-4.26 1.73-1.49 0-2.71-.43-3.65-1.3-.94-.87-1.41-1.9-1.41-3.11 0-.77.31-1.72.94-2.86.63-1.13.94-1.89.94-2.28 0-.67-.22-1.18-.65-1.52-.63-.48-1.54-.72-2.75-.72-3.04 0-5.76.96-8.17 2.89-3.23 2.55-6.12 6.55-8.67 12-1.3 2.84-3.69 9.9-7.16 21.18z" id="path4"/><path d="M139.56 39.11l-12.58 43.08c-1.88 6.41-2.82 10.46-2.82 12.14 0 .87.16 1.51.47 1.92.31.41.73.61 1.26.61.82 0 1.72-.37 2.71-1.12.99-.75 3.48-3.72 7.48-8.93l2.17 1.66c-3.81 6.02-7.71 10.46-11.71 13.3-2.65 1.83-5.2 2.75-7.66 2.75-1.88 0-3.35-.53-4.41-1.59s-1.59-2.43-1.59-4.12c0-1.64.31-3.81.94-6.5.77-3.57 2.96-11.32 6.58-23.27-8.19 13.44-15.05 22.72-20.56 27.83-5.52 5.11-10.64 7.66-15.36 7.66-2.22 0-4.1-.77-5.64-2.31s-2.31-3.49-2.31-5.85c0-3.61 1.06-9.16 3.18-16.62L86 57.42c1.54-5.35 2.31-8.67 2.31-9.97 0-.58-.21-1.07-.61-1.48-.41-.41-.86-.61-1.34-.61-1.01 0-2.02.36-3.04 1.08-1.01.72-3.3 3.4-6.87 8.02l-2.24-1.59c3.61-5.59 7.44-9.71 11.49-12.36 3.08-2.07 5.93-3.11 8.53-3.11 1.78 0 3.24.57 4.37 1.7s1.7 2.59 1.7 4.37c0 2.6-.96 7.25-2.89 13.95l-6.79 23.35c-1.88 6.36-2.82 10.38-2.82 12.07 0 .92.3 1.65.9 2.2.6.55 1.41.83 2.42.83 1.59 0 3.66-.8 6.22-2.39 2.55-1.59 5.96-5.12 10.23-10.59 4.26-5.47 7.78-10.6 10.55-15.4 2.77-4.79 5.72-12.42 8.85-22.88l1.59-5.49h11z" id="path6"/><path d="M187.92 0L163.2 86.02c-1.21 4.29-1.81 6.92-1.81 7.88 0 .72.23 1.33.69 1.81.46.48 1.02.72 1.7.72.91 0 1.9-.41 2.96-1.23 2.5-1.98 5.13-5.04 7.88-9.18l2.17 2.24c-4.58 6.46-8.79 10.96-12.65 13.52-2.84 1.83-5.54 2.75-8.1 2.75-1.83 0-3.36-.63-4.59-1.88s-1.84-2.7-1.84-4.34c0-1.73.77-5.3 2.31-10.7l19.59-67.8c1.59-5.54 2.39-8.72 2.39-9.54 0-1.16-.46-2.11-1.37-2.85-.92-.75-2.34-1.12-4.26-1.12-1.11 0-2.8.17-5.06.51V4.14z" id="path8"/><path d="M236.43 87.03c-5.01 6.02-10.07 10.44-15.18 13.26-5.11 2.82-10.51 4.23-16.19 4.23-6.84 0-12.18-1.93-16.01-5.78-3.83-3.85-5.75-9.04-5.75-15.54 0-7.37 2.06-14.62 6.18-21.76 4.12-7.13 9.66-12.93 16.62-17.38 6.96-4.46 13.79-6.69 20.49-6.69 5.25 0 9.18 1.1 11.78 3.29 2.6 2.19 3.9 4.88 3.9 8.06 0 2.99-.92 5.54-2.75 7.66-1.35 1.64-3.01 2.46-4.99 2.46-1.49 0-2.74-.48-3.72-1.45-.99-.96-1.48-2.17-1.48-3.61 0-.91.18-1.76.54-2.53.36-.77 1.11-1.7 2.24-2.78 1.13-1.08 1.82-1.87 2.06-2.35s.36-.99.36-1.52c0-1.01-.46-1.85-1.37-2.53-1.4-.96-3.37-1.45-5.93-1.45-4.72 0-9.4 1.66-14.02 4.99-4.63 3.32-8.58 8.05-11.85 14.17-3.95 7.42-5.93 14.84-5.93 22.26 0 4.92 1.4 8.81 4.19 11.67 2.79 2.87 6.6 4.3 11.42 4.3 3.71 0 7.38-.93 11.02-2.78 3.64-1.85 7.72-5.22 12.25-10.08z" id="path10"/><path d="M252.69 41.42l24.94-4.05-10.41 35.13c8.43-14.41 16.09-24.48 22.98-30.21 3.9-3.28 7.08-4.92 9.54-4.92 1.59 0 2.84.47 3.76 1.41.92.94 1.37 2.3 1.37 4.08 0 3.18-.82 6.22-2.46 9.11-1.16 2.17-2.82 3.25-4.99 3.25-1.11 0-2.06-.36-2.85-1.08-.8-.72-1.29-1.83-1.48-3.32-.1-.92-.31-1.52-.65-1.81-.39-.38-.84-.58-1.37-.58-.82 0-1.59.19-2.31.58-1.25.68-3.16 2.55-5.71 5.64-4 4.72-8.34 10.84-13.01 18.36-2.02 3.18-3.76 6.77-5.2 10.77-2.02 5.49-3.18 8.79-3.47 9.9l-2.31 9.11H248l13.37-44.89c1.54-5.2 2.31-8.91 2.31-11.13 0-.87-.36-1.59-1.08-2.17-.96-.77-2.24-1.16-3.83-1.16-1.01 0-2.87.22-5.57.65z" id="path12"/><path d="M372.24 39.11l-12.58 43.08c-1.88 6.41-2.82 10.46-2.82 12.14 0 .87.16 1.51.47 1.92.31.41.73.61 1.26.61.82 0 1.72-.37 2.71-1.12.99-.75 3.48-3.72 7.48-8.93l2.17 1.66c-3.81 6.02-7.71 10.46-11.71 13.3-2.65 1.83-5.2 2.75-7.66 2.75-1.88 0-3.35-.53-4.41-1.59s-1.59-2.43-1.59-4.12c0-1.64.31-3.81.94-6.5.77-3.57 2.96-11.32 6.58-23.27-8.19 13.44-15.05 22.72-20.56 27.83-5.52 5.11-10.64 7.66-15.36 7.66-2.22 0-4.1-.77-5.64-2.31s-2.31-3.49-2.31-5.85c0-3.61 1.06-9.16 3.18-16.62l6.29-22.33c1.54-5.35 2.31-8.67 2.31-9.97 0-.58-.21-1.07-.61-1.48-.41-.41-.86-.61-1.34-.61-1.01 0-2.02.36-3.04 1.08-1.01.72-3.3 3.4-6.87 8.02l-2.24-1.59c3.61-5.59 7.44-9.71 11.49-12.36 3.08-2.07 5.93-3.11 8.53-3.11 1.78 0 3.24.57 4.37 1.7s1.7 2.59 1.7 4.37c0 2.6-.96 7.25-2.89 13.95l-6.79 23.35c-1.88 6.36-2.82 10.38-2.82 12.07 0 .92.3 1.65.9 2.2.6.55 1.41.83 2.42.83 1.59 0 3.66-.8 6.22-2.39 2.55-1.59 5.96-5.12 10.23-10.59 4.26-5.47 7.78-10.6 10.55-15.4 2.77-4.79 5.72-12.42 8.85-22.88l1.59-5.49h11z" id="path14"/><path d="M411.63 37.37l-9.4 32.6c4.19-7.66 7.76-13.42 10.7-17.28 4.58-5.97 9.04-10.31 13.37-13.01 2.55-1.54 5.23-2.31 8.02-2.31 2.41 0 4.41.77 6 2.31 1.59 1.54 2.38 3.52 2.38 5.93 0 2.36-.55 5.45-1.66 9.25l-5.13 18.36c7.85-14.7 15.3-25.01 22.34-30.94 3.9-3.28 7.76-4.92 11.56-4.92 2.21 0 4.04.76 5.46 2.28 1.42 1.52 2.13 3.87 2.13 7.05 0 2.79-.43 5.76-1.3 8.89l-7.95 28.12c-1.74 6.12-2.6 9.52-2.6 10.19 0 .68.22 1.25.65 1.74.29.34.68.51 1.16.51.48 0 1.33-.46 2.53-1.37 2.75-2.12 5.32-4.92 7.73-8.38l2.39 1.52c-1.21 1.93-3.34 4.58-6.4 7.95-3.06 3.37-5.68 5.66-7.84 6.87s-4.17 1.81-6 1.81c-1.69 0-3.1-.58-4.23-1.73-1.13-1.16-1.7-2.58-1.7-4.26 0-2.31.99-6.96 2.96-13.95l6.58-23.2c1.49-5.35 2.29-8.31 2.38-8.89.14-.92.22-1.81.22-2.67 0-1.2-.27-2.14-.79-2.82-.58-.67-1.23-1.01-1.95-1.01-2.02 0-4.17 1.04-6.43 3.11-6.65 6.12-12.87 14.7-18.65 25.73-3.81 7.28-7.37 16.6-10.7 27.97h-10.91l12.36-43.73c1.35-4.72 2.02-7.88 2.02-9.47 0-1.3-.27-2.26-.79-2.89-.53-.63-1.18-.94-1.95-.94-1.59 0-3.28.58-5.06 1.73-2.89 1.88-6.61 5.9-11.17 12.07-4.55 6.17-8.08 12.07-10.59 17.71-1.21 2.65-4.07 11.16-8.6 25.51h-10.7l13.37-46.84 1.73-6.07c.34-.92.51-1.59.51-2.02 0-1.06-.48-2.01-1.45-2.85-.96-.84-2.19-1.27-3.69-1.27-.63 0-2.36.29-5.2.87l-.65-2.67z" id="path16"/><path d="M536.27 77.41v-7.59l27.4-.04v24.01c-4.21 3.35-8.55 5.88-13.02 7.57-4.47 1.69-9.06 2.54-13.77 2.54-6.35 0-12.13-1.36-17.32-4.08-5.19-2.72-9.11-6.66-11.76-11.8-2.65-5.15-3.97-10.9-3.97-17.25 0-6.29 1.32-12.17 3.95-17.63 2.63-5.46 6.42-9.51 11.36-12.16 4.94-2.65 10.63-3.97 17.08-3.97 4.68 0 8.91.76 12.69 2.27 3.78 1.51 6.74 3.63 8.89 6.33 2.15 2.71 3.78 6.24 4.9 10.59l-7.72 2.12c-.97-3.29-2.18-5.88-3.62-7.77-1.44-1.89-3.5-3.39-6.18-4.52-2.68-1.13-5.65-1.7-8.91-1.7-3.91 0-7.3.6-10.15 1.79-2.85 1.19-5.16 2.76-6.91 4.7a22.436 22.436 0 00-4.08 6.4c-1.65 4-2.47 8.34-2.47 13.02 0 5.77.99 10.59 2.98 14.47 1.99 3.88 4.88 6.77 8.67 8.65 3.79 1.88 7.82 2.82 12.09 2.82 3.71 0 7.32-.71 10.86-2.14 3.53-1.43 6.21-2.95 8.03-4.57V77.42h-19.02z" id="path18" fill="#00447c"/><path d="M587.78 102.78V45.72h-21.31v-7.63h51.28v7.63h-21.4v57.06z" id="path20" fill="#00447c"/><g id="g24" transform="translate(-103.8 -247.75)"><path d="M730.53 297.79v-10.17h-3.87v-1.77h9.76v1.77h-3.9v10.17zm7.22 0v-11.94h2.93l3.02 9.54 2.92-9.54h2.87v11.94h-1.82v-10.02l-3.08 10.02h-1.8l-3.21-10.17v10.17z" id="path22"/></g></svg>
