<svg xmlns="http://www.w3.org/2000/svg" viewBox="0 0 212.1 43.9"><path d="M22.9 12.7l-.4 1.6H19l-2.6 10.3a60.5 60.5 0 01-3.5 10.5c-1.7 3.5-3.5 6-5.4 7.3a7.5 7.5 0 01-4.3 1.5 4.1 4.1 0 01-2.5-.8 1.9 1.9 0 01-.7-1.6 1.8 1.8 0 01.6-1.3 2.5 2.5 0 011.5-.5 1.5 1.5 0 011.1.4 1.2 1.2 0 01.4.9 1.4 1.4 0 01-.5 1c-.2.2-.4.4-.4.5s.1.2.2.3l.7.2a3.7 3.7 0 002.1-.7 5.2 5.2 0 002-1.9 12.1 12.1 0 001.7-3.6l1.8-6.5 4.1-16h-4.1l.3-1.6a9.1 9.1 0 002.7-.2 3.1 3.1 0 001.5-1.1 16.3 16.3 0 001.7-2.8 18.7 18.7 0 012.7-4.4A12.2 12.2 0 0123.8 1a7.3 7.3 0 013.6-1 4.4 4.4 0 012.9.9 2.7 2.7 0 011.1 2 2 2 0 01-.6 1.4 2 2 0 01-1.4.5 1.9 1.9 0 01-1.2-.4 1.3 1.3 0 01-.4-1 1.6 1.6 0 01.3-.9 2.7 2.7 0 00.3-.8.8.8 0 00-.2-.5l-.9-.2a4.4 4.4 0 00-2.7.9 12.4 12.4 0 00-2.9 3.9c-.4 1-1.2 3.3-2.3 6.9h3.5m22.9 0l-4.1 14.1a20.1 20.1 0 00-.9 4 1.3 1.3 0 00.1.6l.5.2a1.2 1.2 0 00.8-.4 14.6 14.6 0 002.5-2.9l.7.5a14.2 14.2 0 01-3.8 4.4 4.5 4.5 0 01-2.5.9 2.3 2.3 0 01-1.5-.5 2.2 2.2 0 01-.5-1.4 10.4 10.4 0 01.3-2.1c.2-1.2 1-3.7 2.2-7.6a46.7 46.7 0 01-6.8 9.1c-1.8 1.6-3.5 2.5-5 2.5a2.7 2.7 0 01-2.7-2.7 22 22 0 011.1-5.4l2.1-7.3a15.3 15.3 0 00.7-3.2.8.8 0 00-.2-.5.4.4 0 00-.4-.2 1.7 1.7 0 00-1 .3 18.6 18.6 0 00-2.3 2.6l-.7-.5a13.3 13.3 0 013.8-4 4.8 4.8 0 012.8-1 2.4 2.4 0 011.4.5 2 2 0 01.6 1.5 23.7 23.7 0 01-1 4.5l-2.2 7.6a23.8 23.8 0 00-1 4 .9.9 0 00.3.7 1.1 1.1 0 00.8.3 4.6 4.6 0 002.1-.8 16.3 16.3 0 003.3-3.5 42 42 0 003.5-5 35.5 35.5 0 002.9-7.5l.5-1.8h3.6M61.7 0l-8.1 28a14.9 14.9 0 00-.6 2.6 1.4 1.4 0 00.2.6.7.7 0 00.6.2 1.6 1.6 0 001-.4 11.6 11.6 0 002.6-3l.7.8a16.2 16.2 0 01-4.2 4.4 4.8 4.8 0 01-2.6.9 2 2 0 01-1.5-.6 1.7 1.7 0 01-.7-1.4 16.7 16.7 0 01.8-3.5l6.4-22.1a14.5 14.5 0 00.8-3.2 1.2 1.2 0 00-.4-.9 2.6 2.6 0 00-1.4-.3h-1.7v-.8L61.7 0m16 28.4a19.2 19.2 0 01-5 4.3 11.3 11.3 0 01-5.3 1.4 7.4 7.4 0 01-5.3-1.9 6.9 6.9 0 01-1.9-5.1 14.7 14.7 0 012-7.1 16.4 16.4 0 015.5-5.6 12.1 12.1 0 016.7-2.2c1.8 0 3.1.3 3.9 1.1a3 3 0 011.3 2.6 3.7 3.7 0 01-.9 2.5 2.3 2.3 0 01-1.7.8 2.1 2.1 0 01-1.2-.5 1.7 1.7 0 01-.5-1.2 2.4 2.4 0 01.2-.8l.8-.9c.3-.4.6-.6.6-.8a.7.7 0 00.1-.5.9.9 0 00-.4-.8 3.6 3.6 0 00-1.9-.5 8.2 8.2 0 00-4.7 1.7 12.5 12.5 0 00-3.8 4.6 15.1 15.1 0 00-2 7.2 5.5 5.5 0 001.4 3.9 5 5 0 003.7 1.4 8.1 8.1 0 003.7-.9 24.4 24.4 0 004-3.3l.7.6M83 13.5l8.2-1.3-3.4 11.4c2.8-4.7 5.3-7.9 7.5-9.8a5.5 5.5 0 013.2-1.6 1.6 1.6 0 011.2.4 2.2 2.2 0 01.5 1.4 5.2 5.2 0 01-.9 2.9 1.6 1.6 0 01-1.6 1.1 1.2 1.2 0 01-.9-.3 1.4 1.4 0 01-.5-1.1c-.1-.3-.1-.5-.2-.6l-.5-.2-.7.2a5.9 5.9 0 00-1.9 1.8 59.6 59.6 0 00-4.3 6 16.3 16.3 0 00-1.7 3.5c-.7 1.8-1 2.9-1.1 3.2l-.8 3h-3.6l4.4-14.6a14.1 14.1 0 00.7-3.7 1.1 1.1 0 00-.3-.7 2.8 2.8 0 00-1.3-.3 7.7 7.7 0 00-1.8.2l-.2-.9m39.3-.8l-4.2 14.1a20.1 20.1 0 00-.9 4 1.4 1.4 0 00.2.6.5.5 0 00.4.2 1.2 1.2 0 00.9-.4 22.2 22.2 0 002.4-2.9l.8.5a15.8 15.8 0 01-3.9 4.4 4.5 4.5 0 01-2.5.9 2.5 2.5 0 01-1.5-.5 2.2 2.2 0 01-.5-1.4 10.4 10.4 0 01.3-2.1c.3-1.2 1-3.7 2.2-7.6a46.7 46.7 0 01-6.8 9.1c-1.8 1.6-3.5 2.5-5 2.5a2.7 2.7 0 01-1.9-.8 2.5 2.5 0 01-.7-1.9 20.8 20.8 0 011-5.4l2.1-7.3a15.3 15.3 0 00.7-3.2c0-.2 0-.4-.2-.5s-.2-.2-.4-.2a1.9 1.9 0 00-1 .3 21.2 21.2 0 00-2.2 2.6l-.8-.5a14.7 14.7 0 013.8-4 4.8 4.8 0 012.8-1 2 2 0 011.4.5 2 2 0 01.6 1.5 17.6 17.6 0 01-1 4.5l-2.2 7.6a20.1 20.1 0 00-.9 4 .9.9 0 00.3.7 1 1 0 00.8.3 4.3 4.3 0 002-.8 14.1 14.1 0 003.4-3.5 40.4 40.4 0 003.4-5 35.5 35.5 0 002.9-7.5l.6-1.8h3.6m12.9-.5l-3.1 10.6a53.6 53.6 0 013.5-5.6 17.6 17.6 0 014.4-4.3 5.4 5.4 0 012.7-.7 2.5 2.5 0 011.9.7 2.4 2.4 0 01.8 2 15.3 15.3 0 01-.5 3l-1.7 6c2.6-4.8 5-8.2 7.3-10.1a5.9 5.9 0 013.8-1.6 2.1 2.1 0 011.8.7 3.2 3.2 0 01.7 2.3 10.1 10.1 0 01-.4 2.9l-2.6 9.2a30.7 30.7 0 00-.9 3.3 1.4 1.4 0 00.2.6h.4a1.6 1.6 0 00.9-.4 13.1 13.1 0 002.5-2.7l.8.5a23.7 23.7 0 01-2.1 2.6 11.2 11.2 0 01-2.6 2.2 4.1 4.1 0 01-2 .6 2 2 0 01-1.4-.6 2.2 2.2 0 01-.5-1.4 19.5 19.5 0 011-4.5l2.1-7.6c.5-1.7.8-2.7.8-2.9a2.8 2.8 0 00.1-.9 1.2 1.2 0 00-.3-.9.9.9 0 00-.6-.3 2.9 2.9 0 00-2.1 1 30.5 30.5 0 00-6.2 8.4 56.2 56.2 0 00-3.5 9.1h-3.6l4.1-14.2a21.1 21.1 0 00.7-3.1 1.3 1.3 0 00-.3-1 .9.9 0 00-.6-.3 2.9 2.9 0 00-1.7.6 15.6 15.6 0 00-3.7 3.9 37.2 37.2 0 00-3.5 5.8c-.3.9-1.3 3.6-2.8 8.3h-3.5l5-17.2a2.3 2.3 0 00.1-.7 1.1 1.1 0 00-.4-.9 1.9 1.9 0 00-1.2-.4l-1.8.2-.2-.8 8.2-1.5m41 13.1v-2.4h9v7.8a14.2 14.2 0 01-4.3 2.4 12 12 0 01-10.2-.5 8.4 8.4 0 01-3.9-3.8 11.8 11.8 0 01-1.3-5.6 12.7 12.7 0 011.3-5.8 8.3 8.3 0 013.7-3.9 11.6 11.6 0 015.6-1.3 10.9 10.9 0 014.2.7 6.4 6.4 0 012.9 2.1 7.7 7.7 0 011.6 3.4l-2.5.7a6.5 6.5 0 00-1.2-2.5 5.3 5.3 0 00-2-1.5 7.2 7.2 0 00-2.9-.6 9 9 0 00-3.4.6 5.2 5.2 0 00-2.2 1.6 6.6 6.6 0 00-1.4 2 12.6 12.6 0 00-.8 4.3 9.6 9.6 0 001 4.7 5.9 5.9 0 002.8 2.8 9.5 9.5 0 004 1 11.5 11.5 0 003.6-.7 11.9 11.9 0 002.6-1.5v-4h-6.2m16.9 8.3V14.9h-7v-2.5h16.8v2.5h-7v18.6h-2.8m12.8-17.2V13h-1.3v-.6h3.2v.6h-1.3v3.3h-.6m2.4 0v-3.9h.9l1 3.1 1-3.1h.9v3.9h-.6V13l-1 3.3h-.6l-1-3.3v3.3z" data-name="Layer 2"/></svg>