<svg xmlns="http://www.w3.org/2000/svg" viewBox="0 0 288.099 60.39"><path d="M58.845 58.848H1.605V1.603h57.24v57.245" fill="#fff"/><path d="M58.695 1.69V58.7H1.69V1.69h57.006zM0 0v60.39h60.385V0H0"/><path d="M24.792 34.927c-1.457-.521-2.01-.972-2.181-2.48-.047-.38-.057-.905-.057-.905s.298-.433.542-.725c.97-1.166 1.683-1.238 3.185-.875l1.306.284a10.076 10.076 0 01-1.549 5.177 789.35 789.35 0 00-1.246-.476zm8.186-25.773c-.003.692-.003 2.406 0 2.736.2.002.762 0 1.076-.002 1.066-.004 2.573-.003 3.166.58 1.155 1.229-.351 2.35-1.734 4.222-2.182 2.9-.828 4.797.61 3.78.833-.61 2.632-1.95 3.51-2.395 1.829-.867 3.003 1.451 1.097 3.967-.752 1.033-2.196 2.337-3.128 3.714-1.148 1.657-.611 3.885 1.604 2.23 2.552-1.92 3.454 1.055.758 3.854-2.474 2.654-3.979 4.566-3.252 6.88.27.842.591 1.77.87 2.576.038.089.1.146.1.146l-.065.107s-.059-.031-.232-.034H35.81c-.086-.232-.897-2.427-1.764-4.784-.276-.703-.624-1.2-2.322-1.708-.363-.11-.668-.2-.84-.25-.288-.076-.439-.034-.645.107l-1.092.804c-1.018.75-1.52.987-1.96.875-.338-.09-.514-.346-.502-.78 0-.043-.001-.1-.003-.12a10.62 10.62 0 001.14-2.548c.27-.904.42-1.822.446-2.75l.063-.092c.229-.368.515-.486.85-.379.428.15.719.621 1.16 1.807.076.21.288.779.456 1.237.107.274.212.396.557.498.296.088.845.252 1.438.432.062.018.113.076.134.094l.105-.107s-.07-.065-.101-.146c-.605-1.641-1.076-2.916-1.115-3.026-.714-1.898-1.195-2.671-2.531-3.656-1.3-.924-3.293-1.644-4.423-2.296-3.44-1.957-2.857-4.783-.901-4.676.75.01 2.458.649 3.674 1.118 2.107.78 2.172-1.821-.557-3.821-3.469-2.544-4.13-3.87-3.317-4.905.432-.552 1.62-.557 2.8-.548.212-.002.806-.002.952 0 0-.682.005-1.99.006-2.744L4.658 9.14l-.003 2.75a16.79 16.79 0 011.691.067c1.917.168 3.362 1.097 4.885 5.01 1.336 3.509 12.321 31.34 13.449 34.303.306-.007 11.135 0 11.135 0 .96-2.45 11.69-30.01 13.432-34.417 1.555-3.934 3.216-4.702 5.064-4.853.439-.035.983-.056 1.44-.052l.003-2.782-22.776-.012m61.886.252l-.924.04-.28.014a6.24 6.24 0 00-.09.008c-.397.02-.807.05-1.183.05-.549 0-1.065-.03-1.567-.052l-.089-.006a25.645 25.645 0 00-1.363-.05h-.224v1.222h.664c1.202 0 1.447.247 1.447.643 0 .25-.059.69-.323 1.376-.155.385-3.323 8.423-4.096 10.38-.794-2.035-4.205-10.72-4.37-11.136-.135-.363-.22-.678-.22-.752 0-.195.312-.51 1.139-.51h.815V9.405h-.218l-1.144.04-.318.012-.336.014c-.704.015-1.438.046-2.055.046-.665 0-1.344-.03-1.994-.052a40.975 40.975 0 00-2.018-.057h-.222v1.223h.482c1.012 0 1.513.185 1.986 1.348l6.764 16.448h1.252l.058-.119c.188-.42 1.035-2.487 2.693-6.514 1.345-3.277 4.147-10.104 4.286-10.36.373-.74.775-.803 1.188-.803h.482V9.406h-.222m10.651 10.292h-4.261a2889.01 2889.01 0 002.136-6.512c.166.483 1.982 6.074 2.125 6.512zm6.316 6.204a26.18 26.18 0 01-.781-2.115l-.179-.524s.007.032.007.045c-.023-.104-.359-1.035-4.69-13.234 0-.004-.244-.645-.244-.645-.069-.206-.21-.19-.372-.174l-.05.006-.088.005-.287.026-.625.05h-.043c-.388.016-.645.027-1.224-.012h-.184l-.041.175c-.156.612-.527 1.609-.847 2.487l-.14.383-.34.93-4.167 11.961c-.346.971-1.112 1.546-2.054 1.546h-.376v1.242l.253-.024.315-.016c.812-.037 1.644-.086 2.462-.086.907 0 1.882.05 2.728.086l.411.016c0 .002.23.03.23.03v-1.215h-.503c-.522 0-1.734-.072-1.734-.72 0-.28.135-.677.296-1.138l.27-.834.784-2.55h5.59c.072.225.967 2.868.967 2.868.247.74.508 1.495.508 1.807 0 .524-.967.567-1.261.567h-.512v1.196l.638-.025c1.086-.036 2.207-.088 3.358-.088 1.102 0 2.153.05 3.184.087l.38.015c0 .002.253.018.253.018v-1.236h-.379c-.789 0-1.24-.27-1.513-.91M136.34 9.466l-.212.006c-.557.022-1.053.046-1.572.046-.609 0-1.249-.033-1.808-.052a32.53 32.53 0 00-1.834-.057h-.224v1.223h.796c.738 0 1.977.288 1.977 2.231.003.085.055 7.359.064 9.29-1.824-2.055-11.155-12.575-11.261-12.681l-.054-.066h-.098c-.406 0-.812.026-1.172.052l-.138.008-1.01.03-1.24-.03-.176-.008c-.41-.025-.903-.049-1.435-.049h-.223l.026 1.135.548.027c.494-.002.985.209 1.356.574.41.413.636.987.636 1.615l-.075 10.963c0 1.975-.328 3.122-1.963 3.122l-.594.025v1.162h.228c.574 0 1.145-.023 1.696-.043h.046c.668-.039 1.218-.06 1.716-.06a28.1 28.1 0 011.67.06h.04l1.653.043h.219v-1.22h-.666c-1.67-.01-2.156-.64-2.156-2.828 0 0-.054-8.083-.062-10.144l13.082 14.588h1.343l-.032-.253c-.137-.84-.153-1.785-.153-2.6l.073-11.852c0-3.09 1.141-3.09 1.975-3.09l.608-.025V9.429h-.218l-1.377.037m21.099 9.697c0 2.002-.59 3.802-1.654 5.093-1.158 1.398-2.838 2.142-4.852 2.142-1.76 0-2.484-.167-2.484-1.841V11.098c.104-.013.206-.019.206-.019.442-.048.893-.093 1.346-.093 2.34 0 4.06.515 5.244 1.57 1.475 1.308 2.194 3.475 2.194 6.607zm1.237-7.22c-1.87-1.661-4.537-2.537-7.712-2.537l-1.572.05-.117.002c-.77.027-1.604.06-2.506.06-.956 0-1.95-.04-2.806-.07l-.51-.016-.85-.023h-.222v1.223h.586c1.084 0 1.706.208 1.706 1.267v13.653c0 1.182-.713 1.28-1.576 1.28l-.588.02v1.18h.224l1.184-.03.306-.01c.765-.026 1.718-.064 2.677-.064 2.135 0 4.167.078 4.733.102 2.576.16 5.046-.741 6.943-2.519a9.458 9.458 0 002.943-6.846c0-2.75-.979-5.074-2.843-6.722m21.065 11.58c-.376 1.408-.784 2.09-1.456 2.437-.69.342-1.69.342-3.206.342h-.062c-1.829 0-2.95-.068-2.95-1.473v-5.706h2.99c1.572 0 1.691.648 1.852 2.23 0 .008.032.25.032.25l1.164-.243-.016-.194a47.792 47.792 0 010-5.55l.016-.239-1.104.027-.02.187c-.16 1.39-.597 1.791-1.954 1.791h-2.96v-6.237h3.4c2.597 0 2.781.857 2.91 2.5.002.007.028.263.028.263l1.148-.304-.018-.185c-.07-1.027-.006-2.36.041-3.434l.032-.58h-.229c-.839 0-1.899.027-3 .055l-.23.006c-1.164.021-2.366.052-3.442.052-1.216 0-2.675-.04-3.73-.058-1.21-.03-2.109-.05-2.757-.05h-.227v1.222h.594c1.078 0 1.704.208 1.704 1.267v13.653c0 1.107-.56 1.327-1.53 1.327h-.585v1.153h.216l2.656-.038c1.29-.03 2.784-.066 4.101-.066 1.274 0 2.724.037 3.982.066l.232.007 2.644.03h.192l.03-.184.21-1.43c.122-.885.242-1.72.461-2.608 0-.008.047-.218.047-.218l-1.159-.287-.048.219m40.008-.764c0 2.16-1.528 3.733-3.632 3.733-1.847 0-2.128-.258-2.128-1.99v-5.686l1.445.018c1.298 0 2.37.33 3.104.941.806.67 1.211 1.68 1.211 2.984zm-4.684-5.442s-.73-.02-1.076-.025v-6.356h1.347c1.617 0 3.265.393 3.265 3.28 0 2.09-1.153 3.101-3.536 3.101zm3.877.542c1.8-.543 3.594-1.702 3.594-4.138 0-1.293-.476-2.33-1.414-3.067-1.048-.821-2.64-1.248-4.745-1.248-.56 0-1.18.023-1.867.054l-.128.006c-.708.021-1.437.052-2.166.052-.732 0-1.45-.03-2.143-.052l-.125-.006a46.33 46.33 0 00-1.795-.05h-.219v1.222h.574c1.09 0 1.713.208 1.713 1.267v13.653c0 1.054-.623 1.26-1.713 1.26h-.574v1.22h.22l1.742-.03.164-.008c.838-.03 1.82-.066 2.7-.066.868 0 1.718.032 2.513.065l2.041.039c1.691 0 3.28-.562 4.487-1.572 1.215-1.023 1.881-2.37 1.881-3.797 0-1.27-.464-2.393-1.346-3.245-.83-.81-2.06-1.37-3.394-1.56m18.107-8.452l-1.495.04-.472.014-.132.008c-.656.02-1.325.05-1.945.05-.63 0-1.32-.03-1.992-.05l-.136-.008c-.752-.03-1.3-.05-1.727-.05h-.22v1.222h.588c1.08 0 1.703.208 1.703 1.267v13.653c0 1.054-.623 1.26-1.703 1.26h-.589v1.22h.221l1.711-.04c.657-.027 1.417-.064 2.117-.064.654 0 1.38.032 2.068.061l.076.004 1.927.039h.221v-1.22h-.585c-1.084 0-1.707-.206-1.707-1.26V11.899c0-1.06.623-1.267 1.707-1.267h.585V9.406h-.221m19.88 14.013c-.161.587-.32 1.024-.705 1.553-.484.66-1.33 1.124-2.29 1.228-1.09.125-1.926.136-3.085.052-.943-.117-1.355-.487-1.355-1.234v-13.2c0-1.186.58-1.186 1.55-1.186h.872V9.406h-.216c-.646 0-1.29.027-1.908.056l-.082.004c-.64.021-1.309.052-1.97.052-.688 0-1.382-.03-2.054-.052a42.06 42.06 0 00-2.066-.057h-.219v1.223h.583c1.104 0 1.732.208 1.732 1.267v13.386c0 1.41-.818 1.527-1.732 1.527h-.583v1.22h.219l3.364-.043h.086c1.348-.039 2.435-.06 3.432-.06.987 0 2 .018 3.271.06h.093c1.027.02 2.087.043 3.202.043h.181l.027-.178c.213-.975.38-1.873.554-2.824l.336-1.765h-1.188l-.049.154m-60.211-8.965c0 1.388-.338 2.423-.997 3.08-.623.611-1.539.921-2.75.907-.01 0-.84-.064-1.091-.076v-7.332l.14-.01c.258-.036.581-.07 1.117-.07 2.212 0 3.581 1.342 3.581 3.5zm5.022 10.913c-.003-.008-3.342-4.55-3.342-4.55-.565-.746-1.049-1.23-1.46-1.457 1.786-.806 3.712-2.553 3.712-5.068 0-1.778-.656-3.097-1.97-3.903-1.058-.647-2.552-.983-4.45-.983l-1.556.04-.404.014-.122.006c-.659.021-1.347.052-2.107.052-.875 0-1.773-.033-2.62-.063l-.265-.009-1.15-.037h-.22v1.223h.684c.891 0 1.628.13 1.628 1.765v13.23c0 1.132-1.15 1.218-1.502 1.218l-.7.025v1.162h.226c.618 0 1.195-.022 1.88-.05.558-.025 1.172-.054 1.776-.054.646 0 1.36.022 2.238.061h.057l2.19.043h.22v-1.22h-.691c-1.19 0-1.912-.091-1.912-1.86v-4.981c.276.013 1.18.036 1.18.036.372.023.658.111.916.496.622.949 2.076 3.154 4.308 6.082 1.046 1.425 2.382 1.425 3.356 1.425l2.945.006v-1.165l-.205-.02c-1.378-.071-1.818-.225-2.64-1.464m74.465-16.025l-.583.042-.078.003-1.156.019h-12.519c-.617 0-1.005-.022-1.383-.047l-.085-.005-.04-.006-.984-.09v.241c0 .595-.016.867-.099 1.568l-.013.161-.036.275-.237 1.902-.027.202h1.212l.047-.163c.393-1.913.44-2.16 2.221-2.174h3.505v13.576c0 1.892-.597 1.967-1.942 1.967h-.71v1.22h.215l1.76-.038c.823-.03 1.781-.066 2.643-.066.737 0 1.617.037 2.388.061l.054.004 1.803.039h.221v-1.22h-.716c-1.136 0-1.942-.142-1.942-2.02V11.27h3.622c1.612.014 1.69 1.444 1.731 2.213l.016.275 1.193-.3v-.172l.044-2.075c.022-.69.076-1.315.1-1.632l.028-.263-.269.027h.016M81.193 47.927c.502.353 1.262.692 1.997.692 1.101 0 1.863-.664 1.863-1.71 0-2.394-4.147-1.417-4.147-4.706 0-1.455 1.184-2.473 2.855-2.473.925 0 1.755.286 2.5.733l-.449.858c-.556-.366-1.114-.696-1.996-.696-.817 0-1.74.518-1.74 1.648 0 2.065 4.228 1.59 4.228 4.536 0 1.404-.98 2.706-3.047 2.706-1.018 0-1.793-.258-2.582-.746l.518-.842m14.95-6.514c-.735-.515-1.523-.705-2.431-.705-2.19 0-3.74 1.742-3.74 3.915s1.55 3.916 3.74 3.916c.828 0 1.683-.314 2.42-.737l.46.83c-.84.49-1.888.883-2.88.883-2.788 0-4.99-1.818-4.99-4.892 0-2.881 2.202-4.893 4.99-4.893 1.113 0 2.01.271 2.92.76l-.489.923m3.821-1.494h1.182l-.042 4.174h5.07l.054-4.174h1.184l-.082 9.406h-1.182l.04-4.253h-5.07l-.054 4.253h-1.18l.08-9.406m10.219 4.704c0 3.074 2.203 4.892 4.99 4.892 2.786 0 4.987-2.01 4.987-4.892 0-3.072-2.2-4.893-4.988-4.893-2.786 0-4.989 2.012-4.989 4.893zm1.252 0c0-2.173 1.55-3.915 3.737-3.915 2.19 0 3.74 1.742 3.74 3.915s-1.55 3.916-3.74 3.916c-2.188 0-3.737-1.743-3.737-3.916m11.173 0c0 3.074 2.2 4.892 4.988 4.892 2.787 0 4.987-2.01 4.987-4.892 0-3.072-2.2-4.893-4.987-4.893-2.788 0-4.988 2.012-4.988 4.893zm1.248 0c0-2.173 1.551-3.915 3.74-3.915 2.187 0 3.738 1.742 3.738 3.915s-1.55 3.916-3.738 3.916c-2.189 0-3.74-1.743-3.74-3.916m11.502 4.702l.08-9.406h1.17l-.08 8.427h4.006v.979h-5.176m11.113-4.702c0 3.074 2.201 4.892 4.988 4.892 2.785 0 4.99-2.01 4.99-4.892 0-3.072-2.205-4.893-4.99-4.893-2.787 0-4.988 2.012-4.988 4.893zm1.25 0c0-2.173 1.55-3.915 3.738-3.915 2.19 0 3.739 1.742 3.739 3.915s-1.55 3.916-3.739 3.916c-2.188 0-3.737-1.743-3.737-3.916m12.058-4.704h5.027v.979h-3.861l-.027 3.195h3.765v.98h-3.752l-.052 4.252h-1.182l.081-9.406m12.732 0h4.836v.979h-3.683l-.026 3.195h3.586v.98h-3.573l-.028 3.273h3.779v.979h-4.975l.084-9.406m8.833.231l.976-.42 5.208 7.624h.03l.052-7.435h1.185l-.084 9.216-1.019.38-5.166-7.691h-.026l-.057 7.5h-1.183l.084-9.173m18.659 4.351l-.052 4.32a7.467 7.467 0 01-3.057.693c-2.787 0-4.988-1.818-4.988-4.892 0-2.881 2.201-4.893 4.988-4.893.992 0 2.022.23 2.908.665l-.448.926c-.615-.353-1.507-.613-2.46-.613-2.188 0-3.74 1.742-3.74 3.915s1.552 3.916 3.74 3.916c.65 0 1.372-.164 1.888-.396l.054-3.64h1.167m4.284-4.584h1.17l-.085 9.406h-1.166l.081-9.406m5.424.231l.976-.42 5.21 7.624h.025l.054-7.435h1.183l-.084 9.216-1.017.38-5.164-7.691h-.027l-.057 7.5h-1.182l.083-9.173m11.581-.232h4.838v.979h-3.687l-.027 3.195h3.59v.98h-3.576l-.026 3.273h3.78v.979h-4.976l.084-9.406m8.559 0h4.841v.979h-3.684l-.026 3.195h3.59v.98h-3.577l-.027 3.273h3.776v.979h-4.973l.08-9.406m8.485 9.406h1.18l.056-4.023h.746c.898 0 1.17.546 1.753 1.293l2.219 3.016 1.03-.625-1.888-2.5c-.393-.49-.924-1.332-1.549-1.455v-.029c1.317-.174 2.364-1.073 2.364-2.61 0-1.562-1.208-2.473-2.99-2.473h-2.84zm1.25-8.589h1.398c1.524 0 2.094.883 2.094 1.889 0 1.372-1.195 1.78-2.35 1.78h-1.17l.028-3.669m8.958-.817h1.17l-.084 9.406h-1.17l.084-9.406m5.422.231l.98-.42 5.205 7.624h.027l.054-7.435h1.182l-.083 9.216-1.019.38-5.166-7.691h-.026l-.054 7.5h-1.183l.083-9.173m19 4.351l-.055 4.32a7.438 7.438 0 01-3.055.693c-2.788 0-4.986-1.818-4.986-4.892 0-2.881 2.198-4.893 4.986-4.893.991 0 2.024.23 2.907.665l-.445.926c-.615-.353-1.514-.613-2.462-.613-2.189 0-3.738 1.742-3.738 3.915s1.55 3.916 3.738 3.916a4.9 4.9 0 001.888-.396l.055-3.64h1.167m10.912-20.027h.464c.528 0 .974-.192.974-.687 0-.353-.254-.704-.974-.704-.208 0-.352.016-.464.032zm0 2.222h-.639v-4.013c.335-.048.655-.095 1.135-.095.608 0 1.008.127 1.248.303.238.176.366.448.366.831 0 .528-.352.848-.782.976v.032c.352.064.59.383.67.976.096.623.194.863.256.99h-.67c-.098-.127-.192-.495-.274-1.023-.094-.512-.35-.704-.862-.704h-.448zm.672-5.132c-1.584 0-2.879 1.359-2.879 3.038 0 1.71 1.295 3.054 2.895 3.054 1.598.016 2.878-1.343 2.878-3.038 0-1.695-1.28-3.054-2.878-3.054zm.016-.56c1.966 0 3.533 1.599 3.533 3.598 0 2.03-1.567 3.614-3.55 3.614-1.967 0-3.566-1.583-3.566-3.614 0-2 1.599-3.598 3.567-3.598h.016"/></svg>