<?xml version="1.0" encoding="utf-8"?>
<!--Generator: Adobe Illustrator 23.0.3, SVG Export Plug-In . SVG Version: 6.00 Build 0)-->
<svg version="1.1" id="Layer_1" xmlns="http://www.w3.org/2000/svg" x="0px" y="0px" viewBox="0 0 220.2 51.2" style="enable-background:new 0 0 220.2 51.2" xml:space="preserve">
    <g>
        <rect x="-36" y="-21.2" width="292.2" height="108" style="display:none;fill:none"/>
        <path d="M102.4,14.8h-7.9v19.9c0,5.3-2.7,9.1-7.9,9.1c-5.2,0-7.8-2.7-7.8-9.1V14.8h-7.9v21.6c0,9.6,4.9,14.8,13.8,14.8
		c5,0,8.2-2.4,9.9-4.5v4.1h7.9L102.4,14.8L102.4,14.8z M165,14.4c-10.2,0-18.4,8.3-18.4,18.4c0,10.2,8.3,18.4,18.4,18.4
		c10.2,0,18.4-8.3,18.4-18.4C183.5,22.6,175.2,14.4,165,14.4z M175.6,32.8c0,5.8-4.7,10.5-10.5,10.5s-10.5-4.7-10.5-10.5
		s4.7-10.5,10.5-10.5C170.9,22.3,175.6,27,175.6,32.8z M127.8,14.4c-2.9,0-7.2,0.6-10.5,4.2v-3.8h-7.9v36h7.9V30
		c0-4.3,3.5-7.7,7.7-7.7c1,0,1.9,0.2,2.8,0.5V14.4z M62.6,47.7c-2.3,2.3-5.3,3.5-8.6,3.5c-3.2,0-6.3-1.3-8.6-3.5
		c-2.3-2.3-3.5-5.3-3.5-8.6h7.5c0,1.2,0.5,2.4,1.3,3.2c0.9,0.9,2,1.3,3.2,1.3s2.4-0.5,3.2-1.3c1.8-1.8,1.8-4.6,0.1-6.4
		c-1.1-0.9-1.9-1-3.3-1.3c-1.9-0.4-4.4-0.9-7-3.5c-3.8-3.8-3.8-10.1,0-13.9c3.8-3.8,10.1-3.8,13.9,0c0.4,0.4,0.7,0.8,1.1,1.3l-5,5
		c-0.8-0.9-1.5-1.4-2.5-1.5c-0.8-0.2-1.6,0-2.1,0.6c-0.4,0.4-0.7,1-0.7,1.6s0.2,1.2,0.7,1.6c1,1,1.7,1.2,3.2,1.4
		c1.7,0.3,4.1,0.8,6.8,3.1l0.2,0.2C67.3,35.3,67.3,43,62.6,47.7z M28.9,50.8h7.9v-18c0-10.2-8.3-18.4-18.4-18.4S0,22.6,0,32.8
		s8.3,18.4,18.4,18.4c3.5,0,7.4-1,10.5-4.5V50.8z M18.4,43.3c-5.8,0-10.5-4.7-10.5-10.5s4.7-10.5,10.5-10.5S28.9,27,28.9,32.8
		S24.2,43.3,18.4,43.3z M204.4,22.3c-4.4,0-7.9,3.5-7.9,7.9v20.6h-7.9V30.2c0-8.7,7.1-15.8,15.8-15.8s15.8,7.1,15.8,15.8v20.6h-7.9
		V30.2C212.3,25.8,208.8,22.3,204.4,22.3z M133.6,14.8h4.1h3.8v36h-7.9L133.6,14.8L133.6,14.8z M142.9,5.4c0,3-2.4,5.4-5.4,5.4
		s-5.4-2.4-5.4-5.4s2.4-5.4,5.4-5.4S142.9,2.4,142.9,5.4z"/>
    </g>
</svg>
