<svg xmlns="http://www.w3.org/2000/svg" viewBox="0 0 514.15 248.65"><defs><style>.a3777b64-6d7a-4235-af88-3e91cf1cdee6{fill:white;stroke:#293c85;stroke-width:3px;}.a3777b64-6d7a-4235-af88-3e91cf1cdee6,.a3b47efe-57e4-4e39-8664-ddc72e84267a,.b0101c0d-fb74-427f-918b-5aa1dbff6931,.f3e1b40f-d77b-4924-9570-c33d92d5c1ad{stroke-miterlimit:10;}.a3b47efe-57e4-4e39-8664-ddc72e84267a,.b0101c0d-fb74-427f-918b-5aa1dbff6931{fill:none;}.a3b47efe-57e4-4e39-8664-ddc72e84267a,.b0101c0d-fb74-427f-918b-5aa1dbff6931,.f3e1b40f-d77b-4924-9570-c33d92d5c1ad{stroke:#000;}.b0101c0d-fb74-427f-918b-5aa1dbff6931{stroke-width:0.3px;}.f3e1b40f-d77b-4924-9570-c33d92d5c1ad{fill:#293c85;stroke-width:2px;stroke-dasharray:12;}</style></defs><title>Asset 11</title><g id="ff4fe72f-eac9-431a-84db-e314cdf6f516" data-name="Layer 2"><g id="f31365ff-aac9-42d2-8dfe-842a95638a7b" data-name="basically everything"><path class="a3777b64-6d7a-4235-af88-3e91cf1cdee6" d="M122.49,35.85V65.68h37.25V78.2H122.49v47H108.66V23.33H170.8V35.85Z" transform="translate(0 -5.29)"/><path class="a3777b64-6d7a-4235-af88-3e91cf1cdee6" d="M242.4,125.2l-9.75-27.5h-39l-9.75,27.5H169.35L205.88,23.33h14.55L257,125.2ZM213.15,42.69,198,85.18h30.27Z" transform="translate(0 -5.29)"/><path class="a3777b64-6d7a-4235-af88-3e91cf1cdee6" d="M356.06,124.76l-9.46-7.86a51.75,51.75,0,0,1-31.43,10.34c-29.1,0-50.2-20.67-50.2-53s21.1-53,50.2-53,50.21,20.66,50.21,53a59.85,59.85,0,0,1-10.77,34.78l8.73,7.13Zm-76-50.49c0,22.7,11.5,40.45,35.07,40.45,6.55,0,15.43-1,22-5.82l-15-12.22,7.27-8.88,15.28,13.53c6.4-10,7-18.91,7-27.06,0-22.71-12.95-40.46-36.53-40.46S280.1,51.56,280.1,74.27Z" transform="translate(0 -5.29)"/><polygon class="b0101c0d-fb74-427f-918b-5aa1dbff6931" points="58.15 168.15 58.15 0.15 0.15 0.15 0.15 168.15 0.15 225.15 0.15 226.15 225.15 226.15 225.15 168.15 58.15 168.15"/><rect class="a3b47efe-57e4-4e39-8664-ddc72e84267a" x="225.15" y="197.15" width="153" height="51"/><line class="f3e1b40f-d77b-4924-9570-c33d92d5c1ad" x1="225.15" y1="179.99" x2="514.15" y2="179.99"/></g></g></svg>