<svg xmlns="http://www.w3.org/2000/svg" xmlns:xlink="http://www.w3.org/1999/xlink" viewBox="0 0 1258 640"><defs><style>.afaa863b-c582-40d8-aec4-c9cb65e00cf1,.b0ab1e07-7f08-4da9-9964-79bb635cd76e,.b73134e2-64fd-4d57-be5f-759af2b1af07,.b7925a3b-4786-4f5e-b396-c2a6cc3f301f,.bc9f8277-f549-4428-bf8f-be5017f2ee6c,.f6a7e2f0-9f6c-410e-90cb-d61d3e2afc9d{fill:none;}.b73134e2-64fd-4d57-be5f-759af2b1af07{stroke:#97afb1;}.afaa863b-c582-40d8-aec4-c9cb65e00cf1,.b0ab1e07-7f08-4da9-9964-79bb635cd76e,.b73134e2-64fd-4d57-be5f-759af2b1af07,.b7925a3b-4786-4f5e-b396-c2a6cc3f301f,.bc9f8277-f549-4428-bf8f-be5017f2ee6c{stroke-miterlimit:10;}.afaa863b-c582-40d8-aec4-c9cb65e00cf1,.b0ab1e07-7f08-4da9-9964-79bb635cd76e,.b73134e2-64fd-4d57-be5f-759af2b1af07,.b7925a3b-4786-4f5e-b396-c2a6cc3f301f{stroke-width:2.5px;}.afaa863b-c582-40d8-aec4-c9cb65e00cf1,.bc9f8277-f549-4428-bf8f-be5017f2ee6c{stroke:#293993;}.bc9f8277-f549-4428-bf8f-be5017f2ee6c{stroke-width:1.25px;}.b0ab1e07-7f08-4da9-9964-79bb635cd76e{stroke:#fcb040;}.b7925a3b-4786-4f5e-b396-c2a6cc3f301f{stroke:#ecda58;}.b411687b-d32b-423d-b6c7-9a99fe75424a{opacity:0.4;}.b3f8866b-ed34-426b-b606-4d5fab461ebf{fill:url(#e62b4319-5520-4880-850b-dcb017da96ad);}.f3959dab-34ca-4f8f-84cc-5069b3ee5926{fill:url(#b1e365e0-945c-41dd-9d98-6064d0ca2e50);}.acd59386-38fe-443b-abcf-42191077dc76{fill:url(#beb554aa-9041-461e-b11c-34b1de56c255);}.bc5d6dbd-b0d9-4250-a9bb-92af3aa4ed71{fill:url(#f754faa0-6d08-48c9-9d39-b1eb04af627b);}.f37567a6-f42d-49cf-aae8-681debc8f80e{opacity:0.18;}.bce4276f-1596-44cb-b822-98535c4ebc38{opacity:0.2;}</style><pattern id="e62b4319-5520-4880-850b-dcb017da96ad" data-name="grid1 - dark blue" width="1522.5" height="817.5" patternUnits="userSpaceOnUse" viewBox="0 0 1522.5 817.5"><rect class="f6a7e2f0-9f6c-410e-90cb-d61d3e2afc9d" width="1522.5" height="817.5"/><line class="afaa863b-c582-40d8-aec4-c9cb65e00cf1" x1="1394.34" y1="1.75" x2="1394.34" y2="816.75"/><line class="afaa863b-c582-40d8-aec4-c9cb65e00cf1" x1="1330.93" y1="1.75" x2="1330.93" y2="816.75"/><line class="afaa863b-c582-40d8-aec4-c9cb65e00cf1" x1="1267.52" y1="1.75" x2="1267.52" y2="816.75"/><line class="afaa863b-c582-40d8-aec4-c9cb65e00cf1" x1="1204.11" y1="1.75" x2="1204.11" y2="816.75"/><line class="afaa863b-c582-40d8-aec4-c9cb65e00cf1" x1="1140.7" y1="1.75" x2="1140.7" y2="816.75"/><line class="afaa863b-c582-40d8-aec4-c9cb65e00cf1" x1="1077.3" y1="1.75" x2="1077.3" y2="816.75"/><line class="afaa863b-c582-40d8-aec4-c9cb65e00cf1" x1="1013.89" y1="1.75" x2="1013.89" y2="816.75"/><line class="afaa863b-c582-40d8-aec4-c9cb65e00cf1" x1="950.48" y1="1.75" x2="950.48" y2="816.75"/><line class="afaa863b-c582-40d8-aec4-c9cb65e00cf1" x1="887.07" y1="1.75" x2="887.07" y2="816.75"/><line class="afaa863b-c582-40d8-aec4-c9cb65e00cf1" x1="823.66" y1="1.75" x2="823.66" y2="816.75"/><line class="afaa863b-c582-40d8-aec4-c9cb65e00cf1" x1="760.25" y1="1.75" x2="760.25" y2="816.75"/><line class="afaa863b-c582-40d8-aec4-c9cb65e00cf1" x1="696.84" y1="1.75" x2="696.84" y2="816.75"/><line class="afaa863b-c582-40d8-aec4-c9cb65e00cf1" x1="633.43" y1="1.75" x2="633.43" y2="816.75"/><line class="afaa863b-c582-40d8-aec4-c9cb65e00cf1" x1="570.02" y1="1.75" x2="570.02" y2="816.75"/><line class="afaa863b-c582-40d8-aec4-c9cb65e00cf1" x1="506.61" y1="1.75" x2="506.61" y2="816.75"/><line class="afaa863b-c582-40d8-aec4-c9cb65e00cf1" x1="443.2" y1="1.75" x2="443.2" y2="816.75"/><line class="afaa863b-c582-40d8-aec4-c9cb65e00cf1" x1="379.8" y1="1.75" x2="379.8" y2="816.75"/><line class="afaa863b-c582-40d8-aec4-c9cb65e00cf1" x1="316.39" y1="1.75" x2="316.39" y2="816.75"/><line class="afaa863b-c582-40d8-aec4-c9cb65e00cf1" x1="252.98" y1="1.75" x2="252.98" y2="816.75"/><line class="afaa863b-c582-40d8-aec4-c9cb65e00cf1" x1="189.57" y1="1.75" x2="189.57" y2="816.75"/><line class="afaa863b-c582-40d8-aec4-c9cb65e00cf1" x1="126.16" y1="1.75" x2="126.16" y2="816.75"/><line class="afaa863b-c582-40d8-aec4-c9cb65e00cf1" x1="62.75" y1="816.75" x2="62.75" y2="1.75"/><line class="afaa863b-c582-40d8-aec4-c9cb65e00cf1" x1="1457.75" y1="1.75" x2="1457.75" y2="816.75"/><line class="afaa863b-c582-40d8-aec4-c9cb65e00cf1" x1="0.25" y1="65.25" x2="1521.25" y2="65.25"/><line class="afaa863b-c582-40d8-aec4-c9cb65e00cf1" x1="0.75" y1="141.81" x2="1521.75" y2="141.81"/><line class="afaa863b-c582-40d8-aec4-c9cb65e00cf1" x1="0.75" y1="218.36" x2="1521.75" y2="218.36"/><line class="afaa863b-c582-40d8-aec4-c9cb65e00cf1" x1="0.75" y1="294.92" x2="1521.75" y2="294.92"/><line class="afaa863b-c582-40d8-aec4-c9cb65e00cf1" x1="0.75" y1="371.47" x2="1521.75" y2="371.47"/><line class="afaa863b-c582-40d8-aec4-c9cb65e00cf1" x1="0.75" y1="448.03" x2="1521.75" y2="448.03"/><line class="afaa863b-c582-40d8-aec4-c9cb65e00cf1" x1="0.75" y1="524.58" x2="1521.75" y2="524.58"/><line class="afaa863b-c582-40d8-aec4-c9cb65e00cf1" x1="0.75" y1="601.14" x2="1521.75" y2="601.14"/><line class="afaa863b-c582-40d8-aec4-c9cb65e00cf1" x1="0.75" y1="677.69" x2="1521.75" y2="677.69"/><line class="afaa863b-c582-40d8-aec4-c9cb65e00cf1" x1="0.75" y1="754.25" x2="1521.75" y2="754.25"/><rect class="bc9f8277-f549-4428-bf8f-be5017f2ee6c" x="1.25" y="1.25" width="1520" height="815"/></pattern><pattern id="b1e365e0-945c-41dd-9d98-6064d0ca2e50" data-name="grid1 - yellow" width="1522.5" height="817.5" patternUnits="userSpaceOnUse" viewBox="0 0 1522.5 817.5"><rect class="f6a7e2f0-9f6c-410e-90cb-d61d3e2afc9d" width="1522.5" height="817.5"/><line class="b7925a3b-4786-4f5e-b396-c2a6cc3f301f" x1="1394.34" y1="1.75" x2="1394.34" y2="816.75"/><line class="b7925a3b-4786-4f5e-b396-c2a6cc3f301f" x1="1330.93" y1="1.75" x2="1330.93" y2="816.75"/><line class="b7925a3b-4786-4f5e-b396-c2a6cc3f301f" x1="1267.52" y1="1.75" x2="1267.52" y2="816.75"/><line class="b7925a3b-4786-4f5e-b396-c2a6cc3f301f" x1="1204.11" y1="1.75" x2="1204.11" y2="816.75"/><line class="b7925a3b-4786-4f5e-b396-c2a6cc3f301f" x1="1140.7" y1="1.75" x2="1140.7" y2="816.75"/><line class="b7925a3b-4786-4f5e-b396-c2a6cc3f301f" x1="1077.3" y1="1.75" x2="1077.3" y2="816.75"/><line class="b7925a3b-4786-4f5e-b396-c2a6cc3f301f" x1="1013.89" y1="1.75" x2="1013.89" y2="816.75"/><line class="b7925a3b-4786-4f5e-b396-c2a6cc3f301f" x1="950.48" y1="1.75" x2="950.48" y2="816.75"/><line class="b7925a3b-4786-4f5e-b396-c2a6cc3f301f" x1="887.07" y1="1.75" x2="887.07" y2="816.75"/><line class="b7925a3b-4786-4f5e-b396-c2a6cc3f301f" x1="823.66" y1="1.75" x2="823.66" y2="816.75"/><line class="b7925a3b-4786-4f5e-b396-c2a6cc3f301f" x1="760.25" y1="1.75" x2="760.25" y2="816.75"/><line class="b7925a3b-4786-4f5e-b396-c2a6cc3f301f" x1="696.84" y1="1.75" x2="696.84" y2="816.75"/><line class="b7925a3b-4786-4f5e-b396-c2a6cc3f301f" x1="633.43" y1="1.75" x2="633.43" y2="816.75"/><line class="b7925a3b-4786-4f5e-b396-c2a6cc3f301f" x1="570.02" y1="1.75" x2="570.02" y2="816.75"/><line class="b7925a3b-4786-4f5e-b396-c2a6cc3f301f" x1="506.61" y1="1.75" x2="506.61" y2="816.75"/><line class="b7925a3b-4786-4f5e-b396-c2a6cc3f301f" x1="443.2" y1="1.75" x2="443.2" y2="816.75"/><line class="b7925a3b-4786-4f5e-b396-c2a6cc3f301f" x1="379.8" y1="1.75" x2="379.8" y2="816.75"/><line class="b7925a3b-4786-4f5e-b396-c2a6cc3f301f" x1="316.39" y1="1.75" x2="316.39" y2="816.75"/><line class="b7925a3b-4786-4f5e-b396-c2a6cc3f301f" x1="252.98" y1="1.75" x2="252.98" y2="816.75"/><line class="b7925a3b-4786-4f5e-b396-c2a6cc3f301f" x1="189.57" y1="1.75" x2="189.57" y2="816.75"/><line class="b7925a3b-4786-4f5e-b396-c2a6cc3f301f" x1="126.16" y1="1.75" x2="126.16" y2="816.75"/><line class="b7925a3b-4786-4f5e-b396-c2a6cc3f301f" x1="62.75" y1="816.75" x2="62.75" y2="1.75"/><line class="b7925a3b-4786-4f5e-b396-c2a6cc3f301f" x1="1457.75" y1="1.75" x2="1457.75" y2="816.75"/><line class="b7925a3b-4786-4f5e-b396-c2a6cc3f301f" x1="0.25" y1="65.25" x2="1521.25" y2="65.25"/><line class="b7925a3b-4786-4f5e-b396-c2a6cc3f301f" x1="0.75" y1="141.81" x2="1521.75" y2="141.81"/><line class="b7925a3b-4786-4f5e-b396-c2a6cc3f301f" x1="0.75" y1="218.36" x2="1521.75" y2="218.36"/><line class="b7925a3b-4786-4f5e-b396-c2a6cc3f301f" x1="0.75" y1="294.92" x2="1521.75" y2="294.92"/><line class="b7925a3b-4786-4f5e-b396-c2a6cc3f301f" x1="0.75" y1="371.47" x2="1521.75" y2="371.47"/><line class="b7925a3b-4786-4f5e-b396-c2a6cc3f301f" x1="0.75" y1="448.03" x2="1521.75" y2="448.03"/><line class="b7925a3b-4786-4f5e-b396-c2a6cc3f301f" x1="0.75" y1="524.58" x2="1521.75" y2="524.58"/><line class="b7925a3b-4786-4f5e-b396-c2a6cc3f301f" x1="0.75" y1="601.14" x2="1521.75" y2="601.14"/><line class="b7925a3b-4786-4f5e-b396-c2a6cc3f301f" x1="0.75" y1="677.69" x2="1521.75" y2="677.69"/><line class="b7925a3b-4786-4f5e-b396-c2a6cc3f301f" x1="0.75" y1="754.25" x2="1521.75" y2="754.25"/><rect class="b7925a3b-4786-4f5e-b396-c2a6cc3f301f" x="1.25" y="1.25" width="1520" height="815"/></pattern><pattern id="beb554aa-9041-461e-b11c-34b1de56c255" data-name="grid1" width="1522.5" height="817.5" patternUnits="userSpaceOnUse" viewBox="0 0 1522.5 817.5"><rect class="f6a7e2f0-9f6c-410e-90cb-d61d3e2afc9d" width="1522.5" height="817.5"/><line class="b73134e2-64fd-4d57-be5f-759af2b1af07" x1="1394.34" y1="1.75" x2="1394.34" y2="816.75"/><line class="b73134e2-64fd-4d57-be5f-759af2b1af07" x1="1330.93" y1="1.75" x2="1330.93" y2="816.75"/><line class="b73134e2-64fd-4d57-be5f-759af2b1af07" x1="1267.52" y1="1.75" x2="1267.52" y2="816.75"/><line class="b73134e2-64fd-4d57-be5f-759af2b1af07" x1="1204.11" y1="1.75" x2="1204.11" y2="816.75"/><line class="b73134e2-64fd-4d57-be5f-759af2b1af07" x1="1140.7" y1="1.75" x2="1140.7" y2="816.75"/><line class="b73134e2-64fd-4d57-be5f-759af2b1af07" x1="1077.3" y1="1.75" x2="1077.3" y2="816.75"/><line class="b73134e2-64fd-4d57-be5f-759af2b1af07" x1="1013.89" y1="1.75" x2="1013.89" y2="816.75"/><line class="b73134e2-64fd-4d57-be5f-759af2b1af07" x1="950.48" y1="1.75" x2="950.48" y2="816.75"/><line class="b73134e2-64fd-4d57-be5f-759af2b1af07" x1="887.07" y1="1.75" x2="887.07" y2="816.75"/><line class="b73134e2-64fd-4d57-be5f-759af2b1af07" x1="823.66" y1="1.75" x2="823.66" y2="816.75"/><line class="b73134e2-64fd-4d57-be5f-759af2b1af07" x1="760.25" y1="1.75" x2="760.25" y2="816.75"/><line class="b73134e2-64fd-4d57-be5f-759af2b1af07" x1="696.84" y1="1.75" x2="696.84" y2="816.75"/><line class="b73134e2-64fd-4d57-be5f-759af2b1af07" x1="633.43" y1="1.75" x2="633.43" y2="816.75"/><line class="b73134e2-64fd-4d57-be5f-759af2b1af07" x1="570.02" y1="1.75" x2="570.02" y2="816.75"/><line class="b73134e2-64fd-4d57-be5f-759af2b1af07" x1="506.61" y1="1.75" x2="506.61" y2="816.75"/><line class="b73134e2-64fd-4d57-be5f-759af2b1af07" x1="443.2" y1="1.75" x2="443.2" y2="816.75"/><line class="b73134e2-64fd-4d57-be5f-759af2b1af07" x1="379.8" y1="1.75" x2="379.8" y2="816.75"/><line class="b73134e2-64fd-4d57-be5f-759af2b1af07" x1="316.39" y1="1.75" x2="316.39" y2="816.75"/><line class="b73134e2-64fd-4d57-be5f-759af2b1af07" x1="252.98" y1="1.75" x2="252.98" y2="816.75"/><line class="b73134e2-64fd-4d57-be5f-759af2b1af07" x1="189.57" y1="1.75" x2="189.57" y2="816.75"/><line class="b73134e2-64fd-4d57-be5f-759af2b1af07" x1="126.16" y1="1.75" x2="126.16" y2="816.75"/><line class="b73134e2-64fd-4d57-be5f-759af2b1af07" x1="62.75" y1="816.75" x2="62.75" y2="1.75"/><line class="b73134e2-64fd-4d57-be5f-759af2b1af07" x1="1457.75" y1="1.75" x2="1457.75" y2="816.75"/><line class="b73134e2-64fd-4d57-be5f-759af2b1af07" x1="0.25" y1="65.25" x2="1521.25" y2="65.25"/><line class="b73134e2-64fd-4d57-be5f-759af2b1af07" x1="0.75" y1="141.81" x2="1521.75" y2="141.81"/><line class="b73134e2-64fd-4d57-be5f-759af2b1af07" x1="0.75" y1="218.36" x2="1521.75" y2="218.36"/><line class="b73134e2-64fd-4d57-be5f-759af2b1af07" x1="0.75" y1="294.92" x2="1521.75" y2="294.92"/><line class="b73134e2-64fd-4d57-be5f-759af2b1af07" x1="0.75" y1="371.47" x2="1521.75" y2="371.47"/><line class="b73134e2-64fd-4d57-be5f-759af2b1af07" x1="0.75" y1="448.03" x2="1521.75" y2="448.03"/><line class="b73134e2-64fd-4d57-be5f-759af2b1af07" x1="0.75" y1="524.58" x2="1521.75" y2="524.58"/><line class="b73134e2-64fd-4d57-be5f-759af2b1af07" x1="0.75" y1="601.14" x2="1521.75" y2="601.14"/><line class="b73134e2-64fd-4d57-be5f-759af2b1af07" x1="0.75" y1="677.69" x2="1521.75" y2="677.69"/><line class="b73134e2-64fd-4d57-be5f-759af2b1af07" x1="0.75" y1="754.25" x2="1521.75" y2="754.25"/><rect class="b73134e2-64fd-4d57-be5f-759af2b1af07" x="1.25" y="1.25" width="1520" height="815"/></pattern><pattern id="f754faa0-6d08-48c9-9d39-b1eb04af627b" data-name="grid1 - orange" width="1522.5" height="817.5" patternUnits="userSpaceOnUse" viewBox="0 0 1522.5 817.5"><rect class="f6a7e2f0-9f6c-410e-90cb-d61d3e2afc9d" width="1522.5" height="817.5"/><line class="b0ab1e07-7f08-4da9-9964-79bb635cd76e" x1="1394.34" y1="1.75" x2="1394.34" y2="816.75"/><line class="b0ab1e07-7f08-4da9-9964-79bb635cd76e" x1="1330.93" y1="1.75" x2="1330.93" y2="816.75"/><line class="b0ab1e07-7f08-4da9-9964-79bb635cd76e" x1="1267.52" y1="1.75" x2="1267.52" y2="816.75"/><line class="b0ab1e07-7f08-4da9-9964-79bb635cd76e" x1="1204.11" y1="1.75" x2="1204.11" y2="816.75"/><line class="b0ab1e07-7f08-4da9-9964-79bb635cd76e" x1="1140.7" y1="1.75" x2="1140.7" y2="816.75"/><line class="b0ab1e07-7f08-4da9-9964-79bb635cd76e" x1="1077.3" y1="1.75" x2="1077.3" y2="816.75"/><line class="b0ab1e07-7f08-4da9-9964-79bb635cd76e" x1="1013.89" y1="1.75" x2="1013.89" y2="816.75"/><line class="b0ab1e07-7f08-4da9-9964-79bb635cd76e" x1="950.48" y1="1.75" x2="950.48" y2="816.75"/><line class="b0ab1e07-7f08-4da9-9964-79bb635cd76e" x1="887.07" y1="1.75" x2="887.07" y2="816.75"/><line class="b0ab1e07-7f08-4da9-9964-79bb635cd76e" x1="823.66" y1="1.75" x2="823.66" y2="816.75"/><line class="b0ab1e07-7f08-4da9-9964-79bb635cd76e" x1="760.25" y1="1.75" x2="760.25" y2="816.75"/><line class="b0ab1e07-7f08-4da9-9964-79bb635cd76e" x1="696.84" y1="1.75" x2="696.84" y2="816.75"/><line class="b0ab1e07-7f08-4da9-9964-79bb635cd76e" x1="633.43" y1="1.75" x2="633.43" y2="816.75"/><line class="b0ab1e07-7f08-4da9-9964-79bb635cd76e" x1="570.02" y1="1.75" x2="570.02" y2="816.75"/><line class="b0ab1e07-7f08-4da9-9964-79bb635cd76e" x1="506.61" y1="1.75" x2="506.61" y2="816.75"/><line class="b0ab1e07-7f08-4da9-9964-79bb635cd76e" x1="443.2" y1="1.75" x2="443.2" y2="816.75"/><line class="b0ab1e07-7f08-4da9-9964-79bb635cd76e" x1="379.8" y1="1.75" x2="379.8" y2="816.75"/><line class="b0ab1e07-7f08-4da9-9964-79bb635cd76e" x1="316.39" y1="1.75" x2="316.39" y2="816.75"/><line class="b0ab1e07-7f08-4da9-9964-79bb635cd76e" x1="252.98" y1="1.75" x2="252.98" y2="816.75"/><line class="b0ab1e07-7f08-4da9-9964-79bb635cd76e" x1="189.57" y1="1.75" x2="189.57" y2="816.75"/><line class="b0ab1e07-7f08-4da9-9964-79bb635cd76e" x1="126.16" y1="1.75" x2="126.16" y2="816.75"/><line class="b0ab1e07-7f08-4da9-9964-79bb635cd76e" x1="62.75" y1="816.75" x2="62.75" y2="1.75"/><line class="b0ab1e07-7f08-4da9-9964-79bb635cd76e" x1="1457.75" y1="1.75" x2="1457.75" y2="816.75"/><line class="b0ab1e07-7f08-4da9-9964-79bb635cd76e" x1="0.25" y1="65.25" x2="1521.25" y2="65.25"/><line class="b0ab1e07-7f08-4da9-9964-79bb635cd76e" x1="0.75" y1="141.81" x2="1521.75" y2="141.81"/><line class="b0ab1e07-7f08-4da9-9964-79bb635cd76e" x1="0.75" y1="218.36" x2="1521.75" y2="218.36"/><line class="b0ab1e07-7f08-4da9-9964-79bb635cd76e" x1="0.75" y1="294.92" x2="1521.75" y2="294.92"/><line class="b0ab1e07-7f08-4da9-9964-79bb635cd76e" x1="0.75" y1="371.47" x2="1521.75" y2="371.47"/><line class="b0ab1e07-7f08-4da9-9964-79bb635cd76e" x1="0.75" y1="448.03" x2="1521.75" y2="448.03"/><line class="b0ab1e07-7f08-4da9-9964-79bb635cd76e" x1="0.75" y1="524.58" x2="1521.75" y2="524.58"/><line class="b0ab1e07-7f08-4da9-9964-79bb635cd76e" x1="0.75" y1="601.14" x2="1521.75" y2="601.14"/><line class="b0ab1e07-7f08-4da9-9964-79bb635cd76e" x1="0.75" y1="677.69" x2="1521.75" y2="677.69"/><line class="b0ab1e07-7f08-4da9-9964-79bb635cd76e" x1="0.75" y1="754.25" x2="1521.75" y2="754.25"/><rect class="b0ab1e07-7f08-4da9-9964-79bb635cd76e" x="1.25" y="1.25" width="1520" height="815"/></pattern></defs><title>Asset 2</title><g id="eaeda361-d8ff-41e3-947c-b1d1f115757f" data-name="Layer 2"><g id="ea5ce7d6-47db-475f-bda4-24c659bc468d" data-name="grid"><g class="b411687b-d32b-423d-b6c7-9a99fe75424a"><rect class="b3f8866b-ed34-426b-b606-4d5fab461ebf" x="132" y="105.27" width="1033.91" height="231.24"/><polygon class="b3f8866b-ed34-426b-b606-4d5fab461ebf" points="933.79 571 693.8 336.52 435 570.43 933.79 571"/><rect class="f3959dab-34ca-4f8f-84cc-5069b3ee5926" x="821.27" y="346.89" width="183.06" height="94.87"/><polygon class="acd59386-38fe-443b-abcf-42191077dc76" points="339.52 369.86 704.17 369.86 484.87 570.71 339.52 369.86"/><circle class="bc5d6dbd-b0d9-4250-a9bb-92af3aa4ed71" cx="651.92" cy="302.79" r="216.79"/></g></g><g id="ba66a00e-3b94-47ff-9753-e3179f3e0fd5" data-name="grid outer"><g class="f37567a6-f42d-49cf-aae8-681debc8f80e"><path class="f3959dab-34ca-4f8f-84cc-5069b3ee5926" d="M821.27,441.75v-3.64q-5.14,6.43-10.75,12.45L830.42,470h204V370h-30v71.75Z"/><polygon class="b3f8866b-ed34-426b-b606-4d5fab461ebf" points="485.12 570.49 484.87 570.71 484.71 570.49 435 570.43 465.02 543.29 412.19 470.29 406 470.29 406 610 933.79 610 933.79 470 830.48 470.06 933.79 571 485.12 570.49"/><rect class="bc5d6dbd-b0d9-4250-a9bb-92af3aa4ed71" x="504" y="34" width="239" height="31"/><path class="b3f8866b-ed34-426b-b606-4d5fab461ebf" d="M1195,65H743l3.3,40.27h419.61V336.51H866.09q-.81,5.24-1.88,10.38h140.13V370H1195Z"/><path class="b3f8866b-ed34-426b-b606-4d5fab461ebf" d="M132,336.51V105.27H504V34H93V359H442.52a211.66,211.66,0,0,1-4.77-22.49Z"/><path class="acd59386-38fe-443b-abcf-42191077dc76" d="M445.73,369.86a213.55,213.55,0,0,1-8-33.35H285V470H412L339.52,369.86Z"/></g><g class="bce4276f-1596-44cb-b822-98535c4ebc38"><polygon class="acd59386-38fe-443b-abcf-42191077dc76" points="830.48 470.06 933.79 470 830.42 470 830.48 470.06"/><path class="acd59386-38fe-443b-abcf-42191077dc76" d="M438.87,343v0l-.12-.64Z"/><path class="acd59386-38fe-443b-abcf-42191077dc76" d="M443.94,364.05c.06.23.13.46.2.69C444.07,364.51,444,364.28,443.94,364.05Z"/><path class="acd59386-38fe-443b-abcf-42191077dc76" d="M504,105.27h58.45a217.34,217.34,0,0,1,178.94,0h4.91L743,65H504Z"/><path class="acd59386-38fe-443b-abcf-42191077dc76" d="M62,0H0V520H319V640h746V499h60V395h133V0ZM1195,370H1034.38V470H933.79V610H406V470.29h6.19L412,470H285V359H93V34H743V65h452Z"/><polygon class="acd59386-38fe-443b-abcf-42191077dc76" points="830.42 470 830.42 470 810.52 450.56 830.42 470"/><polygon class="acd59386-38fe-443b-abcf-42191077dc76" points="830.48 470.06 933.79 571 830.48 470.06 830.48 470.06"/><polygon class="acd59386-38fe-443b-abcf-42191077dc76" points="412.19 470.29 412.19 470.29 465.02 543.29 412.19 470.29"/><polygon class="acd59386-38fe-443b-abcf-42191077dc76" points="339.52 369.86 411.99 470 411.99 470 339.52 369.86"/><path class="acd59386-38fe-443b-abcf-42191077dc76" d="M444.14,364.74c.51,1.72,1,3.42,1.59,5.12C445.17,368.16,444.65,366.46,444.14,364.74Z"/><path class="acd59386-38fe-443b-abcf-42191077dc76" d="M437.75,336.51c.3,2,.64,3.9,1,5.84l-.12-.63C438.32,340,438,338.25,437.75,336.51Z"/><path class="acd59386-38fe-443b-abcf-42191077dc76" d="M442.52,359q-1.45-5.38-2.62-10.86c0-.26-.11-.52-.16-.78-.31-1.45-.59-2.91-.87-4.37a213.9,213.9,0,0,0,5.07,21.06Q443.19,361.53,442.52,359Z"/></g></g></g></svg>