<svg xmlns="http://www.w3.org/2000/svg" viewBox="0 0 592.08 38.65"><defs><style>.ac5186ba-2aec-4cef-98b1-a99524f43759{fill:#293c85;}</style></defs><title>Asset 3</title><g id="e65347f7-8a9d-485f-8aea-56c87b8127cc" data-name="Layer 2"><g id="e6ca36e1-062f-4ba7-8a64-709e729d82f4" data-name="grid"><path class="ac5186ba-2aec-4cef-98b1-a99524f43759" d="M3.42,6.4h7.32L25.16,29.63h.08V6.4h5.53v31h-7L9,13.45H8.94v24H3.42Z" transform="translate(-3.42 -4.29)"/><path class="ac5186ba-2aec-4cef-98b1-a99524f43759" d="M36.11,26.82a11.07,11.07,0,0,1,.9-4.53,10.39,10.39,0,0,1,6.07-5.72,13,13,0,0,1,8.94,0,10.39,10.39,0,0,1,6.07,5.72,11.07,11.07,0,0,1,.9,4.53,11.25,11.25,0,0,1-.9,4.56,10.9,10.9,0,0,1-2.43,3.53A11.18,11.18,0,0,1,52,37.21a12.45,12.45,0,0,1-8.94,0,11.18,11.18,0,0,1-3.64-2.3A10.9,10.9,0,0,1,37,31.38,11.25,11.25,0,0,1,36.11,26.82Zm5.35,0a8.39,8.39,0,0,0,.37,2.46A6.88,6.88,0,0,0,43,31.47,5.76,5.76,0,0,0,44.83,33a5.84,5.84,0,0,0,7.32-1.57,6.88,6.88,0,0,0,1.12-2.19,8.39,8.39,0,0,0,.37-2.46,8.1,8.1,0,0,0-.37-2.43,6.78,6.78,0,0,0-1.12-2.17,5.64,5.64,0,0,0-1.88-1.56,6.56,6.56,0,0,0-5.44,0A5.74,5.74,0,0,0,43,22.22a6.78,6.78,0,0,0-1.12,2.17A8.1,8.1,0,0,0,41.46,26.82Z" transform="translate(-3.42 -4.29)"/><path class="ac5186ba-2aec-4cef-98b1-a99524f43759" d="M60.92,16.39h5.74l5.52,15.34h.09l5.56-15.34H83.4L75,37.43H69.42Z" transform="translate(-3.42 -4.29)"/><path class="ac5186ba-2aec-4cef-98b1-a99524f43759" d="M106.58,12.8l-6.13,5L97.38,14.2l9.69-7.8h4.77v31h-5.26Z" transform="translate(-3.42 -4.29)"/><path class="ac5186ba-2aec-4cef-98b1-a99524f43759" d="M133.36,28.88H122.84V24.41h10.52Z" transform="translate(-3.42 -4.29)"/><path class="ac5186ba-2aec-4cef-98b1-a99524f43759" d="M144.4,19.15h1.41a13,13,0,0,0,2.34-.2,6.78,6.78,0,0,0,2.13-.72,4.24,4.24,0,0,0,1.55-1.42,4.16,4.16,0,0,0,.59-2.35,4.36,4.36,0,0,0-.39-1.88,4,4,0,0,0-1.07-1.4,4.88,4.88,0,0,0-1.58-.88,5.59,5.59,0,0,0-1.86-.31,4.71,4.71,0,0,0-3.2,1.1A5.6,5.6,0,0,0,142.56,14l-4.95-1.27A8.12,8.12,0,0,1,139,9.84a9.7,9.7,0,0,1,2.28-2.24,11,11,0,0,1,3-1.46,11.28,11.28,0,0,1,3.5-.53,12.94,12.94,0,0,1,3.83.55,9.33,9.33,0,0,1,3.19,1.62,7.7,7.7,0,0,1,2.15,2.65,8.21,8.21,0,0,1,.78,3.68,7.11,7.11,0,0,1-5.56,7v.09a8.11,8.11,0,0,1,4.62,2.57,7.09,7.09,0,0,1,1.78,4.88,8.92,8.92,0,0,1-.94,4.21,8.78,8.78,0,0,1-2.48,3,10.75,10.75,0,0,1-3.47,1.77,13,13,0,0,1-3.9.6A15.94,15.94,0,0,1,144,37.8a11.55,11.55,0,0,1-3.22-1.29,9.82,9.82,0,0,1-2.59-2.28,10.52,10.52,0,0,1-1.73-3.33l4.91-1.54a6.41,6.41,0,0,0,2.13,3.12,6.21,6.21,0,0,0,4.05,1.27,7.67,7.67,0,0,0,2-.29,5.44,5.44,0,0,0,1.84-.9A4.52,4.52,0,0,0,152.75,31a5,5,0,0,0,.51-2.36,4.24,4.24,0,0,0-.73-2.52,5.06,5.06,0,0,0-1.82-1.62,8.54,8.54,0,0,0-2.43-.86,13.64,13.64,0,0,0-2.56-.26H144.4Z" transform="translate(-3.42 -4.29)"/><path class="ac5186ba-2aec-4cef-98b1-a99524f43759" d="M166,31.38h5.08L167.32,43H162.9Z" transform="translate(-3.42 -4.29)"/><path class="ac5186ba-2aec-4cef-98b1-a99524f43759" d="M185.91,32.61l12-11.75a13.75,13.75,0,0,0,2.3-2.83,6.2,6.2,0,0,0,.86-3.26,4.47,4.47,0,0,0-1.43-3.48,5,5,0,0,0-3.53-1.3,4.62,4.62,0,0,0-3.59,1.51,6.93,6.93,0,0,0-1.66,3.79l-5.13-.78A9.62,9.62,0,0,1,186.78,11a9.93,9.93,0,0,1,5.42-4.67,11.28,11.28,0,0,1,4-.68,13.15,13.15,0,0,1,3.88.57,9.87,9.87,0,0,1,3.31,1.73,8.64,8.64,0,0,1,2.3,2.85,8.54,8.54,0,0,1,.86,3.92,9.2,9.2,0,0,1-.4,2.78A10.89,10.89,0,0,1,205,19.9a15.59,15.59,0,0,1-1.58,2.17,26,26,0,0,1-2,2l-8.94,8.55h14v4.82H185.91Z" transform="translate(-3.42 -4.29)"/><path class="ac5186ba-2aec-4cef-98b1-a99524f43759" d="M233.94,21.91a29.44,29.44,0,0,1-.72,6.8,16.3,16.3,0,0,1-2.11,5.12,9.72,9.72,0,0,1-3.42,3.25A9.35,9.35,0,0,1,223,38.22a9.5,9.5,0,0,1-4.69-1.14,9.75,9.75,0,0,1-3.46-3.25,15.64,15.64,0,0,1-2.13-5.12,29.44,29.44,0,0,1-.72-6.8,29.41,29.41,0,0,1,.72-6.79A15.6,15.6,0,0,1,214.88,10a9.81,9.81,0,0,1,3.46-3.24A9.5,9.5,0,0,1,223,5.61a9.35,9.35,0,0,1,4.66,1.14A9.78,9.78,0,0,1,231.11,10a16.26,16.26,0,0,1,2.11,5.13A29.41,29.41,0,0,1,233.94,21.91Zm-5.39,0c0-1.08-.07-2.31-.2-3.68a18.1,18.1,0,0,0-.79-3.9,8.5,8.5,0,0,0-1.68-3.09A3.64,3.64,0,0,0,223,10a3.68,3.68,0,0,0-2.9,1.25,8.5,8.5,0,0,0-1.68,3.09,18.73,18.73,0,0,0-.81,3.9,34.11,34.11,0,0,0-.22,3.68,34.11,34.11,0,0,0,.22,3.68,17.84,17.84,0,0,0,.81,3.86,8.65,8.65,0,0,0,1.68,3.05,3.68,3.68,0,0,0,2.9,1.25,3.64,3.64,0,0,0,2.85-1.25,8.65,8.65,0,0,0,1.68-3.05,17.26,17.26,0,0,0,.79-3.86C228.48,24.22,228.55,23,228.55,21.91Z" transform="translate(-3.42 -4.29)"/><path class="ac5186ba-2aec-4cef-98b1-a99524f43759" d="M248.58,12.8l-6.14,5-3.07-3.64,9.69-7.8h4.78v31h-5.26Z" transform="translate(-3.42 -4.29)"/><path class="ac5186ba-2aec-4cef-98b1-a99524f43759" d="M270.45,37.43l8-11.53,0,0a5.87,5.87,0,0,1-1.6.44,14,14,0,0,1-1.73.13,9.74,9.74,0,0,1-3.86-.77,10,10,0,0,1-3.15-2.1,9.58,9.58,0,0,1-2.13-3.16,10,10,0,0,1-.77-3.92A11,11,0,0,1,266,12a10.17,10.17,0,0,1,2.39-3.44A10.38,10.38,0,0,1,272,6.38a12.81,12.81,0,0,1,4.45-.77,12.27,12.27,0,0,1,4.49.81,10.93,10.93,0,0,1,3.62,2.26,10.25,10.25,0,0,1,3.24,7.58,13.08,13.08,0,0,1-.22,2.48A12.93,12.93,0,0,1,287,21a20,20,0,0,1-1,2.17c-.4.73-.84,1.49-1.34,2.28l-7.76,12Zm12-21.3a6.62,6.62,0,0,0-.41-2.32,6,6,0,0,0-1.21-2A5.83,5.83,0,0,0,279,10.5a5.76,5.76,0,0,0-2.46-.51,5.67,5.67,0,0,0-4.31,1.73,6.26,6.26,0,0,0-1.65,4.5,6.89,6.89,0,0,0,.42,2.43,5.31,5.31,0,0,0,1.2,1.9A5.74,5.74,0,0,0,274,21.8a5.92,5.92,0,0,0,2.39.46,6.68,6.68,0,0,0,2.43-.43,5.84,5.84,0,0,0,1.93-1.25A5.63,5.63,0,0,0,282,18.63,7,7,0,0,0,282.45,16.13Z" transform="translate(-3.42 -4.29)"/><path class="ac5186ba-2aec-4cef-98b1-a99524f43759" d="M304,21.91a7.42,7.42,0,0,1,.62-3,7.78,7.78,0,0,1,4.12-4.12,7.78,7.78,0,0,1,6,0,7.91,7.91,0,0,1,2.46,1.66,8,8,0,0,1,1.66,2.46,7.42,7.42,0,0,1,.62,3,7.5,7.5,0,0,1-.62,3,7.88,7.88,0,0,1-4.12,4.12,7.78,7.78,0,0,1-6,0,7.93,7.93,0,0,1-2.46-1.67,7.81,7.81,0,0,1-1.66-2.45A7.5,7.5,0,0,1,304,21.91Z" transform="translate(-3.42 -4.29)"/><path class="ac5186ba-2aec-4cef-98b1-a99524f43759" d="M337.06,6.4h7.32L358.8,29.63h.09V6.4h5.52v31h-7l-14.73-24h-.09v24h-5.52Z" transform="translate(-3.42 -4.29)"/><path class="ac5186ba-2aec-4cef-98b1-a99524f43759" d="M384,34.75h-.13a5.79,5.79,0,0,1-2.54,2.3,8.62,8.62,0,0,1-4,.9,11.37,11.37,0,0,1-2.65-.33,7.67,7.67,0,0,1-2.54-1.09,6.23,6.23,0,0,1-1.93-2,5.8,5.8,0,0,1-.77-3.09,5.27,5.27,0,0,1,1.34-3.77,8.62,8.62,0,0,1,3.44-2.14,19.19,19.19,0,0,1,4.67-1c1.71-.16,3.38-.24,5-.24v-.53a3.25,3.25,0,0,0-1.43-2.91,6,6,0,0,0-3.4-.94,7.6,7.6,0,0,0-3.2.7,8.7,8.7,0,0,0-2.54,1.71l-2.71-3.2a11.81,11.81,0,0,1,4.14-2.5,14.18,14.18,0,0,1,4.75-.83,11.67,11.67,0,0,1,4.63.79,7.45,7.45,0,0,1,2.87,2.06,7.35,7.35,0,0,1,1.47,2.84,12.75,12.75,0,0,1,.41,3.16v12.8H384ZM384,27.83h-1.19c-.85,0-1.74,0-2.67.11a11.35,11.35,0,0,0-2.59.48,5.6,5.6,0,0,0-2,1,2.34,2.34,0,0,0-.79,1.87,2.2,2.2,0,0,0,.33,1.24,2.56,2.56,0,0,0,.85.82,3.84,3.84,0,0,0,1.19.43,6.47,6.47,0,0,0,1.31.13,5.49,5.49,0,0,0,4.12-1.44,5.42,5.42,0,0,0,1.41-4Z" transform="translate(-3.42 -4.29)"/><path class="ac5186ba-2aec-4cef-98b1-a99524f43759" d="M406.61,22a6.1,6.1,0,0,0-1.93-1.6,5.44,5.44,0,0,0-2.67-.68,5.11,5.11,0,0,0-2.32.53A1.81,1.81,0,0,0,398.63,22a1.75,1.75,0,0,0,1.17,1.73,20.54,20.54,0,0,0,3.39,1,20.14,20.14,0,0,1,2.39.7,8.64,8.64,0,0,1,2.19,1.16,5.87,5.87,0,0,1,1.6,1.8A5.2,5.2,0,0,1,410,31a6.68,6.68,0,0,1-.73,3.26,6,6,0,0,1-1.92,2.17,8.12,8.12,0,0,1-2.81,1.21,14.48,14.48,0,0,1-3.31.37,13.12,13.12,0,0,1-4.78-.9,10.05,10.05,0,0,1-3.85-2.56l3.46-3.24a6.85,6.85,0,0,0,2.28,1.88,6.46,6.46,0,0,0,3.11.74,5.16,5.16,0,0,0,1.16-.13,3.73,3.73,0,0,0,1.1-.41,2.39,2.39,0,0,0,.81-.77,2.2,2.2,0,0,0,.3-1.18,2,2,0,0,0-1.2-1.89A19.32,19.32,0,0,0,400,28.44a16.84,16.84,0,0,1-2.3-.68,7.35,7.35,0,0,1-2-1.09A5.12,5.12,0,0,1,394.3,25a5.35,5.35,0,0,1-.53-2.5,6,6,0,0,1,.72-3,6.25,6.25,0,0,1,1.91-2.08,8.55,8.55,0,0,1,2.67-1.21,12.13,12.13,0,0,1,3.07-.39,12.85,12.85,0,0,1,4.45.79A7.47,7.47,0,0,1,410,19Z" transform="translate(-3.42 -4.29)"/><path class="ac5186ba-2aec-4cef-98b1-a99524f43759" d="M426.25,15.78a7.92,7.92,0,0,1,3.52.72,6.93,6.93,0,0,1,2.41,1.91,7.64,7.64,0,0,1,1.38,2.71,11.22,11.22,0,0,1,.44,3.16V37.43h-5.26V25.86a14,14,0,0,0-.13-1.91,5.48,5.48,0,0,0-.55-1.8,3.51,3.51,0,0,0-1.18-1.33,3.55,3.55,0,0,0-2-.53,4.39,4.39,0,0,0-3.72,1.78,5.63,5.63,0,0,0-.92,1.81,6.91,6.91,0,0,0-.31,2.06V37.43h-5.26V4.29h5.26v15H420a4.92,4.92,0,0,1,.9-1.3,7.1,7.1,0,0,1,1.38-1.14,7.54,7.54,0,0,1,1.79-.81A7.75,7.75,0,0,1,426.25,15.78Z" transform="translate(-3.42 -4.29)"/><path class="ac5186ba-2aec-4cef-98b1-a99524f43759" d="M437,16.39h5.74l5.53,15.34h.08l5.57-15.34h5.56l-8.36,21h-5.62Z" transform="translate(-3.42 -4.29)"/><path class="ac5186ba-2aec-4cef-98b1-a99524f43759" d="M462,9.25a3,3,0,0,1,1-2.22,3.24,3.24,0,0,1,2.38-.94,3.49,3.49,0,0,1,2.44.9,3,3,0,0,1,1,2.26,2.92,2.92,0,0,1-1,2.25,3.49,3.49,0,0,1-2.44.9,3.2,3.2,0,0,1-2.38-.94A3,3,0,0,1,462,9.25Zm.75,7.14H468v21h-5.26Z" transform="translate(-3.42 -4.29)"/><path class="ac5186ba-2aec-4cef-98b1-a99524f43759" d="M474.45,4.29h5.26V37.43h-5.26Z" transform="translate(-3.42 -4.29)"/><path class="ac5186ba-2aec-4cef-98b1-a99524f43759" d="M486.2,4.29h5.26V37.43H486.2Z" transform="translate(-3.42 -4.29)"/><path class="ac5186ba-2aec-4cef-98b1-a99524f43759" d="M517.93,27.17v.7a5.36,5.36,0,0,1,0,.7h-16a5.18,5.18,0,0,0,1.93,3.71,6.56,6.56,0,0,0,1.88,1.07,6.25,6.25,0,0,0,2.19.4,7,7,0,0,0,3.33-.73,6.21,6.21,0,0,0,2.24-2l3.5,2.8q-3.11,4.22-9,4.21a12.88,12.88,0,0,1-4.52-.77,10.6,10.6,0,0,1-3.57-2.17,9.7,9.7,0,0,1-2.37-3.44,11.82,11.82,0,0,1-.85-4.62,12,12,0,0,1,.85-4.62,10.33,10.33,0,0,1,5.88-5.83,11.75,11.75,0,0,1,4.4-.81,11.13,11.13,0,0,1,4.05.72A8.85,8.85,0,0,1,515,18.65a10,10,0,0,1,2.12,3.55A14.66,14.66,0,0,1,517.93,27.17Zm-5.26-2.36a6.44,6.44,0,0,0-.29-1.93,4.33,4.33,0,0,0-2.45-2.74,5.41,5.41,0,0,0-2.21-.42,5.9,5.9,0,0,0-4,1.43,5.15,5.15,0,0,0-1.82,3.66Z" transform="translate(-3.42 -4.29)"/><path class="ac5186ba-2aec-4cef-98b1-a99524f43759" d="M524,31.38h5.08L525.33,43h-4.42Z" transform="translate(-3.42 -4.29)"/><path class="ac5186ba-2aec-4cef-98b1-a99524f43759" d="M549.53,11.22H540V6.4h24.54v4.82h-9.51V37.43h-5.52Z" transform="translate(-3.42 -4.29)"/><path class="ac5186ba-2aec-4cef-98b1-a99524f43759" d="M568.15,6.4h7.32l14.42,23.23H590V6.4h5.52v31h-7l-14.73-24h-.09v24h-5.52Z" transform="translate(-3.42 -4.29)"/></g></g></svg>