<svg xmlns="http://www.w3.org/2000/svg" viewBox="0 0 711.39 323.39"><defs><style>.a1b58523-f554-4671-9606-39aaac6b5be6,.adc89609-70e3-4b91-aa75-3859cc068a7f,.b8ff657d-94ff-4a8c-bbd1-f8e3d6b6889a,.b9c5d016-6522-4085-9aac-eee6cdcb9aaa{fill:white;stroke-miterlimit:10;}.a1b58523-f554-4671-9606-39aaac6b5be6{stroke:#3048a1;stroke-width:3.97px;}.adc89609-70e3-4b91-aa75-3859cc068a7f,.b8ff657d-94ff-4a8c-bbd1-f8e3d6b6889a{stroke:#5e5e5e;}.adc89609-70e3-4b91-aa75-3859cc068a7f,.b8ff657d-94ff-4a8c-bbd1-f8e3d6b6889a,.b9c5d016-6522-4085-9aac-eee6cdcb9aaa{stroke-width:3px;}.adc89609-70e3-4b91-aa75-3859cc068a7f{opacity:0.35;}.b9c5d016-6522-4085-9aac-eee6cdcb9aaa{stroke:#293c85;}</style></defs><title>Asset 17</title><g id="a12295dc-1371-40d4-87cd-6a61269fe333" data-name="Layer 2"><g id="b44f4389-466f-43ba-b937-e523250e65a4" data-name="basically everything"><path class="a1b58523-f554-4671-9606-39aaac6b5be6" d="M176,110.38l1.72-14.69A49.37,49.37,0,0,0,206.53,105c11.38,0,22.1-3.84,22.1-14.29S218,76.23,204.68,72c-15.35-4.9-30.17-9.4-30.17-25.28,0-11.51,7.94-26.73,33.34-26.73,12.05,0,23.83,3.44,29.12,6.35l-1.32,13.37c-9-4.5-17.34-8.34-26.6-8.34-9.53,0-20.78,4-20.78,13.63,0,8.6,8.87,12,20,15.49,16.28,5,34.14,9.92,34.14,30,0,9.79-4.1,25.8-36.12,25.8C192.64,116.33,181.65,113.42,176,110.38Z" transform="translate(0 -13.24)"/><path class="a1b58523-f554-4671-9606-39aaac6b5be6" d="M253.52,81.92c0-18.92,10.58-33.61,32.15-33.61,9.8,0,16.15,1.72,20,3.84l-1.85,10.72a37.82,37.82,0,0,0-16.81-4c-14.43,0-21.31,8.6-21.31,23,0,14.16,6.88,23.43,21.31,23.43a38.48,38.48,0,0,0,16.94-4l1.59,9.53c-3.84,2.51-9.27,4.89-19.72,4.89C264.24,115.8,253.52,100.05,253.52,81.92Z" transform="translate(0 -13.24)"/><path class="a1b58523-f554-4671-9606-39aaac6b5be6" d="M364.29,114.48V79.81c0-15.35-4-20.91-15.49-20.91-7.94,0-13.23,2.64-16.94,8.47v47.11h-12V15.22h12V56.65c4.5-5.69,10.33-8.34,18.8-8.34,18.66,0,25.54,12.84,25.54,31.5v34.67Z" transform="translate(0 -13.24)"/><path class="a1b58523-f554-4671-9606-39aaac6b5be6" d="M402.54,82.06c1.72,18,12,23.16,24.35,23.16a46.83,46.83,0,0,0,18.66-3.84l1.58,9.39a51.78,51.78,0,0,1-21.7,5c-22.89,0-35.07-15.61-35.07-34.27,0-18.13,11.65-33.22,31.76-33.22,16.15,0,27.93,9.93,27.93,27.39a38.08,38.08,0,0,1-.53,6.36Zm1.06-8.21h34.14c0-9.13-5-14.95-15.88-14.95C411.27,58.9,406,64.46,403.6,73.85Z" transform="translate(0 -13.24)"/><path class="a1b58523-f554-4671-9606-39aaac6b5be6" d="M511.59,114.48l-1.33-8.21c-4.89,6.36-14,9.53-19.85,9.53-16.54,0-29.51-14.82-29.51-33.74,0-17.74,11.38-33.75,29.51-33.75,5.83,0,14.3,1.46,19.85,8.2V15.22h11.91v99.26ZM473.08,82.06c0,12.7,6.88,23.16,18.26,23.16,9.53,0,20.25-6.49,20.25-22.77,0-15.61-10.72-23.55-20.25-23.55C480,58.9,473.08,68.82,473.08,82.06Z" transform="translate(0 -13.24)"/><path class="a1b58523-f554-4671-9606-39aaac6b5be6" d="M583.45,114.48l-1.32-7.15c-4.11,5.69-9.53,8.47-18,8.47-15.22,0-24-9-24-28.45V49.63h11.91V84c0,13.76,4.36,21.18,15.08,21.18,6,0,11.78-2.25,15-7.42V49.63H594v64.85Z" transform="translate(0 -13.24)"/><path class="a1b58523-f554-4671-9606-39aaac6b5be6" d="M633.35,115.8h-3.84c-12.58,0-16.81-7.8-16.81-15.61v-85h11.91V93.3c0,11.12,1.32,13,10.46,13Z" transform="translate(0 -13.24)"/><path class="a1b58523-f554-4671-9606-39aaac6b5be6" d="M654.26,82.06c1.72,18,12,23.16,24.35,23.16a46.83,46.83,0,0,0,18.66-3.84l1.59,9.39a51.87,51.87,0,0,1-21.71,5c-22.89,0-35.07-15.61-35.07-34.27,0-18.13,11.65-33.22,31.76-33.22,16.15,0,27.93,9.93,27.93,27.39a37,37,0,0,1-.53,6.36Zm1.06-8.21h34.14c0-9.13-5-14.95-15.88-14.95C663,58.9,657.7,64.46,655.32,73.85Z" transform="translate(0 -13.24)"/><line class="adc89609-70e3-4b91-aa75-3859cc068a7f" x1="168.89" y1="40.04" x2="168.89" y2="323.04"/><line class="adc89609-70e3-4b91-aa75-3859cc068a7f" x1="709.89" y1="40.04" x2="709.89" y2="323.04"/><line class="adc89609-70e3-4b91-aa75-3859cc068a7f" x1="8.39" y1="101.54" x2="250.39" y2="101.54"/><line class="adc89609-70e3-4b91-aa75-3859cc068a7f" x1="8.39" y1="3.54" x2="250.39" y2="3.54"/><line class="b9c5d016-6522-4085-9aac-eee6cdcb9aaa" x1="198.39" y1="306.54" x2="689.39" y2="306.54"/><polyline class="b8ff657d-94ff-4a8c-bbd1-f8e3d6b6889a" points="678.39 322.54 689.39 306.54 678.39 291.54"/><polyline class="b8ff657d-94ff-4a8c-bbd1-f8e3d6b6889a" points="209.39 290.54 198.39 306.54 209.39 321.54"/><polyline class="b8ff657d-94ff-4a8c-bbd1-f8e3d6b6889a" points="31.89 28.54 15.89 17.54 0.89 28.54"/><polyline class="b8ff657d-94ff-4a8c-bbd1-f8e3d6b6889a" points="0.89 81.54 16.89 92.54 31.89 81.54"/><line class="b9c5d016-6522-4085-9aac-eee6cdcb9aaa" x1="15.89" y1="17.54" x2="15.89" y2="89.54"/></g></g></svg>