<svg xmlns="http://www.w3.org/2000/svg" viewBox="0 0 189.13 251.23"><defs><style>.bed3a76e-61a5-4e43-8b31-8326b3a6a3ad,.bfd4d226-509d-4a3b-ac09-0aa847f7c357{fill:none;stroke:#293c85;stroke-miterlimit:10;}.bed3a76e-61a5-4e43-8b31-8326b3a6a3ad{stroke-width:2px;}.bfd4d226-509d-4a3b-ac09-0aa847f7c357{stroke-width:1.44px;}</style></defs><title>Asset 14</title><g id="e50e6627-8ffe-47a2-ad40-0c892240ff02" data-name="Layer 2"><g id="ff5ac660-3a01-4aa1-84e8-0dd85799c7f2" data-name="icons"><rect class="bed3a76e-61a5-4e43-8b31-8326b3a6a3ad" x="23.71" y="52.14" width="141.72" height="187" rx="30.58" transform="translate(70 -26.26) rotate(24.86)"/><rect class="bed3a76e-61a5-4e43-8b31-8326b3a6a3ad" x="96.78" y="48.25" width="79" height="13" transform="translate(35.65 -52.22) rotate(24.86)"/><path class="bed3a76e-61a5-4e43-8b31-8326b3a6a3ad" d="M155.05,2.78,122.48,41.19l33.07,15.33L163.8,6.84A5,5,0,0,0,155.05,2.78Z"/><path class="bed3a76e-61a5-4e43-8b31-8326b3a6a3ad" d="M21.94,98.9h98.53a21.47,21.47,0,0,1,21.47,21.47v47.14a26.39,26.39,0,0,1-26.39,26.39H21.94a0,0,0,0,1,0,0v-95A0,0,0,0,1,21.94,98.9Z" transform="translate(69.15 -20.88) rotate(24.86)"/><path class="bfd4d226-509d-4a3b-ac09-0aa847f7c357" d="M49.23,99.24l3.67,1.7-1.24,1.68a11.33,11.33,0,0,1,3.35-.5,6.89,6.89,0,0,1,2.74.66,4.18,4.18,0,0,1,2.32,2.3,4,4,0,0,1-.23,3.15,18,18,0,0,1-1.76,2.65l-5.44,7.32-3.87-1.79,5.46-7.34a20.63,20.63,0,0,0,1.39-2,1.71,1.71,0,0,0,.1-1.37,1.84,1.84,0,0,0-1-1,3.77,3.77,0,0,0-2.22-.16A5.44,5.44,0,0,0,50,105.69a17.94,17.94,0,0,0-2.55,3L43.48,114l-3.87-1.8Z"/><path class="bfd4d226-509d-4a3b-ac09-0aa847f7c357" d="M59.73,114.27a9.75,9.75,0,0,1,5.18-5.3,8.55,8.55,0,0,1,7,.37,7.41,7.41,0,0,1,4.14,4,6.87,6.87,0,0,1-.4,5.52,9.67,9.67,0,0,1-5,5,8.28,8.28,0,0,1-7.13-.22,8.56,8.56,0,0,1-3.2-2.47A5.74,5.74,0,0,1,59,117.81,7.49,7.49,0,0,1,59.73,114.27ZM72,116.62a3.33,3.33,0,0,0,.22-2.58,3,3,0,0,0-1.68-1.79A3.84,3.84,0,0,0,68,112a5.52,5.52,0,0,0-2.56,1.55A8.9,8.9,0,0,0,63.64,116a3.78,3.78,0,0,0-.3,2.83A3,3,0,0,0,65,120.72a3.59,3.59,0,0,0,3.29-.13A8,8,0,0,0,72,116.62Z"/><path class="bfd4d226-509d-4a3b-ac09-0aa847f7c357" d="M80.42,131.08l-3.32-1.55,3.76-15.64,3.8,1.77-1.88,6.7c-.51,1.82-.86,3-1.07,3.6l1.75-1.31,1.86-1.35,6.36-4.39,4.18,1.93Z"/><path class="bfd4d226-509d-4a3b-ac09-0aa847f7c357" d="M31.64,134.92,34,131.8a25.85,25.85,0,0,0,10.09-1.49l2.36,1.09L33,149.34l-3.89-1.8,9.21-12.36a18.29,18.29,0,0,1-3.45.13A18.79,18.79,0,0,1,31.64,134.92Z"/><path class="bfd4d226-509d-4a3b-ac09-0aa847f7c357" d="M44.46,143.72,52,147.2l-2.51,3.37L42,147.09Z"/><path class="bfd4d226-509d-4a3b-ac09-0aa847f7c357" d="M51.43,151.6l3.92,1.28a4.29,4.29,0,0,0-.19,2.56,2.39,2.39,0,0,0,1.32,1.35,3.2,3.2,0,0,0,2.6.12A3.4,3.4,0,0,0,61,155a2.9,2.9,0,0,0,.18-2.25,2.79,2.79,0,0,0-1.55-1.58A4.14,4.14,0,0,0,59,151l2.17-2.91a2.82,2.82,0,0,0,.38.21,3.54,3.54,0,0,0,2.72.3,3.13,3.13,0,0,0,1.8-1.76,2.29,2.29,0,0,0,.15-1.76A2.14,2.14,0,0,0,65,143.84a2.37,2.37,0,0,0-1.78-.08,4.83,4.83,0,0,0-2,1.61L58,143a8.73,8.73,0,0,1,3.43-2.48,6.83,6.83,0,0,1,5.29.32,5.91,5.91,0,0,1,3.43,3.43,5.62,5.62,0,0,1-.27,4.29A5.06,5.06,0,0,1,67.71,151a5.77,5.77,0,0,1-3.32.67,4.83,4.83,0,0,1,1.06,2.56,4.89,4.89,0,0,1-.43,2.47,6.66,6.66,0,0,1-3.41,3.3,7.51,7.51,0,0,1-6.62,0,6.6,6.6,0,0,1-3.46-3.35A7,7,0,0,1,51.43,151.6Z"/></g></g></svg>