<svg xmlns="http://www.w3.org/2000/svg" viewBox="0 0 106.53 298.42"><defs><style>.bb516f04-87b8-4ff4-9844-df457430bb27,.ea99d7be-9a2c-47cb-a711-fbfeb38d6679{fill:#fff;}.aa38e713-fda3-4aa0-b62d-8356119157e0,.bb516f04-87b8-4ff4-9844-df457430bb27,.ea99d7be-9a2c-47cb-a711-fbfeb38d6679{stroke:#293c85;stroke-miterlimit:10;}.aa38e713-fda3-4aa0-b62d-8356119157e0,.bb516f04-87b8-4ff4-9844-df457430bb27{stroke-width:2px;}.aa38e713-fda3-4aa0-b62d-8356119157e0{fill:none;}.ea99d7be-9a2c-47cb-a711-fbfeb38d6679{stroke-width:1.5px;}.fe5736f0-3d1c-4759-941f-2398d91831be{fill:#293c85;}</style></defs><title>Asset 6</title><g id="fe1178f0-d13f-4c67-9470-b5d55c7fca7d" data-name="Layer 2"><g id="bfeddbaa-4607-4c3a-8d3b-2901242e1623" data-name="icons"><rect class="bb516f04-87b8-4ff4-9844-df457430bb27" x="40.25" y="56.8" width="39.98" height="205.11" transform="translate(-38.04 20.2) rotate(-14.53)"/><rect class="aa38e713-fda3-4aa0-b62d-8356119157e0" x="5.16" y="5.65" width="39.98" height="36.5" transform="translate(-5.19 7.07) rotate(-14.53)"/><rect class="aa38e713-fda3-4aa0-b62d-8356119157e0" x="22.56" y="41.26" width="19.12" height="19.12" transform="matrix(0.97, -0.25, 0.25, 0.97, -11.72, 9.68)"/><polygon class="ea99d7be-9a2c-47cb-a711-fbfeb38d6679" points="84.53 287.73 103.03 282.94 105.31 253.62 66.61 263.64 84.53 287.73"/><polygon class="fe5736f0-3d1c-4759-941f-2398d91831be" points="91.78 298.42 100.2 296.24 100.51 283.59 85.37 287.51 91.78 298.42"/><path class="aa38e713-fda3-4aa0-b62d-8356119157e0" d="M43.5,15l7.57-2L80.62,127.14,85.18,117,57.71,11s-.06-7.16-8.47-5L41.66,8Z"/></g></g></svg>