<svg xmlns="http://www.w3.org/2000/svg" viewBox="0 0 919.4 101.07"><defs><style>.a3f46b71-39fd-4a9e-8144-cc78b506c340{fill:none;stroke-width:3.46px;}.a3f46b71-39fd-4a9e-8144-cc78b506c340,.b1c598e5-9d82-440c-ad7b-2a06ab341f03{stroke:#293c85;stroke-miterlimit:10;}.b1c598e5-9d82-440c-ad7b-2a06ab341f03{fill:#293c85;stroke-width:0.75px;}</style></defs><title>Asset 2</title><g id="b30e3cf1-a0a8-45c6-9224-dde399542f4a" data-name="Layer 2"><g id="f08686a1-d7b2-4347-9e1d-75588d3c6a43" data-name="icons"><path class="a3f46b71-39fd-4a9e-8144-cc78b506c340" d="M62.17,14.76h10l-29.28,71h-11l-29.28-71H12.65l24.5,61.51h.41Z" transform="translate(0 -9.77)"/><path class="a3f46b71-39fd-4a9e-8144-cc78b506c340" d="M81.58,36.72a46.81,46.81,0,0,1,19-3.86q10.11,0,15.5,5.89a20.27,20.27,0,0,1,5.39,14.14V85.73h-8.13l-1.12-6.51h-.31q-7.32,7.53-18.81,7.52a17.33,17.33,0,0,1-11.74-4.16Q76.5,78.41,76.5,71.19a14,14,0,0,1,6-11.69Q88.39,55,99.89,55h12.3v-.81c0-4.48-1.1-7.69-3.31-9.66s-6-2.95-11.43-2.95a34.41,34.41,0,0,0-15.26,3.46h-.61ZM112.19,71V62.44H101.11q-15.36,0-15.36,8.09t10.78,8.08a18.36,18.36,0,0,0,8.64-2.19A23.92,23.92,0,0,0,112.19,71Z" transform="translate(0 -9.77)"/><path class="a3f46b71-39fd-4a9e-8144-cc78b506c340" d="M165.26,32.86q8.44,0,13.32,5.69a21.12,21.12,0,0,1,4.88,14.23v33h-9.25V53.8q0-12.4-11.19-12.4-8.84,0-16.67,9.76V85.73H137.1V33.87h8.13l1.12,6.51v1.53h.2Q154.78,32.85,165.26,32.86Z" transform="translate(0 -9.77)"/><path class="a3f46b71-39fd-4a9e-8144-cc78b506c340" d="M203.24,40.18a23.67,23.67,0,0,1,17.23-7.32,22.91,22.91,0,0,1,17.08,7.52h.31V11.5h9.25V85.73H239l-1.11-6.51h-.31a22.88,22.88,0,0,1-17.08,7.52,23.67,23.67,0,0,1-17.23-7.32q-7.38-7.32-7.38-19.62T203.24,40.18ZM221.79,78.1q9.15,0,16.07-7.62V49.12q-6.92-7.62-16.07-7.62-7.53,0-12.1,4.78T205.12,59.8q0,8.74,4.57,13.52T221.79,78.1Z" transform="translate(0 -9.77)"/><path class="a3f46b71-39fd-4a9e-8144-cc78b506c340" d="M308.93,33.87l-31.22,75.24h-9.35l8.74-22.57L255.65,33.87h10l16.27,41h.41l16.67-41Z" transform="translate(0 -9.77)"/><path class="a3f46b71-39fd-4a9e-8144-cc78b506c340" d="M367,14.76h9.25v71H367V54.61H328.45V85.73h-9.26v-71h9.26V46H367Z" transform="translate(0 -9.77)"/><path class="a3f46b71-39fd-4a9e-8144-cc78b506c340" d="M395,36.72a46.79,46.79,0,0,1,19-3.86q10.13,0,15.51,5.89a20.27,20.27,0,0,1,5.39,14.14V85.73h-8.14l-1.11-6.51h-.31q-7.32,7.53-18.81,7.52a17.33,17.33,0,0,1-11.74-4.16Q390,78.41,390,71.19a14,14,0,0,1,6-11.69Q401.85,55,413.34,55h12.31v-.81c0-4.48-1.11-7.69-3.31-9.66s-6-2.95-11.44-2.95a34.4,34.4,0,0,0-15.25,3.46H395ZM425.65,71V62.44H414.56q-15.35,0-15.35,8.09T410,78.61a18.36,18.36,0,0,0,8.64-2.19A23.92,23.92,0,0,0,425.65,71Z" transform="translate(0 -9.77)"/><path class="a3f46b71-39fd-4a9e-8144-cc78b506c340" d="M491.53,46.58a28.58,28.58,0,0,0-16.32-5.08q-8.79,0-13.78,5t-5,13.27q0,8.24,5,13.27t13.78,5A28.58,28.58,0,0,0,491.53,73h.41v8.74a34.14,34.14,0,0,1-17.59,5,27.32,27.32,0,0,1-19.22-7.32q-7.94-7.32-7.93-19.62t7.93-19.62a27.32,27.32,0,0,1,19.22-7.32,34.14,34.14,0,0,1,17.59,5v8.74Z" transform="translate(0 -9.77)"/><path class="a3f46b71-39fd-4a9e-8144-cc78b506c340" d="M528.44,54.72l23.38,31H540.43l-18.3-24.51h-.3l-7.53,7.53v17h-9.25V11.5h9.25V57h.31l22.47-23.08h12.4Z" transform="translate(0 -9.77)"/><path class="a3f46b71-39fd-4a9e-8144-cc78b506c340" d="M579.37,41.3c-4.33,0-7.54.63-9.6,1.9s-3.11,2.88-3.11,4.8,1.08,3.42,3.22,4.46a42.09,42.09,0,0,0,7.69,2.74l9,2.36a14.92,14.92,0,0,1,7.61,4.75q3.07,3.56,3.08,9.72a13.07,13.07,0,0,1-5.14,10.44q-5.13,4.27-15.25,4.27a37.72,37.72,0,0,1-18.45-4.57V73.32h.51A34.78,34.78,0,0,0,577,78.2q11.28,0,11.28-7.26,0-2.35-3.14-3.83a46.32,46.32,0,0,0-7.57-2.68l-9-2.4A16,16,0,0,1,561,57.46a12,12,0,0,1-3.15-8.54A14.66,14.66,0,0,1,563,37.33q5.14-4.47,14-4.47A46.86,46.86,0,0,1,593.4,35.7v8.44h-.71A34.52,34.52,0,0,0,579.37,41.3Z" transform="translate(0 -9.77)"/><path class="a3f46b71-39fd-4a9e-8144-cc78b506c340" d="M687.86,14.76h10l-29.28,71h-11l-29.28-71h10.06l24.51,61.51h.4Z" transform="translate(0 -9.77)"/><path class="a3f46b71-39fd-4a9e-8144-cc78b506c340" d="M717.44,14.76v71h-9.25v-71Z" transform="translate(0 -9.77)"/><path class="b1c598e5-9d82-440c-ad7b-2a06ab341f03" d="M793.06,40.52a1.59,1.59,0,0,1-.49.89,2.71,2.71,0,0,1-.87.53,3.65,3.65,0,0,1-1,.26,8.34,8.34,0,0,1-.95.06l-.36,0-.37,0c-.13,0-.19.07-.19.2a.28.28,0,0,1-.2.27,1.82,1.82,0,0,0-.38-.11,1.72,1.72,0,0,0-.39,0,3,3,0,0,0-.52,0,4.23,4.23,0,0,1-.48,0,1,1,0,0,1-.45-.08,1.54,1.54,0,0,1-.23-.18,2,2,0,0,1-.19-.22.93.93,0,0,0-.29-.2.56.56,0,0,0-.45,0c-.11.06-.29,0-.52-.23a3.77,3.77,0,0,1-.79-1c-.22-.38-.43-.78-.64-1.21s-.42-.84-.66-1.26a5.11,5.11,0,0,0-.81-1.11h-.31a1,1,0,0,0-1,.6,2.55,2.55,0,0,1-.39-.3,2,2,0,0,0-.42-.3,17.43,17.43,0,0,1-1.86.48,9.71,9.71,0,0,1-1.93.19h-.52a1.91,1.91,0,0,1-.52-.07,3.57,3.57,0,0,0-.7.37,1.16,1.16,0,0,1-.69.22,1.2,1.2,0,0,1-.55-.16c-.15,0-.22.07-.21.2s-.07.19-.25.19h-.35c-.36,0-.71,0-1.06,0s-.7,0-1.06,0a6.19,6.19,0,0,1-1.51-.19.78.78,0,0,1-.42.11.49.49,0,0,0-.23.26l-.16.32a.66.66,0,0,1-.21.23.44.44,0,0,1-.37.06,1.24,1.24,0,0,1-.39.76,1.07,1.07,0,0,0-.3.83,2,2,0,0,0-.7.59c-.18.23-.36.49-.54.75s-.37.51-.56.75a1.87,1.87,0,0,1-.72.55,1,1,0,0,0-.11.75,4.5,4.5,0,0,1-1,.64,2.94,2.94,0,0,1-1.16.27,1.57,1.57,0,0,1-1.55-1.22,6.41,6.41,0,0,1,.06-.85,7.06,7.06,0,0,1,.17-.87,2.59,2.59,0,0,1,.35-.75,1.3,1.3,0,0,1,.66-.5.53.53,0,0,0-.23-.49.46.46,0,0,1-.2-.49,6.26,6.26,0,0,0,1.82-1.35A16,16,0,0,0,764.1,37l1.29-1.87a10.1,10.1,0,0,1,1.47-1.7v-.83a6.08,6.08,0,0,0,1.51-2.85.69.69,0,0,0,.56-.39,1.9,1.9,0,0,0,.13-.75.23.23,0,0,0,.25-.18c0-.12.15-.15.33-.1a14,14,0,0,1,.77-1.74c.29-.52.57-1.06.86-1.6a15.88,15.88,0,0,0,.75-1.68,8.93,8.93,0,0,0,.48-1.93.58.58,0,0,0,.6-.54c0-.33.08-.62.14-.89a3.72,3.72,0,0,0,.87-1.3c.19-.5.36-1,.52-1.56s.32-1.08.52-1.62a4.48,4.48,0,0,1,.83-1.44v-.12a.25.25,0,0,0-.16-.26.24.24,0,0,1-.15-.26.09.09,0,0,0,0-.07,1.35,1.35,0,0,0,.69-.66,1.38,1.38,0,0,1,.7-.65,3.6,3.6,0,0,0,1.43.81,11.79,11.79,0,0,0,1.62.22,2.13,2.13,0,0,1,.56,1.32A8.61,8.61,0,0,0,781,15.9c.21.85.43,1.67.68,2.47a18.79,18.79,0,0,1,.56,2.47,5.75,5.75,0,0,0,.42,1.43,4.46,4.46,0,0,1,.43,2.62,2.36,2.36,0,0,0,.15,1.21l.27.63a6.54,6.54,0,0,1,.33.91c.09.32.18.63.25.95.21.79.4,1.64.56,2.55a9.42,9.42,0,0,0,.8,2.47,1.06,1.06,0,0,0,.59.55,4.18,4.18,0,0,0,.91.22,6.66,6.66,0,0,0,1,0c.32,0,.6,0,.83,0h.4a1.22,1.22,0,0,1,.45.08,1.3,1.3,0,0,1,.15.55,1,1,0,0,1-.31.75.82.82,0,0,0-.3.63.86.86,0,0,0,.15.44,1.81,1.81,0,0,0-.46,0,4.91,4.91,0,0,0-1.74.31,3.16,3.16,0,0,0,.83,1.13,11.49,11.49,0,0,0,1.1.85,1.28,1.28,0,0,1,.81-.32,1.76,1.76,0,0,1,.87.22,1.87,1.87,0,0,0,.87.22.82.82,0,0,0,.5-.12,3.65,3.65,0,0,1,.5.73A2.8,2.8,0,0,0,793.06,40.52ZM781,34.2a2.52,2.52,0,0,0-.25-1,3.36,3.36,0,0,1-.29-.73,7,7,0,0,1-.21-1.19c0-.42-.1-.83-.17-1.22-.18-.9-.38-1.79-.6-2.69a21.4,21.4,0,0,0-.83-2.61.8.8,0,0,0,.15-.43v-.12a2.3,2.3,0,0,1-.5-1c-.1-.38-.2-.76-.29-1.14a6.71,6.71,0,0,0-.35-1.07,1.84,1.84,0,0,0-.68-.81,1.35,1.35,0,0,0-.11.55,2.12,2.12,0,0,0,.06.52,2.1,2.1,0,0,1,.05.51,1.24,1.24,0,0,0-.56.61,1.34,1.34,0,0,1-.56.66,11,11,0,0,1-.88,2.39c-.39.75-.8,1.49-1.22,2.23s-.83,1.48-1.22,2.23a14,14,0,0,0-.93,2.35,1.72,1.72,0,0,0-.67.91,3.58,3.58,0,0,0-.18,1.11,1.76,1.76,0,0,0,.8.21c.29,0,.58,0,.87,0a4.28,4.28,0,0,1,.81.08,1.4,1.4,0,0,1,.69.4,5.23,5.23,0,0,1,1.1-.22,2.08,2.08,0,0,0,1-.33,5,5,0,0,0,1.66.27,4.6,4.6,0,0,0,.91-.08c.29-.05.58-.12.87-.19a1.13,1.13,0,0,1,.54.25.7.7,0,0,0,.58.14.61.61,0,0,0,.23-.34A.66.66,0,0,1,781,34.2Z" transform="translate(0 -9.77)"/><path class="b1c598e5-9d82-440c-ad7b-2a06ab341f03" d="M841.39,36.53a1.49,1.49,0,0,1-.41.91,5,5,0,0,1-.75.59l-.37-.06-.36,0a6.45,6.45,0,0,0-2.26.32,11.62,11.62,0,0,1-2.19.51,2.56,2.56,0,0,1-.71.06,2.65,2.65,0,0,0-.68.06c-.82.13-1.7.24-2.62.32s-1.86.17-2.79.29-1.83.27-2.72.44a12.66,12.66,0,0,0-2.49.73,1.3,1.3,0,0,1-.23-.18.45.45,0,0,0-.27-.1,2.25,2.25,0,0,0-.74.12,1.49,1.49,0,0,1-.69.08,2.8,2.8,0,0,1-.84.34c-.29.06-.59.11-.88.15a6.09,6.09,0,0,0-.87.18,2.26,2.26,0,0,0-.82.44,1.66,1.66,0,0,0-.75-.18.66.66,0,0,1-.6-.3,5.78,5.78,0,0,1-1.87.56,13.2,13.2,0,0,1-2,.07,11.81,11.81,0,0,1-3.21-.65,9.86,9.86,0,0,1-1.58-.71,3.07,3.07,0,0,1-1.12-1,2.64,2.64,0,0,1-.39-.87,1.11,1.11,0,0,0-.54-.71c.08-.6.17-1.2.27-1.78s.21-1.17.31-1.77a18,18,0,0,0,1.47-1.43A18.3,18.3,0,0,0,809,31.35a6.35,6.35,0,0,0,1.37-.87l1.28-1c.42-.36.85-.71,1.27-1.05a9.14,9.14,0,0,1,1.38-.91,1.12,1.12,0,0,1,.32-.45l.45-.36a3.88,3.88,0,0,0,.42-.39,1.25,1.25,0,0,0,.27-.54,9,9,0,0,0,2.36-2.09,6.42,6.42,0,0,0,1.31-2.85,3.33,3.33,0,0,0-1.48-.73,13.7,13.7,0,0,0-1.72-.25,14.41,14.41,0,0,0-1.61,0,13.56,13.56,0,0,1-1.68,0,7.87,7.87,0,0,1-1.75.35l-1.8.14a13.06,13.06,0,0,0-1.76.24,5.42,5.42,0,0,0-1.68.65.92.92,0,0,1-.29,0,.92.92,0,0,0-.29,0,4.85,4.85,0,0,0-2.32.49l-2.12,1.05a.72.72,0,0,0-.08.24,1,1,0,0,0,.1.45,1.22,1.22,0,0,1,.09.46.12.12,0,0,0,0,.08.11.11,0,0,1,0,.07,2.28,2.28,0,0,1-.1.36c0,.11-.08.22-.14.36a8.87,8.87,0,0,0-.46,2.49q0,1,0,2c0,.66,0,1.33,0,2a11.07,11.07,0,0,1-.39,2.37c.13.63.25,1.29.35,2s.23,1.39.39,2.08a18.23,18.23,0,0,0,.56,2,8.85,8.85,0,0,0,.87,1.84s0,.09,0,.12a.42.42,0,0,0,.15,0h.31c.13,0,.18,0,.15.16a.92.92,0,0,1,.12.21.39.39,0,0,0,.16.18.36.36,0,0,1,0,.32,3.64,3.64,0,0,1-.39,1.46,4.19,4.19,0,0,0-.43,1.46,3.41,3.41,0,0,1-.85.12,2.32,2.32,0,0,1-1.16-.38,4.65,4.65,0,0,1-.92-.81,12.11,12.11,0,0,1-.81-1,4.88,4.88,0,0,0-.85-.85c-.18-.74-.36-1.56-.53-2.45a6.58,6.58,0,0,0-.83-2.3,2,2,0,0,0,.16-.86,5.93,5.93,0,0,0-.14-1.57,4.8,4.8,0,0,1-.09-1.56,4.28,4.28,0,0,1,.09-.87,6.42,6.42,0,0,0,.14-.86,4.09,4.09,0,0,0-.14-1.31,4,4,0,0,1-.13-1.3,3.25,3.25,0,0,1,.13-.62,1.83,1.83,0,0,1,.29-.53,1.62,1.62,0,0,1-.11-.91,8.2,8.2,0,0,1,.15-1.26,9.71,9.71,0,0,0,.16-1.19,6,6,0,0,0,0-.61,4.78,4.78,0,0,0-.12-.57l-.35-.12a.88.88,0,0,0-.44.12,2.07,2.07,0,0,0-.37.27,2.1,2.1,0,0,1-.27.26.34.34,0,0,1-.23.1l-.17,0-.18,0a.64.64,0,0,0-.29.16c-.14.1-.31.22-.5.33l-.56.36a1.71,1.71,0,0,1-.42.22,1.43,1.43,0,0,1-.68-.3c-.17-.14-.32-.29-.46-.43a4.16,4.16,0,0,0-.45-.4.79.79,0,0,0-.58-.14,1.28,1.28,0,0,1-.13-.51,2,2,0,0,1,0-.55v-.64a2.54,2.54,0,0,1,.71-.85,5.69,5.69,0,0,1,.95-.57l1-.47a4.11,4.11,0,0,0,.93-.6h.35a2,2,0,0,0,1.21-.27,7,7,0,0,0,1-.73l1-.85a3.39,3.39,0,0,1,1.06-.67,6.27,6.27,0,0,0,.89.33,5.09,5.09,0,0,0,1,.18,3.62,3.62,0,0,0,1-.16,1.52,1.52,0,0,0,.85-.59,1.89,1.89,0,0,0,.32.1l.33,0a2.93,2.93,0,0,0,1.16-.18,7.64,7.64,0,0,0,1.12-.53,7.08,7.08,0,0,0,1.53-.1l1.5-.3,1.51-.3a6.5,6.5,0,0,1,1.53-.09,10.58,10.58,0,0,0,2.51-.24,8.79,8.79,0,0,1,2.51-.2c.59,0,1.18.07,1.76.14a12.83,12.83,0,0,0,1.76.06l.9.41a2,2,0,0,0,1,.1,13.79,13.79,0,0,1,2.24,2.49v.67a7.14,7.14,0,0,1-.31,1.78,16.26,16.26,0,0,1-.64,1.72c-.24.57-.51,1.12-.79,1.66s-.55,1.07-.81,1.6c-1.68,1.55-3.35,3.1-5,4.62s-3.4,3-5.18,4.43a3.48,3.48,0,0,1-.21.71,2.45,2.45,0,0,0-.18.67,1,1,0,0,0,0,.32,1.09,1.09,0,0,1,.48.29.59.59,0,0,1,.14.58H812c.13,0,.19,0,.19.15l.62,0a18.05,18.05,0,0,0,2.94-.07l3-.36,3-.38c1-.11,2-.19,2.93-.21a5.33,5.33,0,0,1,.74-.2,1.62,1.62,0,0,0,.69-.32h.12a.51.51,0,0,1,.4.16.64.64,0,0,0,.41.2,1.19,1.19,0,0,0,.4-.08,3.31,3.31,0,0,1,.45-.12,5.9,5.9,0,0,1,1.14-.2c.4,0,.79-.06,1.18-.11,1.49-.14,3-.22,4.44-.26a22,22,0,0,0,4.4-.57.94.94,0,0,0,.55.37l.73.2a5.43,5.43,0,0,1,.71.22A.69.69,0,0,1,841.39,36.53Z" transform="translate(0 -9.77)"/><path class="b1c598e5-9d82-440c-ad7b-2a06ab341f03" d="M862.91,18a2.94,2.94,0,0,1-.48.93l-.66.83a3.94,3.94,0,0,0-.54.87,1.87,1.87,0,0,0-.14,1,.72.72,0,0,1-.19,0l-.19,0a1.35,1.35,0,0,0-1,.3,2.58,2.58,0,0,1-.87.49,2.53,2.53,0,0,0-.19-.45.64.64,0,0,0-.35-.3c-.62.13-1.24.23-1.85.3s-1.24.15-1.86.26a6.59,6.59,0,0,0-.85.21c-.28.1-.58.18-.89.26a1.35,1.35,0,0,1-.5.06,2.44,2.44,0,0,0-.54,0c-.62,0-1.29.07-2,.14a4.39,4.39,0,0,0-1.93.61q-.39-.08-.81-.12c-.29,0-.57,0-.85,0a12.6,12.6,0,0,0-2,.18,5.38,5.38,0,0,0-2,.69,2.77,2.77,0,0,0-.41-.12,3.32,3.32,0,0,0-.48,0l-.12,0s-.06,0-.11,0a1.35,1.35,0,0,0,.09.69,1,1,0,0,0,.49.54,2.63,2.63,0,0,0-.16.95,8.73,8.73,0,0,0,.1,1.34,10.2,10.2,0,0,1,.1,1.34,3,3,0,0,1-.2,1.19A8,8,0,0,1,842,32.7a7.26,7.26,0,0,1-.06.93,7.27,7.27,0,0,0-.06,1,.87.87,0,0,0,.31.7.84.84,0,0,1,.31.69.6.6,0,0,1-.08.31,6.4,6.4,0,0,0,1.05-.33,2.49,2.49,0,0,1,1-.22,1.53,1.53,0,0,1,.6.12,1.94,1.94,0,0,1,.52.31,2.92,2.92,0,0,0-.06.44c0,.16,0,.31,0,.47s0,.56,0,.81,0,.52.06.81a5.2,5.2,0,0,1-.71,1,2.34,2.34,0,0,0-.56,1.11,2,2,0,0,0-1,.25,8.58,8.58,0,0,0-.83.56c-.26.2-.52.38-.77.55a1.52,1.52,0,0,1-.85.26,1.34,1.34,0,0,1-.81-.18,1.24,1.24,0,0,1-.35-.38l-.21-.35c-.07-.11-.2-.15-.41-.12a3.06,3.06,0,0,0-.31-1c-.15-.3-.31-.6-.48-.89s-.34-.58-.5-.89a3.77,3.77,0,0,1-.37-.92,8,8,0,0,1-.19-2.14,5.48,5.48,0,0,0-.35-2.13c0-.37.09-.75.11-1.13s0-.76,0-1.12c0-.74,0-1.47,0-2.2s-.08-1.47-.1-2.23a1.7,1.7,0,0,1-.33-.81c0-.3-.07-.6-.1-.89a2.89,2.89,0,0,0-.25-.24.5.5,0,0,1-.17-.31,2.27,2.27,0,0,0-.47-.08,1.45,1.45,0,0,0-.9.26A1.22,1.22,0,0,1,834,25a1.81,1.81,0,0,1-.58-.08,2,2,0,0,0-.54-.08c-.15,0-.24,0-.25.1s-.07.13-.17.18a1.75,1.75,0,0,1-.55.16c-.28.05-.59.1-.94.14l-1,.1-.63,0a1.51,1.51,0,0,1-.95-.26c-.22-.17-.48-.36-.79-.57a1.31,1.31,0,0,0,.07-.32.91.91,0,0,0-.23-.65.74.74,0,0,1-.23-.46.78.78,0,0,1,.33-.67,1,1,0,0,0,.37-.75,9.11,9.11,0,0,1,1.81-.59c.62-.13,1.25-.24,1.9-.32s1.28-.17,1.91-.27a9.84,9.84,0,0,0,1.87-.52l.52.06.53,0A9.87,9.87,0,0,0,838.7,20,10.69,10.69,0,0,1,841,19.7a4.3,4.3,0,0,1,.62,0,4.48,4.48,0,0,1,.62.11c1-.15,2.05-.32,3.07-.51s2.07-.34,3.15-.47c.51-.06,1-.1,1.52-.14s1-.1,1.53-.18a.82.82,0,0,0,.41-.14c.09-.06.13-.2.13-.41a1.93,1.93,0,0,0,.77.16,3.5,3.5,0,0,0,1.28-.24,3.49,3.49,0,0,1,1.27-.24l.27,0a1,1,0,0,0,.24,0,.26.26,0,0,0,.29-.26q0-.26.36-.33a4.61,4.61,0,0,1,.78-.12l1.06-.1a9.9,9.9,0,0,0,1-.16,1.61,1.61,0,0,0,.72-.29l.27-.44a1.19,1.19,0,0,1,1,.61,2.88,2.88,0,0,1,.37,1.25.56.56,0,0,0,.44.14,4.88,4.88,0,0,1,.52,0Z" transform="translate(0 -9.77)"/><path class="b1c598e5-9d82-440c-ad7b-2a06ab341f03" d="M788.77,66.83V67a.36.36,0,0,0-.27.39,4.66,4.66,0,0,1-.89.3,3.46,3.46,0,0,0-.89.3q-.42,0-.87-.06c-.3,0-.59,0-.87,0-.77,0-1.54,0-2.32.08a18,18,0,0,1-2.32,0,5.07,5.07,0,0,1-1.17.49,4.51,4.51,0,0,1-1.22.18,2.47,2.47,0,0,1-.81-.12,11.9,11.9,0,0,1-2,.79l-2.22.61c-.75.2-1.46.42-2.15.67A5.6,5.6,0,0,0,769,71.65c-.05.37-.09.73-.12,1.09s0,.7,0,1a8.28,8.28,0,0,0,.06,1,3.71,3.71,0,0,0,.25,1,2.44,2.44,0,0,0,.45.12,3.77,3.77,0,0,0,.44,0,1.32,1.32,0,0,0,.39-.06.46.46,0,0,0,.27-.26,7.45,7.45,0,0,1,1.16-.06c.38,0,.77,0,1.15,0s.77,0,1.15,0a4.72,4.72,0,0,0,1.1-.2,6.47,6.47,0,0,1,1.21-.19l1.18-.08c.39,0,.79-.07,1.2-.14a4.4,4.4,0,0,0,1.27-.42,2.66,2.66,0,0,0,1,.2,6.8,6.8,0,0,1,1,.08,2.09,2.09,0,0,1,.45.44.92.92,0,0,1,.17.55,1.92,1.92,0,0,1-.39,1.11,7.81,7.81,0,0,0-.61,1h-.43a6.37,6.37,0,0,0-1.8.26c-.58.17-1.16.37-1.73.59s-1.16.42-1.74.6a6.36,6.36,0,0,1-1.8.25c-.1,0-.16.06-.17.18a.52.52,0,0,1-.1.26,2.83,2.83,0,0,0-.58,0,6.77,6.77,0,0,0-1.7.2,7.1,7.1,0,0,1-1.66.19,3.46,3.46,0,0,1-.46,0,3.78,3.78,0,0,1-.47-.06.92.92,0,0,1-.5.42,1.61,1.61,0,0,0-.58.33,3.44,3.44,0,0,0-.14.87c0,.35,0,.69,0,1s-.05.69-.1,1a1.61,1.61,0,0,1-.31.75c0,.13.13.18.31.14s.27,0,.27.25a4.18,4.18,0,0,1-.08.76,4.15,4.15,0,0,0-.07.79,8.31,8.31,0,0,0,.17,1.64,6.5,6.5,0,0,0,.54,1.63,3.4,3.4,0,0,0,1,1.25,2.37,2.37,0,0,0,1.54.49,3,3,0,0,0,1.16-.23,2,2,0,0,0,.89-.79l.19,0a.92.92,0,0,1,.29,0,1.35,1.35,0,0,0,.29,0,1,1,0,0,0,.6-.3l.81-.69c.3-.27.6-.52.91-.77a3.31,3.31,0,0,1,.89-.54c.18-.36.35-.73.52-1.1a2,2,0,0,1,.75-.87V85.28a7.7,7.7,0,0,1,.83-.79,2.21,2.21,0,0,0,.68-.91,1.45,1.45,0,0,0,.37.12,1.37,1.37,0,0,0,.36,0,2,2,0,0,0,.41,0,1.33,1.33,0,0,0,.4-.12,3.69,3.69,0,0,1,.49,1,5.06,5.06,0,0,0,.44,1c-.23.47-.5,1-.81,1.7s-.64,1.32-1,2-.74,1.29-1.14,1.88a6.39,6.39,0,0,1-1.18,1.36,1.85,1.85,0,0,1-.5.28c-.29.21-.55.42-.78.61a4.77,4.77,0,0,0-.65.69,11.16,11.16,0,0,0-2.15,1c-.68.4-1.36.78-2,1.15a4,4,0,0,0-1-.12,7.26,7.26,0,0,0-.93.06,7.79,7.79,0,0,1-1,.06.75.75,0,0,0-.45-.26c-.19,0-.26-.18-.21-.41a3.71,3.71,0,0,1-2.12-.73,5.93,5.93,0,0,1-1.38-1.6,10,10,0,0,1-.9-2.06c-.24-.74-.48-1.45-.74-2.13v-.12a.22.22,0,0,1,.16-.24q.15,0,.15-.24a.12.12,0,0,0,0-.11c-.07-.29-.14-.54-.19-.75a3.41,3.41,0,0,1-.08-.76,10.19,10.19,0,0,1,.08-1.24,10.23,10.23,0,0,0,.08-1.25,3.31,3.31,0,0,0-.16-1.1,1.36,1.36,0,0,0,.25-.54,3.83,3.83,0,0,0,.14-.69l.06-.71a2.89,2.89,0,0,1,.09-.63l-.27-.77a2.69,2.69,0,0,1-.11-.81v-.28a10.21,10.21,0,0,0,.65-1.38c.18-.47.38-1,.58-1.46v-.12c0-.76,0-1.53-.07-2.29s-.08-1.53-.08-2.29v-.77a6,6,0,0,1,0-.74,1.07,1.07,0,0,0,.46-.43,1.15,1.15,0,0,1,.46-.44h1.28l.23-.39a1.31,1.31,0,0,0,.16-.43,4.53,4.53,0,0,0,.83-.34,8.77,8.77,0,0,0,.75-.46l1-.57a7.12,7.12,0,0,1,.88-.43,7,7,0,0,1,1-.3c.33-.08.72-.14,1.16-.2.21,0,.34,0,.4-.12s.17-.17.29-.27l.93.14a7.26,7.26,0,0,0,.93.06,4.24,4.24,0,0,0,1.74-.36c.77,0,1.54,0,2.3,0s1.52,0,2.3,0,1.33,0,2,.08a15.83,15.83,0,0,1,2,.28,2.41,2.41,0,0,1,.78-.12,4.36,4.36,0,0,1,.94.1,2.77,2.77,0,0,0,1,0,1.9,1.9,0,0,0,.21.73A1.31,1.31,0,0,1,788.77,66.83Z" transform="translate(0 -9.77)"/><path class="b1c598e5-9d82-440c-ad7b-2a06ab341f03" d="M812.88,72.48a.5.5,0,0,1-.27.51.47.47,0,0,0-.28.48.3.3,0,0,0,.08.2.32.32,0,0,1,.08.23v.16a15.44,15.44,0,0,1-1.33,4,18,18,0,0,1-2,3.12,21.31,21.31,0,0,1-2.61,2.69c-1,.84-2,1.73-3.11,2.65l-.95.79a10.17,10.17,0,0,0-.9.83l-.86.83a2.27,2.27,0,0,1-.42.17l-.46.18c-.36.16-.74.35-1.14.56a3.67,3.67,0,0,0-1,.79,3.23,3.23,0,0,0-1.31.23,10.34,10.34,0,0,0-1.2.64.67.67,0,0,1-.33-.08,2,2,0,0,0-.29-.16.92.92,0,0,0-.32-.1,1.33,1.33,0,0,0-.45.06,6.59,6.59,0,0,0-1-1.34,2.41,2.41,0,0,0-1.47-.68,1.77,1.77,0,0,0-.54-1c-.29-.25-.57-.52-.85-.81a3.63,3.63,0,0,1-.12-.56,2.83,2.83,0,0,0-.15-.59,1.54,1.54,0,0,0-.31-.47.69.69,0,0,0-.54-.2c0-.16,0-.24.19-.24s.23-.06.23-.2a1.33,1.33,0,0,0-.08-.47,1.7,1.7,0,0,1-.07-.51,1.32,1.32,0,0,1,0-.36,2.76,2.76,0,0,1,.11-.36,19.34,19.34,0,0,1-.11-2.17,29.48,29.48,0,0,1,.29-4.21,30.76,30.76,0,0,0,.29-4.2c0-.64,0-1.27-.1-1.9a10.75,10.75,0,0,0-.37-1.86c-.59.13-1.18.28-1.78.46a7.85,7.85,0,0,0-1.66.69,2,2,0,0,0-.9-.34,4.37,4.37,0,0,1-1-.22,2.55,2.55,0,0,1-.27-1.14,3,3,0,0,1,.19-1.07l.39-1a9.51,9.51,0,0,0,1.83-.59c.61-.26,1.22-.5,1.84-.71l.79-.2a4.68,4.68,0,0,0,.68-.2.62.62,0,0,0,.36-.45,1.7,1.7,0,0,1,.29-.57h.66a4.44,4.44,0,0,1,.5,0,1.2,1.2,0,0,1,.5.14,15.92,15.92,0,0,1,2.79-.46c.92-.06,1.88-.16,2.86-.3a2.74,2.74,0,0,0,.48,0l.66-.12.61-.12a2.45,2.45,0,0,1,.41-.06c.08,0,.11,0,.11.12h.66a12.24,12.24,0,0,1,3.25.43l3.17.87c.43.37.87.73,1.31,1.07a8.9,8.9,0,0,0,1.47.91,2.25,2.25,0,0,0,.6,1l.9.81a7.63,7.63,0,0,0,.53,1.08c.21.38.43.77.63,1.17a10.88,10.88,0,0,1,.54,1.16A2.87,2.87,0,0,1,812.88,72.48Zm-3.6.59c-.28-.6-.55-1.24-.81-1.89a7.59,7.59,0,0,0-1-1.78,12.59,12.59,0,0,1-1.41-.5,1.69,1.69,0,0,1-1-1,.76.76,0,0,1-.27,0,.87.87,0,0,1-.62-.28,1.35,1.35,0,0,0-.62-.36l-.83-.11a9.26,9.26,0,0,0-1.1-.12L800.53,67c-.37,0-.66,0-.87,0l-.64,0-.67.06c-.21,0-.34,0-.39.1a.66.66,0,0,1-.31.17,1.16,1.16,0,0,0-.42-.08h-.47a5.2,5.2,0,0,0-1.6.26,8.25,8.25,0,0,0-1.56.69v.16a.31.31,0,0,0,.27.36.33.33,0,0,1,.31.31l-.31,0q-.12,0-.12.3a4.08,4.08,0,0,0,.1.87,5,5,0,0,1,.09.95,5.44,5.44,0,0,1-.07.83,1.24,1.24,0,0,1-.39.75,1.21,1.21,0,0,1,.39.95,2.34,2.34,0,0,1-.16.83,2.93,2.93,0,0,1-.38.75c-.06,1.1-.16,2.22-.31,3.35a24.12,24.12,0,0,0-.23,3.36,14.13,14.13,0,0,0,.09,1.62,10.82,10.82,0,0,0,.33,1.58,3.38,3.38,0,0,0,.91.68l1,.47v.12a.33.33,0,0,1-.15.24.35.35,0,0,0-.16.31.14.14,0,0,0,.16.16A21.17,21.17,0,0,0,798,86a10.28,10.28,0,0,0,2.66-1.81.35.35,0,0,1,.24-.12.68.68,0,0,1,.21,0l.25.08,0-.16a.79.79,0,0,1,.14-.44,2.25,2.25,0,0,1,.33-.37l.38-.36a1.74,1.74,0,0,0,.31-.37.73.73,0,0,0,.45-.32.5.5,0,0,1,.48-.24.92.92,0,0,1,.42-.65.88.88,0,0,0,.43-.65,6,6,0,0,0,1.37-1.07,14.45,14.45,0,0,0,1.12-1.34c.35-.47.68-1,1-1.48s.63-1,1-1.48v-.16a2.19,2.19,0,0,1,.21-1A3.31,3.31,0,0,0,809.28,73.07Z" transform="translate(0 -9.77)"/><path class="b1c598e5-9d82-440c-ad7b-2a06ab341f03" d="M822.92,86.55a2.8,2.8,0,0,1-.46.57,6.17,6.17,0,0,0-.5.53,1.46,1.46,0,0,1-.6.12,6.12,6.12,0,0,1-.62,0,4.86,4.86,0,0,0-.54,0,.62.62,0,0,0-.41.18.75.75,0,0,1-.46-.3.71.71,0,0,0-.54-.25.54.54,0,0,0-.31,0A12.3,12.3,0,0,1,817.42,86c-.33-.5-.63-1-.91-1.42,0-1-.1-2-.23-3,0-.24-.07-.48-.12-.71s-.09-.46-.12-.67a5,5,0,0,1,.06-.78c0-.25.07-.48.1-.69.1-.76.22-1.51.35-2.25s.24-1.49.34-2.25a13.63,13.63,0,0,0,.16-2.16A6.35,6.35,0,0,0,816.7,70l0-.2a2.51,2.51,0,0,1,.18-.53,1.76,1.76,0,0,0,.13-.49.61.61,0,0,0-.19-.64.63.63,0,0,1,.38-.41.49.49,0,0,0,.31-.46.55.55,0,0,0,0-.31l.64-.22a1.27,1.27,0,0,1,.64,0,2.23,2.23,0,0,1,.89.34,6.53,6.53,0,0,1,.73.57,10.88,10.88,0,0,1,.5,4c-.07,1.41-.2,2.83-.38,4.25s-.3,2.81-.35,4.17a9,9,0,0,0,.62,3.77l.08,0a.26.26,0,0,0,.3-.14.29.29,0,0,1,.31-.14.53.53,0,0,0,.2.08,5.88,5.88,0,0,0,.5,1.5C822.38,85.6,822.64,86.07,822.92,86.55Z" transform="translate(0 -9.77)"/><path class="b1c598e5-9d82-440c-ad7b-2a06ab341f03" d="M859.86,66.55a2.86,2.86,0,0,1-.49.93c-.21.28-.43.55-.65.83a4.46,4.46,0,0,0-.54.87,1.89,1.89,0,0,0-.14,1l-.19,0a.72.72,0,0,0-.19,0,1.4,1.4,0,0,0-.95.29,2.59,2.59,0,0,1-.87.5,3.71,3.71,0,0,0-.19-.46.63.63,0,0,0-.35-.29,17.09,17.09,0,0,1-1.86.29c-.61.07-1.23.16-1.85.26a6.64,6.64,0,0,0-.85.22c-.28.09-.58.18-.89.25a1,1,0,0,1-.5.06,3.25,3.25,0,0,0-.54,0c-.62,0-1.29.08-2,.14a4.52,4.52,0,0,0-1.93.61,6.88,6.88,0,0,0-.81-.11,8.25,8.25,0,0,0-.86,0,13.75,13.75,0,0,0-2,.17,5.21,5.21,0,0,0-1.95.7,1.48,1.48,0,0,0-.41-.12,2.33,2.33,0,0,0-.48,0,.22.22,0,0,0-.12,0l-.11,0a1.36,1.36,0,0,0,.09.69,1,1,0,0,0,.49.53,2.67,2.67,0,0,0-.16.95,8.54,8.54,0,0,0,.1,1.34,10.2,10.2,0,0,1,.09,1.35,2.93,2.93,0,0,1-.19,1.18,8.07,8.07,0,0,1,.39,2.53,7,7,0,0,1-.06.93,7.43,7.43,0,0,0-.06,1,.84.84,0,0,0,.31.69.84.84,0,0,1,.31.69.76.76,0,0,1-.08.32,5.27,5.27,0,0,0,1-.34,2.74,2.74,0,0,1,1-.22,1.61,1.61,0,0,1,.6.12,2.14,2.14,0,0,1,.52.32,2.79,2.79,0,0,0-.06.43c0,.16,0,.32,0,.48s0,.56,0,.81,0,.52.06.81a5.24,5.24,0,0,1-.72,1,2.4,2.4,0,0,0-.56,1.1,2,2,0,0,0-1,.26,7,7,0,0,0-.83.55c-.26.2-.52.38-.77.56a1.51,1.51,0,0,1-.85.25,1.34,1.34,0,0,1-.81-.18,1.1,1.1,0,0,1-.35-.37l-.22-.36c-.06-.1-.19-.14-.4-.12a3.18,3.18,0,0,0-.31-1c-.15-.31-.32-.6-.48-.89l-.51-.89a4.07,4.07,0,0,1-.36-.93,8.33,8.33,0,0,1-.2-2.13,5.56,5.56,0,0,0-.34-2.14c0-.37.09-.74.11-1.12s0-.76,0-1.13q0-1.11-.06-2.19c0-.73-.07-1.47-.09-2.24a1.62,1.62,0,0,1-.33-.81c0-.3-.07-.59-.1-.88l-.25-.24a.53.53,0,0,1-.17-.32,2.27,2.27,0,0,0-.47-.08,1.52,1.52,0,0,0-.9.26,1.27,1.27,0,0,1-.68.26,2.14,2.14,0,0,1-.58-.08,2,2,0,0,0-.54-.08c-.16,0-.24,0-.25.1a.34.34,0,0,1-.18.18,1.65,1.65,0,0,1-.54.15c-.28.06-.6.1-.94.14l-1,.1-.64,0a1.44,1.44,0,0,1-.94-.26c-.22-.17-.49-.36-.79-.57a1.23,1.23,0,0,0,.07-.32.91.91,0,0,0-.23-.65.74.74,0,0,1-.23-.45.77.77,0,0,1,.33-.67.94.94,0,0,0,.36-.75,8.82,8.82,0,0,1,1.82-.6c.62-.13,1.25-.23,1.89-.31s1.28-.17,1.92-.28a9.8,9.8,0,0,0,1.87-.51l.52.06.52,0a10.47,10.47,0,0,0,2.3-.26,10.69,10.69,0,0,1,2.34-.26c.21,0,.41,0,.62,0l.62.12c1-.16,2-.33,3.07-.51s2.06-.35,3.15-.48l1.52-.14c.5,0,1-.1,1.53-.17a1,1,0,0,0,.4-.14.51.51,0,0,0,.14-.42,1.77,1.77,0,0,0,.77.16,3.54,3.54,0,0,0,1.28-.24,3.66,3.66,0,0,1,1.27-.23,1.1,1.1,0,0,1,.27,0l.23,0a.26.26,0,0,0,.29-.26c0-.17.14-.28.37-.34a4.64,4.64,0,0,1,.77-.12l1.07-.09c.37,0,.72-.1,1-.16a1.63,1.63,0,0,0,.71-.3l.27-.43a1.17,1.17,0,0,1,1,.61,2.84,2.84,0,0,1,.37,1.24.5.5,0,0,0,.44.14l.52,0Z" transform="translate(0 -9.77)"/><path class="b1c598e5-9d82-440c-ad7b-2a06ab341f03" d="M862.79,86.55a2.8,2.8,0,0,1-.46.57,6.17,6.17,0,0,0-.5.53,1.46,1.46,0,0,1-.6.12,6.12,6.12,0,0,1-.62,0,4.86,4.86,0,0,0-.54,0,.65.65,0,0,0-.41.18.75.75,0,0,1-.46-.3.69.69,0,0,0-.54-.25.55.55,0,0,0-.31,0A12.3,12.3,0,0,1,857.29,86c-.32-.5-.63-1-.91-1.42,0-1-.1-2-.23-3,0-.24-.07-.48-.12-.71a6.21,6.21,0,0,1-.11-.67,6.66,6.66,0,0,1,.05-.78c0-.25.07-.48.1-.69.1-.76.22-1.51.35-2.25s.24-1.49.35-2.25a15,15,0,0,0,.15-2.16,6.11,6.11,0,0,0-.35-2.11l0-.2a2.55,2.55,0,0,1,.17-.53,1.76,1.76,0,0,0,.13-.49.59.59,0,0,0-.19-.64.64.64,0,0,1,.39-.41.51.51,0,0,0,.31-.46.81.81,0,0,0,0-.31c.2-.08.41-.15.63-.22a1.27,1.27,0,0,1,.64,0,2.18,2.18,0,0,1,.89.34,5.73,5.73,0,0,1,.73.57,10.88,10.88,0,0,1,.51,4c-.08,1.41-.21,2.83-.39,4.25s-.3,2.81-.35,4.17a9.21,9.21,0,0,0,.62,3.77l.08,0a.27.27,0,0,0,.31-.14.28.28,0,0,1,.31-.14.46.46,0,0,0,.19.08,5.88,5.88,0,0,0,.5,1.5C862.25,85.6,862.51,86.07,862.79,86.55Z" transform="translate(0 -9.77)"/><path class="b1c598e5-9d82-440c-ad7b-2a06ab341f03" d="M890.92,69.08a1.82,1.82,0,0,0-.27.79,7.59,7.59,0,0,0,0,.79c0,.32,0,.63,0,.93s0,.6,0,.89v.59a2.65,2.65,0,0,1-.23.56,2.38,2.38,0,0,0-.23.55,8.37,8.37,0,0,0-.54,2.92v.08c-.13.32-.26.61-.37.87s-.23.52-.33.77a4.22,4.22,0,0,0-.23.79,3.76,3.76,0,0,0,0,1,9.85,9.85,0,0,1-1.43,2.51q-.88,1.13-1.74,2.31a6.19,6.19,0,0,0-1.49.83,11.55,11.55,0,0,0-1.29,1.15,23.41,23.41,0,0,0-2.36.91,7.39,7.39,0,0,0-2.08,1.38,12.5,12.5,0,0,0-1.47.24,6.65,6.65,0,0,0-1.43.47h-.46a.68.68,0,0,1-.51-.16,3.35,3.35,0,0,1-1,.38,6.57,6.57,0,0,1-1.08.1,10.27,10.27,0,0,1-1.37-.1l-1.38-.22a2.38,2.38,0,0,0-1.08-.85q-.69-.3-1.23-.57a12.26,12.26,0,0,1-1.63-3.07c-.33-1-.68-2.1-1-3.33a5.11,5.11,0,0,1,.27-1.09A3,3,0,0,0,865,80.3a15.23,15.23,0,0,1,1.83-3.73,25.2,25.2,0,0,1,2.61-3.22.72.72,0,0,1,.1-.4.61.61,0,0,0,0-.47.22.22,0,0,0,.16,0,.39.39,0,0,0,.39-.18.7.7,0,0,0,0-.41,14.26,14.26,0,0,0,2.53-2.1,10.31,10.31,0,0,1,2.61-2,1.36,1.36,0,0,1,.39-.6,1.62,1.62,0,0,0,.42-.55,7.3,7.3,0,0,0,2.25-1.07,15.39,15.39,0,0,1,2.12-1.26,4.3,4.3,0,0,1,1.18-.49l1.22-.3.42-.12a1.91,1.91,0,0,1,.43,0,3.72,3.72,0,0,1,1.35.26,3.71,3.71,0,0,0,1.35.25,1.62,1.62,0,0,0,.33,0l.29-.05a4.25,4.25,0,0,0,1.66,1.26,4,4,0,0,0,.56,1c.22.29.44.57.68.85a6.1,6.1,0,0,1,.63.91A2.78,2.78,0,0,1,890.92,69.08Zm-3.86,2.06a1.88,1.88,0,0,0,0-.36,3.45,3.45,0,0,1-.74-.32,1.54,1.54,0,0,0-.77-.19,1.32,1.32,0,0,0-.54.12.58.58,0,0,0-.21-.4,3,3,0,0,0-.81-.38.72.72,0,0,1-.37-.21c-.08-.21-.16-.43-.25-.65a.9.9,0,0,0-.48-.5,2.75,2.75,0,0,1-.82.57c-.3.15-.62.29-.94.42a6.76,6.76,0,0,0-.93.47,2.73,2.73,0,0,0-.75.68h-.7a1.48,1.48,0,0,1-.66.65,2.23,2.23,0,0,0-.73.61,5.85,5.85,0,0,0-1.14.77c-.35.3-.69.62-1,1s-.67.66-1,1a9,9,0,0,1-1,.94,10.78,10.78,0,0,1-1.1,1.92c-.4.54-.78,1.09-1.12,1.64a9.43,9.43,0,0,0-.89,1.8,6.63,6.63,0,0,0-.37,2.39v.39a1.75,1.75,0,0,0,0,.4,5.86,5.86,0,0,1,.83,1.18,1.87,1.87,0,0,0,1.1.91,3.64,3.64,0,0,0,1.64.28,5,5,0,0,1,1.68.2,15.16,15.16,0,0,0,3.58-1.17,19.66,19.66,0,0,0,3.26-2c.16-.14.34-.27.54-.42a2.28,2.28,0,0,0,.51-.45,2.36,2.36,0,0,0,.32-.44,3.58,3.58,0,0,1,.29-.43c.21-.34.44-.69.7-1a10.91,10.91,0,0,1,.81-1,13.06,13.06,0,0,1,.5-1.68c.21-.54.41-1.07.62-1.6a12.25,12.25,0,0,0,.52-1.62,7,7,0,0,0,.22-1.74c0-.13,0-.27,0-.43s0-.3-.06-.44A1.63,1.63,0,0,0,887.06,71.14Z" transform="translate(0 -9.77)"/><path class="b1c598e5-9d82-440c-ad7b-2a06ab341f03" d="M919,66a3.65,3.65,0,0,1-.21.81,1.67,1.67,0,0,0-.06.89.93.93,0,0,0-.6.26,1.9,1.9,0,0,0-.35.49l-.27.57a2.44,2.44,0,0,1-.33.54,15.42,15.42,0,0,1,.35,2.88c0,1,.09,1.94.19,2.88a30,30,0,0,0,.6,3.58,15.92,15.92,0,0,1,.41,3.58c0,.37,0,.71,0,1s0,.65,0,1,0,.43,0,.65,0,.45,0,.66a9.52,9.52,0,0,1-.29,2.29,20.57,20.57,0,0,0-.45,2.29,5.46,5.46,0,0,0-.79,1c-.22.34-.44.66-.67,1a4.62,4.62,0,0,1-.82.77,2.77,2.77,0,0,1-1.15.45,1,1,0,0,1-.45.59,1.87,1.87,0,0,0-.56.56h-.08a4.61,4.61,0,0,1-1.66-.28,8.57,8.57,0,0,1-1.29-.63L909.31,93a5.35,5.35,0,0,0-1.43-.64,14.82,14.82,0,0,1-2-2,12.44,12.44,0,0,0-2-2,4,4,0,0,0-.71-1.3,8.94,8.94,0,0,1-.87-1.19,2.25,2.25,0,0,1-.29-.51c-.07-.16-.15-.34-.25-.55a.75.75,0,0,0-.37-.44,2.06,2.06,0,0,1-.44-.27,9.59,9.59,0,0,0-.89-2.26,14.13,14.13,0,0,0-1.36-2,4.72,4.72,0,0,0-.36.93c-.09.33-.18.66-.25,1s-.18.66-.29,1a3.91,3.91,0,0,1-.45.89v.12a.22.22,0,0,0,.16.24c.1,0,.15.1.15.23a.19.19,0,0,1,0,.08.31.31,0,0,0,0,.08,1.06,1.06,0,0,0-.29.4.43.43,0,0,1-.4.27,2.73,2.73,0,0,1,0,.38v.38a11.23,11.23,0,0,1-.25,2.29,10.67,10.67,0,0,0-.26,2.33V91a4.07,4.07,0,0,0,0,.52,2.26,2.26,0,0,0,.23.47.77.77,0,0,1,.16.43.75.75,0,0,1-.23.52l.61.43a3.73,3.73,0,0,1,.64.54,2.68,2.68,0,0,1,.49.63,1.53,1.53,0,0,1,.19.73,1,1,0,0,1-.43,1,3.41,3.41,0,0,1-1,.43c-.4.11-.81.21-1.24.3a2.48,2.48,0,0,0-1.06.49h-.12a.86.86,0,0,1-.69-.27.84.84,0,0,0-.7-.28,8.21,8.21,0,0,1-1-2.75,16.57,16.57,0,0,1-.27-2.9,20.54,20.54,0,0,1,.29-3.4q.28-1.69.69-3.36c.27-1.1.57-2.2.89-3.3s.63-2.19.91-3.3a.14.14,0,0,1,0-.06.08.08,0,0,0,0-.06.31.31,0,0,0-.1-.27.3.3,0,0,1-.09-.24c0-.05,0-.08,0-.08.08-.26.17-.51.26-.75a4.33,4.33,0,0,0,.21-.79,20.67,20.67,0,0,0,.33-2.27c.06-.78.1-1.55.11-2.31s0-1.54.08-2.31a20.06,20.06,0,0,1,.25-2.32,6.19,6.19,0,0,0,.58-.67,2.69,2.69,0,0,1,.7-.63,8.21,8.21,0,0,1,1.54.24,5,5,0,0,1,1.47.63,21.4,21.4,0,0,1,.64,3.4,22.67,22.67,0,0,0,.6,3.4v.11q0,.21.21.18a.37.37,0,0,1,.33.14.53.53,0,0,0-.1.28c0,.1,0,.21,0,.31v.67c.05.22.12.44.19.68a.63.63,0,0,0,.51.43,12.22,12.22,0,0,0,.58,2.33,18,18,0,0,0,.88,2.06c.34.66.7,1.31,1.09,2l1.19,2A8.24,8.24,0,0,1,908,85.7c.46.64.93,1.26,1.41,1.85a8,8,0,0,0,1.62,1.56,4.71,4.71,0,0,0,2.38.83,1,1,0,0,0,.28-.43c.07-.18.13-.37.2-.55a2.3,2.3,0,0,1,.23-.5.86.86,0,0,1,.41-.33c0-.74.1-1.49.17-2.25a7.85,7.85,0,0,1,.48-2.18,1.8,1.8,0,0,1-.19-.87,4.56,4.56,0,0,1,.06-.75,4.25,4.25,0,0,0,.06-.71,2.23,2.23,0,0,0-.31-1.22,5.78,5.78,0,0,1,0-.58,1.34,1.34,0,0,1,.24-.57,10,10,0,0,1-.49-1.66,9.51,9.51,0,0,1-.17-1.78,5.08,5.08,0,0,1,.12-1.07,4.91,4.91,0,0,1-.31-1.4c-.06-.54-.11-1.08-.16-1.62a13.15,13.15,0,0,0-.23-1.52,2.37,2.37,0,0,0-.58-1.15,1.41,1.41,0,0,0,.23-.82,4.72,4.72,0,0,0-.23-1.51,4.91,4.91,0,0,1-.23-1.5,2.86,2.86,0,0,1,.23-1.1A13.28,13.28,0,0,1,915,64a9.16,9.16,0,0,0,1.64.14,2.41,2.41,0,0,0,.54.52c.21.13.43.25.66.37s.46.24.68.38A1.45,1.45,0,0,1,919,66Z" transform="translate(0 -9.77)"/></g></g></svg>