<?xml version="1.0" encoding="UTF-8" standalone="no"?>
<svg
   xmlns:dc="http://purl.org/dc/elements/1.1/"
   xmlns:cc="http://creativecommons.org/ns#"
   xmlns:rdf="http://www.w3.org/1999/02/22-rdf-syntax-ns#"
   xmlns:svg="http://www.w3.org/2000/svg"
   xmlns="http://www.w3.org/2000/svg"
   xmlns:sodipodi="http://sodipodi.sourceforge.net/DTD/sodipodi-0.dtd"
   xmlns:inkscape="http://www.inkscape.org/namespaces/inkscape"
   viewBox="0 0 62.29 58.5"
   version="1.1"
   id="svg854"
   sodipodi:docname="vhlogo.svg"
   inkscape:version="0.92.4 5da689c313, 2019-01-14">
  <metadata
     id="metadata858">
    <rdf:RDF>
      <cc:Work
         rdf:about="">
        <dc:format>image/svg+xml</dc:format>
        <dc:type
           rdf:resource="http://purl.org/dc/dcmitype/StillImage" />
        <dc:title>Asset 10</dc:title>
      </cc:Work>
    </rdf:RDF>
  </metadata>
  <sodipodi:namedview
     pagecolor="#ffffff"
     bordercolor="#666666"
     borderopacity="1"
     objecttolerance="10"
     gridtolerance="10"
     guidetolerance="10"
     inkscape:pageopacity="0"
     inkscape:pageshadow="2"
     inkscape:window-width="3000"
     inkscape:window-height="1944"
     id="namedview856"
     showgrid="false"
     inkscape:zoom="27.948718"
     inkscape:cx="33.649588"
     inkscape:cy="29.25"
     inkscape:window-x="0"
     inkscape:window-y="56"
     inkscape:window-maximized="1"
     inkscape:current-layer="Layer_1-2" />
  <defs
     id="defs840">
    <style
       id="style838">.cls-1{fill:#3148a1;}</style>
  </defs>
  <title
     id="title842">Asset 10</title>
  <g
     id="Layer_2"
     data-name="Layer 2">
    <g
       id="Layer_1-2"
       data-name="Layer 1">
      <path
         class="cls-1"
         d="M45,0H41.72A1.31,1.31,0,0,0,40.6.82L26.93,39.47,13.21.82A1.28,1.28,0,0,0,12.09,0H8.85a.54.54,0,0,0-.6.49A.7.7,0,0,0,8.3.82l16,45.2a1.11,1.11,0,0,0,.17.3l-1.73,4.89L5,.83A1.29,1.29,0,0,0,3.84,0H.6a.55.55,0,0,0-.6.5A.59.59,0,0,0,.06.83L20.14,57.61a1.22,1.22,0,0,0,.33.48.54.54,0,0,0,.57.39h3.25a1,1,0,0,0,.37-.07.56.56,0,0,0,.29-.16,1.29,1.29,0,0,0,.46-.59L45.51.82a.58.58,0,0,0-.24-.76A.56.56,0,0,0,45,0Z"
         id="path844"
         style="fill:#000000;fill-opacity:1" />
      <path
         class="cls-1"
         d="M61.69,0H58.45a1.29,1.29,0,0,0-1.12.82L37.23,57.68a.57.57,0,0,0,.24.76.52.52,0,0,0,.3.06H41a1.29,1.29,0,0,0,1.12-.82L62.23.82A.57.57,0,0,0,62,.06.52.52,0,0,0,61.69,0Z"
         id="path846"
         style="fill:#000000;fill-opacity:1" />
      <path
         class="cls-1"
         d="M41.63,32.9H38.39a1.29,1.29,0,0,0-1.12.82l-8.47,24a.57.57,0,0,0,.24.76.51.51,0,0,0,.3.06h3.25a1.3,1.3,0,0,0,1.11-.8l8.48-24a.57.57,0,0,0-.25-.75A.51.51,0,0,0,41.63,32.9Z"
         id="path848"
         style="fill:#000000;fill-opacity:1" />
      <path
         class="cls-1"
         d="M39.65,29.26H42.9A1.31,1.31,0,0,0,44,28.44L53.79.8A.56.56,0,0,0,53.44,0H49.92a.75.75,0,0,0-.26,0,1.37,1.37,0,0,0-.59.42,1,1,0,0,0-.13.25L39.07,28.64A.54.54,0,0,0,39.65,29.26Z"
         id="path850"
         style="fill:#000000;fill-opacity:1" />
    </g>
  </g>
</svg>
