<svg xmlns="http://www.w3.org/2000/svg" viewBox="0 0 583.07 104.55"><defs><style>.b53156a6-da34-4672-bba2-d2b51ed287b5{fill:none;stroke:#3048a1;stroke-miterlimit:10;stroke-width:3.97px;}</style></defs><title>Asset 9</title><g id="aae608af-0d50-4e59-b88f-4271e756c94b" data-name="Layer 2"><g id="bbe5ffdc-5ce6-4c04-b364-07a41489382c" data-name="basically everything"><path class="b53156a6-da34-4672-bba2-d2b51ed287b5" d="M102.17,114.48H88.27l-21.83-76-22.64,76H29.91L4,21.84H17.21l20.51,78.35,23.16-76.5H72.26l23.42,76.36,20.38-78.21H129.3Z" transform="translate(-1.35 -13.24)"/><path class="b53156a6-da34-4672-bba2-d2b51ed287b5" d="M144.39,82.06c1.72,18,12,23.16,24.35,23.16a46.76,46.76,0,0,0,18.66-3.84l1.59,9.39a51.86,51.86,0,0,1-21.7,5c-22.9,0-35.07-15.61-35.07-34.27,0-18.13,11.64-33.22,31.76-33.22,16.14,0,27.92,9.92,27.92,27.39a37,37,0,0,1-.53,6.36Zm1.06-8.21h34.14c0-9.13-5-14.95-15.88-14.95C153.12,58.9,147.83,64.45,145.45,73.85Z" transform="translate(-1.35 -13.24)"/><path class="b53156a6-da34-4672-bba2-d2b51ed287b5" d="M227.11,115.8h-3.84c-12.57,0-16.81-7.81-16.81-15.61v-85h11.91V93.3c0,11.12,1.33,13,10.46,13Z" transform="translate(-1.35 -13.24)"/><path class="b53156a6-da34-4672-bba2-d2b51ed287b5" d="M236.11,81.92c0-18.92,10.58-33.61,32.16-33.61,9.79,0,16.14,1.72,20,3.84L286.4,62.87a37.79,37.79,0,0,0-16.81-4c-14.43,0-21.31,8.6-21.31,23,0,14.16,6.88,23.43,21.31,23.43a38.48,38.48,0,0,0,16.94-4l1.59,9.53c-3.84,2.51-9.27,4.89-19.72,4.89C246.83,115.8,236.11,100.05,236.11,81.92Z" transform="translate(-1.35 -13.24)"/><path class="b53156a6-da34-4672-bba2-d2b51ed287b5" d="M297.78,82.06c0-18.8,11.78-33.75,32.16-33.75S362.1,63.26,362.1,82.06s-11.91,33.74-32.16,33.74S297.78,100.85,297.78,82.06Zm12.18,0c0,14.55,7.14,23.16,20,23.16s20-8.61,20-23.16-7.14-23.16-20-23.16S310,67.5,310,82.06Z" transform="translate(-1.35 -13.24)"/><path class="b53156a6-da34-4672-bba2-d2b51ed287b5" d="M465.72,114.48V76.37c0-12.18-4.5-17.47-15.22-17.47-15.21,0-17.2,10.72-17.2,18v37.59H421.39V78.75c0-15.88-6.22-19.85-15.22-19.85-7.41,0-13.89,2.64-17.2,8.47v47.11H377.06V49.63h9.26l1.32,6.88c7.41-6.61,12.58-8.2,19.46-8.2,7.54,0,16,2.12,22,13,4.23-8.07,11.64-13,23.68-13,16.28,0,24.88,8.87,24.88,27.92v38.25Z" transform="translate(-1.35 -13.24)"/><path class="b53156a6-da34-4672-bba2-d2b51ed287b5" d="M504,82.06c1.72,18,12,23.16,24.35,23.16A46.83,46.83,0,0,0,547,101.38l1.59,9.39a51.87,51.87,0,0,1-21.71,5c-22.89,0-35.07-15.61-35.07-34.27,0-18.13,11.65-33.22,31.76-33.22,16.15,0,27.93,9.92,27.93,27.39a38.08,38.08,0,0,1-.53,6.36ZM505,73.85h34.14c0-9.13-5-14.95-15.88-14.95C512.71,58.9,507.42,64.45,505,73.85Z" transform="translate(-1.35 -13.24)"/><path class="b53156a6-da34-4672-bba2-d2b51ed287b5" d="M578.35,88h-8.47l-4-72.79h16.41Zm-9.79,26.47V103.1h11.12v11.38Z" transform="translate(-1.35 -13.24)"/></g></g></svg>