<svg xmlns="http://www.w3.org/2000/svg" viewBox="0 0 1017.5 744.45"><defs><style>.a807332f-96e8-4234-806e-a98f14cc807a,.a8b311a8-bb26-4f05-ba8b-4b8a351e7175,.af324261-da88-493f-930d-929a3952dc70,.fbdfbebe-d91c-493d-95ae-9b2fc6b70c40{fill:none;stroke-miterlimit:10;}.a8b311a8-bb26-4f05-ba8b-4b8a351e7175,.af324261-da88-493f-930d-929a3952dc70{stroke:#5e5e5e;stroke-width:2.83px;}.a8b311a8-bb26-4f05-ba8b-4b8a351e7175{stroke-dasharray:12.17 12.17;}.a807332f-96e8-4234-806e-a98f14cc807a,.fbdfbebe-d91c-493d-95ae-9b2fc6b70c40{stroke:#3048a1;stroke-width:3px;}.a807332f-96e8-4234-806e-a98f14cc807a{stroke-dasharray:12.32 12.32;}.fdae4a8f-19c9-4598-b781-ce753fde1277{fill:#3048a1;}</style></defs><title>Asset 10</title><g id="bf50cac3-0656-4a1b-8e60-de0c146216be" data-name="Layer 2"><g id="e6077e0c-1693-4498-9e62-4e2addd7d3d8" data-name="basically everything"><polyline class="af324261-da88-493f-930d-929a3952dc70" points="780.17 699.62 780.17 705.62 774.17 705.62"/><line class="a8b311a8-bb26-4f05-ba8b-4b8a351e7175" x1="761.99" y1="705.62" x2="183.75" y2="705.62"/><polyline class="af324261-da88-493f-930d-929a3952dc70" points="177.67 705.62 171.67 705.62 171.67 699.62"/><line class="a8b311a8-bb26-4f05-ba8b-4b8a351e7175" x1="171.67" y1="687.45" x2="171.67" y2="109.21"/><polyline class="af324261-da88-493f-930d-929a3952dc70" points="171.67 103.12 171.67 97.12 177.67 97.12"/><line class="a8b311a8-bb26-4f05-ba8b-4b8a351e7175" x1="189.84" y1="97.12" x2="768.08" y2="97.12"/><polyline class="af324261-da88-493f-930d-929a3952dc70" points="774.17 97.12 780.17 97.12 780.17 103.12"/><line class="a8b311a8-bb26-4f05-ba8b-4b8a351e7175" x1="780.17" y1="115.29" x2="780.17" y2="693.53"/><polyline class="fbdfbebe-d91c-493d-95ae-9b2fc6b70c40" points="794.5 401.5 1007.5 401.5 1007.5 346.5 992.5 363.5"/><line class="fbdfbebe-d91c-493d-95ae-9b2fc6b70c40" y1="401.5" x2="6" y2="401.5"/><line class="a807332f-96e8-4234-806e-a98f14cc807a" x1="18.32" y1="401.5" x2="135.34" y2="401.5"/><line class="fbdfbebe-d91c-493d-95ae-9b2fc6b70c40" x1="141.5" y1="401.5" x2="147.5" y2="401.5"/><path class="fbdfbebe-d91c-493d-95ae-9b2fc6b70c40" d="M189.54,721.33a24,24,0,1,1-31.46-35.73"/><path class="fdae4a8f-19c9-4598-b781-ce753fde1277" d="M119.8,744.45h-2.2l8.52-19.72h1.95l8.47,19.72h-2.23l-2.17-5.18h-10.2Zm2.9-7h8.68L127,727Z"/><path class="fdae4a8f-19c9-4598-b781-ce753fde1277" d="M146.06,728.52a4.34,4.34,0,0,1-.32,1.66,4,4,0,0,1-.88,1.3,3.79,3.79,0,0,1-1.34.85,4.79,4.79,0,0,1-3.39,0,3.79,3.79,0,0,1-1.34-.85,4,4,0,0,1-.88-1.3,4.34,4.34,0,0,1-.32-1.66,4.29,4.29,0,0,1,.32-1.67,4.2,4.2,0,0,1,.88-1.3,4.09,4.09,0,0,1,1.34-.85,4.94,4.94,0,0,1,3.39,0,4.09,4.09,0,0,1,1.34.85,4.2,4.2,0,0,1,.88,1.3A4.29,4.29,0,0,1,146.06,728.52Zm-1.62,0a3.47,3.47,0,0,0-.16-1.07,2.62,2.62,0,0,0-.51-.91,2.31,2.31,0,0,0-.82-.62,2.76,2.76,0,0,0-2.25,0,2.31,2.31,0,0,0-.82.62,2.45,2.45,0,0,0-.5.91,3.45,3.45,0,0,0,0,2.14,2.45,2.45,0,0,0,.5.91,2.31,2.31,0,0,0,.82.62,2.76,2.76,0,0,0,2.25,0,2.31,2.31,0,0,0,.82-.62,2.62,2.62,0,0,0,.51-.91A3.47,3.47,0,0,0,144.44,728.52Z"/><path class="fdae4a8f-19c9-4598-b781-ce753fde1277" d="M1005.49,315.63l6.41-10.07h4.42l-8.62,12.77,9.8,14.22h-4.76l-7.4-11.36-7.24,11.36h-4.65l9.64-14.3-8.69-12.69H999Z"/><polyline class="fbdfbebe-d91c-493d-95ae-9b2fc6b70c40" points="670.5 77 670.5 1.5 725.5 1.5 708.5 16.5"/></g></g></svg>