<svg xmlns="http://www.w3.org/2000/svg" viewBox="253 337 399.9 50.1"><path d="M393.6 348.5h3.6V369l-16.8-22.8h-8.3v2.4h3.5l1.1 1.7v25.8h-3.6v2.4h10.4v-2.4h-3.6v-21.7l17.9 24.7h2.5v-30.4h3.6v-2.4h-10.3zm-38.9 27.1h-4.1V363h4.1c4.3 0 7.1 2.5 7.1 6.6 0 4.4-3.8 6-7.1 6m-4.1-26.6h4c2.1 0 5.6.7 5.6 5.5 0 4-2.9 5.8-5.8 5.8h-3.7V349zm9.2 12.4c3.1-.9 5.9-3.2 5.9-7.1 0-5-3.7-8.1-9.4-8.1h-14.9v2.4h3.6v27.5h-3.6v2.5h15.7c6.1 0 10.1-3.5 10.1-8.5.1-5.3-3.5-7.9-7.4-8.7m66.1-12.9h4.1l-7 11.5-7.4-11.5h3.7v-2.4h-13v2.4h2.9l9.8 15.1V376h-3.6v2.5H428V376h-3.6v-12.6l9.1-14.8h2.6v-2.4h-10.2zm152.9 27.1h-10.7v-27.1h3.6v-2.4h-12.6v2.4h3.6V376h-3.6v2.5h22.4v-7h-2.8zm-27.6 0h-10.6v-27.1h3.6v-2.4h-12.6v2.4h3.6V376h-3.6v2.5H554v-7h-2.8zm-76.6-6.2l-10.9-23.2h-9v2.4h3.6v27.5h-3.6v2.5H465v-2.5h-3.6v-22.4l12 25.8 11.5-25.1v21.8h-3.6v2.5h12.6v-2.5h-3.6v-27.5h3.6v-2.4h-8.5zm126.3 6.5c-6 0-10.2-5.6-10.2-13.7 0-8 4.2-13.6 10.2-13.6 5.8 0 10 5.6 10 13.6.1 8.1-4 13.7-10 13.7m0-30.3c-8.9 0-16.1 7.5-16.1 16.8s7.2 16.8 16.1 16.8c8.8 0 16-7.5 16-16.8 0-9.4-7.1-16.8-16-16.8m41.7.5v2.4h3.6V369l-16.7-22.8h-8.4v2.4h3.5l1.2 1.7v25.8h-3.6v2.5h10.3v-2.5h-3.6v-21.7l17.9 24.7h2.5v-30.4h3.6v-2.4zm-121.7 29.5h-11.2v-12.3h8.5v3.7h2.8v-10.1h-2.9v3.6h-8.5v-11.7h10.7v4.1h2.8v-8.3h-2.8v1.3h-19.7v2.4h3.6v27.5h-3.6v2.5h23v-7h-2.8z" fill="#4c4b4c"/><path d="M317.1 362l-30.8-12c-6.6 3.6-12 7.8-16.4 12 4.4 4.2 9.8 8.4 16.4 12z" fill="#ab8432"/><path d="M253 337s3.2 10.6 14 22.1c4.7-3.6 10.4-7 17.2-9.8z" fill="#8d9091"/><path d="M253 387.1s3.2-10.6 14-22.1c4.7 3.6 10.4 7 17.2 9.8z" fill="#9e8f6c"/></svg>