<svg xmlns="http://www.w3.org/2000/svg" viewBox="0 0 421.001 95.682"><path d="M62.194 95.682H33.489c-.266 0-.531 0-.797-.265L9.569 78.141c-.266-.265-.532-.531-.532-.799L0 49.436v-.797l9.037-30.3c0-.266.266-.531.532-.797L33.223.266C33.489 0 33.754 0 34.02 0h27.642c.266 0 .532 0 .797.266l23.655 17.277c.266.266.531.531.531.797l9.037 30.033v.797l-8.77 28.173c0 .268-.267.534-.533.799L63.257 95.418c-.531.264-.798.264-1.063.264m-27.376-2.921h23.654C49.17 83.724 39.868 75.749 30.3 68.573c.797 7.707 2.391 15.946 4.518 24.188m-3.455-27.112c10.366 7.442 19.934 15.946 30.034 25.516a263.724 263.724 0 004.253-36.678c-12.759 2.656-24.719 6.644-34.287 11.162m36.944-9.833c-.532 11.163-1.86 22.856-3.987 34.815l19.137-14.087c-4.253-8.502-9.303-15.413-15.15-20.728M12.758 76.811l18.339 13.556a179.287 179.287 0 01-3.987-22.856c-5.581 2.921-10.365 6.112-14.352 9.3m-8.77-24.716l7.176 22.324c3.986-3.188 8.771-6.377 14.353-9.302-7.178-4.785-14.088-9.301-21.529-13.022m66.179 1.329c5.582 5.316 10.631 11.693 14.618 19.668l7.176-22.326c-6.91.264-14.352 1.329-21.794 2.658m-40.93-19.403c-.798 9.303-.798 19.136.266 28.971 9.834-4.519 21.529-8.505 34.021-11.163-7.442-5.581-15.15-9.037-23.123-12.757-3.722-1.596-7.444-3.19-11.164-5.051M3.988 48.64a192.222 192.222 0 0122.325 13.554c-.797-9.566-.797-19.135-.266-28.172-8.505 3.986-15.946 9.036-22.059 14.618m63.256-24.453c1.063 8.505 1.329 17.543 1.329 26.312 7.708-1.594 15.416-2.657 22.591-3.188-7.176-8.506-14.883-15.947-23.92-23.124M31.629 31.63c3.189 1.594 6.378 2.922 10.1 4.518 7.973 3.455 15.947 7.176 23.921 13.022 0-9.034-.267-18.072-1.595-26.843-11.961 2.393-22.858 5.316-32.426 9.303m-20.465-10.1L4.519 44.121c5.582-4.784 12.492-9.036 20.2-12.757-5.316-2.924-9.569-6.113-13.555-9.834m57.94.265c7.974 6.113 15.15 13.023 21.528 20.466l-6.378-22.06-15.15 1.594M34.818 3.723c-2.393 8.238-4.252 16.744-5.316 25.514a139.865 139.865 0 0131.894-9.036C54.22 14.62 45.715 9.57 34.818 3.723m-22.06 15.148c3.987 3.987 8.505 7.177 13.821 10.366.797-7.974 2.392-15.947 4.519-23.654zm51.296-13.82c1.063 4.519 1.86 9.303 2.658 14.086a131.563 131.563 0 0114.351-1.594zM39.868 2.925c9.036 5.049 16.745 9.834 23.389 14.618-.797-4.784-1.595-9.834-2.924-14.618z" fill="#ff000a"/><path d="M248.241 24.454l-17.009 47.041h9.568l2.924-8.239h16.745l2.657 8.239h9.569l-17.276-47.041zm-2.126 30.829l5.848-17.01 5.849 17.01zm68.041-16.478c0-7.972-5.582-14.351-15.149-14.351h-18.341v47.041h9.304V52.627h6.645l9.301 18.868h10.634l-10.634-20.197c4.253-1.862 8.24-5.848 8.24-12.493zm-15.946 6.113h-8.772V32.427h8.772c3.985 0 6.642 2.658 6.642 6.112 0 3.722-2.657 6.379-6.642 6.379zm60.065-6.113c0-7.972-5.581-14.351-15.149-14.351h-18.338v47.041h9.301V52.627h6.647l9.302 18.868h10.63l-10.63-20.197c4.251-1.862 8.237-5.848 8.237-12.493zm-15.681 6.113h-8.771V32.427h8.771c3.987 0 6.645 2.658 6.645 6.112 0 3.722-2.658 6.379-6.645 6.379zm26.313-20.464h9.304v47.041h-9.304zm48.372 23.123c2.395 2.391 3.722 5.847 3.722 10.101 0 9.036-7.708 14.352-17.54 14.352-7.178 0-12.495-1.597-17.278-6.113l5.847-5.849c2.924 2.925 6.911 3.987 11.432 3.987 5.314 0 8.238-2.126 8.238-5.848a6.544 6.544 0 00-1.33-3.987c-.796-.796-1.858-1.327-4.253-1.593l-5.58-.798c-3.987-.531-6.911-1.861-9.036-3.987-2.125-2.126-3.457-5.315-3.457-9.303 0-8.503 6.114-14.352 16.481-14.352 6.377 0 11.162 1.596 15.149 5.582l-5.849 5.848c-2.924-2.924-6.646-3.189-9.568-3.189-4.784 0-7.178 2.658-7.178 5.847 0 1.064.267 2.394 1.332 3.457.796.797 2.39 1.594 4.252 1.86l5.581.797c4.251-.002 7.175 1.327 9.035 3.188zm-238.14 10.101c0 9.302-6.911 14.084-14.884 14.084-6.645 0-13.024-3.188-14.619-10.364l8.24-3.455c0 4.251 2.924 6.112 6.379 6.112 3.721 0 6.378-2.391 6.378-6.644 0-3.987-2.392-6.381-6.645-6.381h-.266v-7.44h.266c4.253 0 5.848-2.657 5.848-5.848 0-3.987-2.657-6.112-5.848-6.112-3.188 0-5.581 2.125-5.847 5.581l-8.24-3.455c1.596-6.378 7.178-10.1 13.821-10.1 8.24 0 14.354 5.582 14.354 13.555 0 5.051-2.394 7.974-5.316 9.569 3.72 2.125 6.379 5.315 6.379 10.898zm34.817-33.224h9.302v47.041h-9.302V51.829H198.01v19.666h-9.303V24.454h9.303V43.59h15.946zm-85.05 38.802h14.883v8.239h-23.92V24.454h9.303c-.266 0-.266 38.802-.266 38.802z" fill="#283030"/></svg>