<svg xmlns="http://www.w3.org/2000/svg" viewBox="0 0 126.54 75.44"><defs><style>.b81e4b04-3547-4904-8c2f-d9b0e041fb97{fill:#2f3e64;}.b0091bbd-07de-4f00-9ffc-3a81f4097550{fill:none;stroke:#fedfb2;stroke-miterlimit:10;stroke-width:8px;}</style></defs><title>Asset 5</title><g id="ad62c13b-b3cf-4332-913d-c5a8b89b372d" data-name="Layer 2"><g id="eb44e6a5-b40c-4da2-a4fe-55c0c3e067bb" data-name="basically everything"><path class="b81e4b04-3547-4904-8c2f-d9b0e041fb97" d="M7,9.44v8.2H17.24v3.44H7V34H3.2V6H20.28V9.44Z" transform="translate(-3.2 -4)"/><path class="b81e4b04-3547-4904-8c2f-d9b0e041fb97" d="M31.92,17.64H30.68a6,6,0,0,0-4.48,2.52V34H22.36V14.4h3l.44,3.24c2.36-2.68,4.24-4,6.64-4h.32Z" transform="translate(-3.2 -4)"/><path class="b81e4b04-3547-4904-8c2f-d9b0e041fb97" d="M36,10V6h3.6v4Zm0,24V14.4h3.6V34Z" transform="translate(-3.2 -4)"/><path class="b81e4b04-3547-4904-8c2f-d9b0e041fb97" d="M59.44,34,59,31.52a8.29,8.29,0,0,1-6,2.88c-5,0-8.92-4.48-8.92-10.2C44.12,18.84,47.56,14,53,14a7.65,7.65,0,0,1,6,2.48V4h3.6V34ZM47.8,24.2c0,3.84,2.08,7,5.52,7,2.88,0,6.12-2,6.12-6.88,0-4.72-3.24-7.12-6.12-7.12C49.88,17.2,47.8,20.2,47.8,24.2Z" transform="translate(-3.2 -4)"/><path class="b81e4b04-3547-4904-8c2f-d9b0e041fb97" d="M84.16,34.4h-.28c-3.48,0-4.24-1-5-2.88a7.75,7.75,0,0,1-6,2.88c-3.64,0-6-2.4-6-5.68,0-5.52,6.72-6.92,11.72-7,0-3.72-1.52-4.52-4.28-4.52A8.53,8.53,0,0,0,69.08,19L68.56,16a11.29,11.29,0,0,1,6.64-2c5,0,6.92,2.32,6.92,9.4v4c0,2.8.16,4.12,2.24,4.12h.36ZM78.52,24.2c-5.72.2-8,1.4-8,4.32a2.71,2.71,0,0,0,3,3,6.35,6.35,0,0,0,5-2.64Z" transform="translate(-3.2 -4)"/><path class="b81e4b04-3547-4904-8c2f-d9b0e041fb97" d="M93,43.68H89l4.52-10.56L85.32,14.4h4L95.44,29,101,14.4h4Z" transform="translate(-3.2 -4)"/><path class="b81e4b04-3547-4904-8c2f-d9b0e041fb97" d="M32.6,75.72,17.88,53.61V75.72h-3.8v-28H18.2l13.8,21v-21h3.84v28Z" transform="translate(-3.2 -4)"/><path class="b81e4b04-3547-4904-8c2f-d9b0e041fb97" d="M40.56,65.92c0-5.67,3.56-10.19,9.72-10.19S60,60.25,60,65.92s-3.6,10.2-9.72,10.2S40.56,71.6,40.56,65.92Zm3.68,0c0,4.4,2.16,7,6,7s6-2.6,6-7-2.16-7-6-7S44.24,61.53,44.24,65.92Z" transform="translate(-3.2 -4)"/><path class="b81e4b04-3547-4904-8c2f-d9b0e041fb97" d="M73.6,75.72h-4L62.08,56.13h4l5.48,15.63L77,56.13h4Z" transform="translate(-3.2 -4)"/><path class="b81e4b04-3547-4904-8c2f-d9b0e041fb97" d="M98.16,75.72V53.21A11.93,11.93,0,0,1,94,55.65l-.64-3.56a12.16,12.16,0,0,0,5.88-4.36h2.92v28Z" transform="translate(-3.2 -4)"/><line class="b0091bbd-07de-4f00-9ffc-3a81f4097550" x1="122.54" y1="4.44" x2="122.54" y2="75.44"/></g></g></svg>