<svg xmlns="http://www.w3.org/2000/svg" viewBox="0 0 178.22 72.12"><defs><style>.a0e7aaa3-f497-40bd-ac58-13cd4116cf41{fill:#2f3e64;}.f5d7d159-0973-4f43-8fc9-3130b7dd05d9{fill:none;stroke:#fff;stroke-miterlimit:10;stroke-width:8px;}</style></defs><title>Asset 2</title><g id="a620999e-3dab-447a-aa90-76889b026885" data-name="Layer 2"><g id="bbe97133-471d-4b1f-96d2-350c14a416c8" data-name="basically everything"><path class="a0e7aaa3-f497-40bd-ac58-13cd4116cf41" d="M2,32.76l.52-4.44a14.92,14.92,0,0,0,8.72,2.8C14.72,31.12,18,30,18,26.8s-3.2-4.36-7.24-5.64C6.08,19.68,1.6,18.32,1.6,13.52,1.6,10,4,5.44,11.68,5.44a20.67,20.67,0,0,1,8.8,1.92l-.4,4C17.36,10,14.84,8.88,12,8.88S5.76,10.08,5.76,13c0,2.6,2.68,3.64,6,4.68,4.92,1.52,10.32,3,10.32,9.08,0,3-1.24,7.8-10.92,7.8A20.89,20.89,0,0,1,2,32.76Z" transform="translate(-1.6 -4)"/><path class="a0e7aaa3-f497-40bd-ac58-13cd4116cf41" d="M42.48,34.4H42.2c-3.48,0-4.24-1-5-2.88a7.75,7.75,0,0,1-6,2.88c-3.64,0-6-2.4-6-5.68,0-5.52,6.72-6.92,11.72-7,0-3.72-1.52-4.52-4.28-4.52A8.53,8.53,0,0,0,27.4,19L26.88,16a11.29,11.29,0,0,1,6.64-2c5,0,6.92,2.32,6.92,9.4v4c0,2.8.16,4.12,2.24,4.12H43ZM36.84,24.2c-5.72.2-8,1.4-8,4.32a2.71,2.71,0,0,0,3,3,6.35,6.35,0,0,0,5-2.64Z" transform="translate(-1.6 -4)"/><path class="a0e7aaa3-f497-40bd-ac58-13cd4116cf41" d="M56.2,34.4H53c-3.72,0-5.12-2.32-5.12-4.68V17.2H44.48l.32-2.8h3V9.56l3.6-.36v5.2H56.6v2.8H51.44V27.52c0,3.76.24,4,4.12,4h.92Z" transform="translate(-1.6 -4)"/><path class="a0e7aaa3-f497-40bd-ac58-13cd4116cf41" d="M73.36,34,73,31.84a6.07,6.07,0,0,1-5.44,2.56c-4.6,0-7.24-2.72-7.24-8.6V14.4h3.6V24.8c0,4.16,1.32,6.4,4.56,6.4A5.12,5.12,0,0,0,73,29V14.4h3.6V34Z" transform="translate(-1.6 -4)"/><path class="a0e7aaa3-f497-40bd-ac58-13cd4116cf41" d="M91.8,17.64H90.56a6,6,0,0,0-4.48,2.52V34H82.24V14.4h3l.44,3.24c2.36-2.68,4.24-4,6.64-4h.32Z" transform="translate(-1.6 -4)"/><path class="a0e7aaa3-f497-40bd-ac58-13cd4116cf41" d="M109.52,34l-.4-2.48a8.29,8.29,0,0,1-6,2.88c-5,0-8.92-4.48-8.92-10.2,0-5.36,3.44-10.2,8.92-10.2a7.65,7.65,0,0,1,6,2.48V4h3.6V34ZM97.88,24.2c0,3.84,2.08,7,5.52,7,2.88,0,6.12-2,6.12-6.88,0-4.72-3.24-7.12-6.12-7.12C100,17.2,97.88,20.2,97.88,24.2Z" transform="translate(-1.6 -4)"/><path class="a0e7aaa3-f497-40bd-ac58-13cd4116cf41" d="M134.24,34.4H134c-3.48,0-4.24-1-5-2.88a7.75,7.75,0,0,1-6,2.88c-3.64,0-6-2.4-6-5.68,0-5.52,6.72-6.92,11.72-7,0-3.72-1.52-4.52-4.28-4.52A8.53,8.53,0,0,0,119.16,19L118.64,16a11.29,11.29,0,0,1,6.64-2c5,0,6.92,2.32,6.92,9.4v4c0,2.8.16,4.12,2.24,4.12h.36ZM128.6,24.2c-5.72.2-8,1.4-8,4.32a2.71,2.71,0,0,0,3,3,6.35,6.35,0,0,0,5-2.64Z" transform="translate(-1.6 -4)"/><path class="a0e7aaa3-f497-40bd-ac58-13cd4116cf41" d="M143,43.68h-4l4.52-10.56L135.4,14.4h4L145.52,29,151,14.4h4Z" transform="translate(-1.6 -4)"/><path class="a0e7aaa3-f497-40bd-ac58-13cd4116cf41" d="M74.76,75.72,60,53.61V75.72h-3.8v-28h4.12l13.8,21v-21H78v28Z" transform="translate(-1.6 -4)"/><path class="a0e7aaa3-f497-40bd-ac58-13cd4116cf41" d="M82.72,65.92c0-5.67,3.56-10.19,9.72-10.19s9.72,4.52,9.72,10.19-3.6,10.2-9.72,10.2S82.72,71.6,82.72,65.92Zm3.68,0c0,4.4,2.16,7,6,7s6-2.6,6-7-2.16-7-6-7S86.4,61.53,86.4,65.92Z" transform="translate(-1.6 -4)"/><path class="a0e7aaa3-f497-40bd-ac58-13cd4116cf41" d="M115.76,75.72h-4l-7.48-19.59h4l5.48,15.63,5.44-15.63h4Z" transform="translate(-1.6 -4)"/><path class="a0e7aaa3-f497-40bd-ac58-13cd4116cf41" d="M136.4,75.72C146.92,60.69,148,57.41,148,55.25c0-2.92-2-4.52-4.88-4.52-3.4,0-5.36,2.2-6.52,3.72l-.48-3.4a9.37,9.37,0,0,1,8-3.88c5.88,0,7.76,4.16,7.76,7.68,0,3.72-2.32,8.51-8.6,17.43H153v3.44Z" transform="translate(-1.6 -4)"/><line class="f5d7d159-0973-4f43-8fc9-3130b7dd05d9" x1="174.22" y1="0.44" x2="174.22" y2="71.44"/></g></g></svg>