<svg xmlns="http://www.w3.org/2000/svg" viewBox="0 0 154.34 74.44"><defs><style>.fc845090-5a4a-4cfd-a28b-1024a173ca29{fill:#2f3e64;}.e98d8561-2e3b-4c99-8164-9ea93eaf202f{fill:none;stroke:#fedfb2;stroke-miterlimit:10;stroke-width:8px;}</style></defs><title>Asset 3</title><g id="bd80dfbb-ab3a-44d0-ae98-620e675daefc" data-name="Layer 2"><g id="ead5ae39-8823-48df-87be-6f008fa9bd8a" data-name="basically everything"><path class="fc845090-5a4a-4cfd-a28b-1024a173ca29" d="M2,32.76l.52-4.44a14.92,14.92,0,0,0,8.72,2.8C14.72,31.12,18,30,18,26.8s-3.2-4.36-7.24-5.64C6.08,19.68,1.6,18.32,1.6,13.52,1.6,10,4,5.44,11.68,5.44a20.67,20.67,0,0,1,8.8,1.92l-.4,4C17.36,10,14.84,8.88,12,8.88S5.76,10.08,5.76,13c0,2.6,2.68,3.64,6,4.68,4.92,1.52,10.32,3,10.32,9.08,0,3-1.24,7.8-10.92,7.8A20.89,20.89,0,0,1,2,32.76Z" transform="translate(-1.6 -4)"/><path class="fc845090-5a4a-4cfd-a28b-1024a173ca29" d="M39.24,34l-.4-2.16A6.07,6.07,0,0,1,33.4,34.4c-4.6,0-7.24-2.72-7.24-8.6V14.4h3.6V24.8c0,4.16,1.32,6.4,4.56,6.4A5.12,5.12,0,0,0,38.84,29V14.4h3.6V34Z" transform="translate(-1.6 -4)"/><path class="fc845090-5a4a-4cfd-a28b-1024a173ca29" d="M62.2,34V23.2c0-4.16-1.4-6-5.12-6-2.24,0-4.36.8-5.36,2.56V34h-3.6V14.4h2.8l.4,2.08A9.13,9.13,0,0,1,57.8,14c5.72,0,8,3.56,8,9.2V34Z" transform="translate(-1.6 -4)"/><path class="fc845090-5a4a-4cfd-a28b-1024a173ca29" d="M85.44,34,85,31.52a8.29,8.29,0,0,1-6,2.88c-5,0-8.92-4.48-8.92-10.2C70.12,18.84,73.56,14,79,14a7.65,7.65,0,0,1,6,2.48V4h3.6V34ZM73.8,24.2c0,3.84,2.08,7,5.52,7,2.88,0,6.12-2,6.12-6.88,0-4.72-3.24-7.12-6.12-7.12C75.88,17.2,73.8,20.2,73.8,24.2Z" transform="translate(-1.6 -4)"/><path class="fc845090-5a4a-4cfd-a28b-1024a173ca29" d="M110.16,34.4h-.28c-3.48,0-4.24-1-5-2.88a7.75,7.75,0,0,1-6,2.88c-3.64,0-6-2.4-6-5.68,0-5.52,6.72-6.92,11.72-7,0-3.72-1.52-4.52-4.28-4.52A8.53,8.53,0,0,0,95.08,19L94.56,16a11.29,11.29,0,0,1,6.64-2c5,0,6.92,2.32,6.92,9.4v4c0,2.8.16,4.12,2.24,4.12h.36Zm-5.64-10.2c-5.72.2-8,1.4-8,4.32a2.71,2.71,0,0,0,3,3,6.35,6.35,0,0,0,5-2.64Z" transform="translate(-1.6 -4)"/><path class="fc845090-5a4a-4cfd-a28b-1024a173ca29" d="M119,43.68h-4l4.52-10.56L111.32,14.4h4L121.44,29,127,14.4h4Z" transform="translate(-1.6 -4)"/><path class="fc845090-5a4a-4cfd-a28b-1024a173ca29" d="M50.2,75.72,35.48,53.61V75.72h-3.8v-28H35.8l13.8,21v-21h3.84v28Z" transform="translate(-1.6 -4)"/><path class="fc845090-5a4a-4cfd-a28b-1024a173ca29" d="M58.16,65.92c0-5.67,3.56-10.19,9.72-10.19s9.72,4.52,9.72,10.19-3.6,10.2-9.72,10.2S58.16,71.6,58.16,65.92Zm3.68,0c0,4.4,2.16,7,6,7s6-2.6,6-7-2.16-7-6-7S61.84,61.53,61.84,65.92Z" transform="translate(-1.6 -4)"/><path class="fc845090-5a4a-4cfd-a28b-1024a173ca29" d="M91.2,75.72h-4L79.68,56.13h4l5.48,15.63L94.6,56.13h4Z" transform="translate(-1.6 -4)"/><path class="fc845090-5a4a-4cfd-a28b-1024a173ca29" d="M111.2,74.16l.92-3.52c2.4,1.32,4.12,2.2,6.72,2.2s6-1.16,6-5.64c0-2.64-1.12-5.2-6.64-5.2h-2.92l.4-3h1.48c5,0,6.68-1.72,6.68-4.6,0-2.64-1.68-3.76-4.76-3.76a8.26,8.26,0,0,0-5.4,1.64L113,49c.64-.64,2.72-1.84,6.48-1.84,7,0,8.52,4.12,8.52,7.2,0,2.12-.8,3.88-3.64,5.84C128,61.45,129,64.48,129,67.16c0,6.16-5,9.12-10.16,9.12C115.12,76.28,111.8,74.76,111.2,74.16Z" transform="translate(-1.6 -4)"/><line class="e98d8561-2e3b-4c99-8164-9ea93eaf202f" x1="150.34" y1="3.44" x2="150.34" y2="74.44"/></g></g></svg>