<svg version="1.1" id="Layer_2" xmlns="http://www.w3.org/2000/svg" xmlns:xlink="http://www.w3.org/1999/xlink" x="0" y="0" viewBox="0 0 269.37 184.07" xml:space="preserve"><style>.st1{fill:#fff}.st2{clip-path:url(#SVGID_2_)}</style><path fill="#0cf" d="M2 2h265.36v149.17H2z"/><g id="COLOR_LOGO_4_"><g id="GIPHY_ENGINEERING_2_"><path d="M269.36 0H0v184.06h269.36V0zM4 4h261.36v145.17H4V4z"/><path class="st1" d="M23.84 165.89c-.03 1.8-.16 3.33-1.26 4.87-1.21 1.68-3.02 2.42-5.08 2.42-3.87 0-6.57-2.63-6.57-6.5 0-4 2.71-6.63 6.68-6.63 2.53 0 4.49 1.14 5.56 3.45l-3.04 1.27c-.44-1.18-1.37-1.96-2.66-1.96-2.11 0-3.2 2.01-3.2 3.89 0 1.91 1.14 3.86 3.25 3.86 1.39 0 2.45-.72 2.58-2.14h-2.61v-2.52h6.35zM32.81 172.77h-3.2v-12.32h3.2v12.32zM39.2 160.45h4.9c2.65 0 4.48 1.23 4.48 4.05 0 2.91-1.57 4.18-4.36 4.18H42.4v4.09h-3.2v-12.32zm3.2 5.66h.54c1.16 0 2.3 0 2.3-1.5 0-1.55-1.06-1.57-2.3-1.57h-.54v3.07zM62.12 165.21v-4.76h3.2v12.32h-3.2v-5.05H57.5v5.05h-3.2v-12.32h3.2v4.76h4.62zM70.35 160.45h3.84l2.3 3.35 2.3-3.35h3.84l-4.54 6.41v5.92h-3.2v-5.92l-4.54-6.41zM100.77 163.16v2.06h3.61v2.71h-3.61v2.12h3.81v2.71h-7.01v-12.32h7.01v2.71h-3.81zM110.85 160.45h3.2l5.87 7.53h.03v-7.53h3.2v12.32h-3.2l-5.87-7.55h-.03v7.55h-3.2v-12.32zM141.83 165.89c-.03 1.8-.16 3.33-1.26 4.87-1.21 1.68-3.02 2.42-5.08 2.42-3.87 0-6.57-2.63-6.57-6.5 0-4 2.71-6.63 6.68-6.63 2.53 0 4.49 1.14 5.56 3.45l-3.04 1.27c-.44-1.18-1.37-1.96-2.66-1.96-2.11 0-3.2 2.01-3.2 3.89 0 1.91 1.14 3.86 3.25 3.86 1.39 0 2.45-.72 2.58-2.14h-2.61v-2.52h6.35zM150.79 172.77h-3.2v-12.32h3.2v12.32zM157.18 160.45h3.2l5.87 7.53h.03v-7.53h3.2v12.32h-3.2l-5.87-7.55h-.03v7.55h-3.2v-12.32zM179.07 163.16v2.06h3.61v2.71h-3.61v2.12h3.81v2.71h-7.01v-12.32h7.01v2.71h-3.81zM192.36 163.16v2.06h3.61v2.71h-3.61v2.12h3.81v2.71h-7.01v-12.32h7.01v2.71h-3.81zM212.68 172.77h-3.99l-3.02-4.74h-.03v4.74h-3.2v-12.32h4.79c2.44 0 4.28 1.16 4.28 3.79 0 1.7-.95 3.17-2.7 3.48l3.87 5.05zm-7.04-6.79h.31c1.05 0 2.22-.2 2.22-1.54s-1.18-1.54-2.22-1.54h-.31v3.08zM221.04 172.77h-3.2v-12.32h3.2v12.32zM227.43 160.45h3.2l5.87 7.53h.03v-7.53h3.2v12.32h-3.2l-5.87-7.55h-.03v7.55h-3.2v-12.32zM258.41 165.89c-.03 1.8-.16 3.33-1.26 4.87-1.21 1.68-3.02 2.42-5.08 2.42-3.87 0-6.57-2.63-6.57-6.5 0-4 2.71-6.63 6.68-6.63 2.53 0 4.49 1.14 5.56 3.45l-3.04 1.27c-.44-1.18-1.37-1.96-2.66-1.96-2.11 0-3.2 2.01-3.2 3.89 0 1.91 1.14 3.86 3.25 3.86 1.39 0 2.45-.72 2.58-2.14h-2.61v-2.52h6.35z"/></g><defs><path id="SVGID_1_" d="M2 2h265.36v149.17H2z"/></defs><clipPath id="SVGID_2_"><use xlink:href="#SVGID_1_" overflow="visible"/></clipPath><g id="Eye_1_" class="st2"><path d="M200.17 110.83c26.19-15.48 43.11-34.37 43.11-34.37S194.71 22.25 134.8 22.25 26.33 76.47 26.33 76.47 43.2 95.3 69.31 110.76l65.36-39.24 65.5 39.31z" fill="#fff" stroke="#000" stroke-width="4" stroke-miterlimit="10"/><path d="M183.7 100.94l14.13-24.48-27.88-48.29c-11.02-3.63-22.84-5.92-35.14-5.92s-24.12 2.29-35.14 5.92l-27.89 48.3 14.07 24.36 48.83-29.32 49.02 29.43z" fill="#00e6cc" stroke="#000" stroke-width="4" stroke-miterlimit="10"/><path d="M134.68 71.51l25.17 15.11c1.27-3.14 1.98-6.56 1.98-10.16 0-14.92-12.1-27.02-27.02-27.02s-27.02 12.1-27.02 27.02c0 3.55.69 6.93 1.93 10.03l24.96-14.98z"/></g><g class="st2"><defs><path id="SVGID_3_" d="M134.68 71.51L2 151.17h265.36z"/></defs><clipPath id="SVGID_4_"><use xlink:href="#SVGID_3_" overflow="visible"/></clipPath><g clip-path="url(#SVGID_4_)" stroke="#000" stroke-width="4" stroke-miterlimit="10"><path fill="#6157ff" d="M50.25 152.94H-5.51l140.19-81.43z"/><path fill="#93f" d="M106.41 152.94H50.25l84.43-81.43z"/><path fill="#ff5959" d="M218.72 152.94h-55.77l-28.27-81.43z"/><path fill="#ffc636" d="M274.87 152.94h-55.76l-84.43-81.43z"/><path fill="#e646b6" d="M162.56 154.47H106.8l27.88-82.81z"/></g><use xlink:href="#SVGID_3_" overflow="visible" fill="none" stroke="#000" stroke-width="4" stroke-miterlimit="10"/></g></g></svg>
