<svg xmlns="http://www.w3.org/2000/svg" viewBox="0 0 734.68 97.053"><path d="M25.235 48.345c5.845 0 7.546-3.257 7.546-5.922 0-2.07-1.253-5.692-6.14-5.692h-6.66v11.614zM52.39 78.463H37.075L25.753 56.41H19.98v13.545h6.292v8.51H0v-8.51h6.885V36.731H0v-8.515h31.302c9.77 0 15.094 6.439 15.094 14.06 0 5.774-2.81 9.84-8.654 12.505l8.138 15.173h6.511v8.51m17.167-8.51h5.924V36.731h-5.924v-8.515h44.181V44.12h-9.546v-7.39H88.575v11.536h12.582v8.518H88.575v13.17h15.618v-7.477h9.546v15.985H69.56v-8.509m89.764.001c9.99 0 14.652-6.44 14.652-16.43 0-10.806-5.325-16.793-15.099-16.793h-4.513v33.223zm-25.681 0h7.622V36.731h-7.622v-8.515h26.27c9.104 0 15.394 1.701 20.499 6.81 5.033 5.03 7.179 11.54 7.179 18.423 0 13.024-8.064 25.014-24.047 25.014h-29.901v-8.509" fill="#b3212c"/><path d="M237.317 36.73h-5.924v-8.514h24.868v8.515h-5.769l8.361 25.153H259l8.437-25.153h-5.55v-8.515h21.167v8.515h-5.922l-14.58 42.101h-10.138l-15.096-42.101m63.049 33.223h5.917V36.731h-5.917v-8.515h44.177V44.12H335v-7.39h-15.619v11.536h12.58v8.518h-12.58v13.17H335v-7.477h9.544v15.985h-44.177v-8.509m63.194.001h6.732V36.731h-6.732v-8.515h21.022l18.424 31.377h.141V36.731h-6.505v-8.515h22.565v8.515h-7.1v41.732h-11.252l-21.46-36.93h-.147v28.421h6.29v8.51H363.56v-8.51m119.739-21.536h-8.735V36.73h-7.547v33.223h7.547v8.51h-28.195v-8.51h7.546V36.731h-7.546v11.687h-8.732V28.216H483.3v20.202m18.05-20.202h23.386v8.515h-4.372v25.523c0 4.96 1.487 8.287 6.516 8.287 4.224 0 6.963-2.141 6.963-7.84v-25.97h-4.152v-8.515h19.389v8.515h-6.284v28.111c0 11.693-10.216 14.211-17.323 14.211-9.841 0-18.202-3.768-18.202-16.054V36.73h-5.92v-8.515m90.799 20.13c5.845 0 7.543-3.257 7.543-5.922 0-2.07-1.256-5.692-6.14-5.692h-6.658v11.614zm27.157 30.118h-15.318L592.664 56.41h-5.77v13.545h6.286v8.51h-26.264v-8.51h6.88V36.731h-6.88v-8.515h31.304c9.761 0 15.092 6.439 15.092 14.06 0 5.774-2.813 9.84-8.656 12.505l8.14 15.173h6.51v8.51m17.17-8.51h5.921V36.731h-5.921v-8.515h44.177V44.12h-9.548v-7.39h-15.608v11.536h12.571v8.518h-12.57v13.17h15.607v-7.477h9.548v15.985h-44.177v-8.509m64.899-8.588h8.508c-.151 5.403 3.329 9.109 7.696 9.109 3.036 0 5.548-2.373 5.548-5.403 0-9.18-22.271-7.921-22.271-23.68 0-9.77 7.321-13.696 13.54-13.696 3.924 0 7.101 1.555 9.176 4.67h.148v-4.15h8.435v15.247h-8.435c-.664-4.588-3.404-7.403-7.247-7.403-2.888 0-4.965 1.704-4.965 4.072 0 8.136 23.168 6.285 23.168 24.045 0 11.992-9.25 14.953-14.581 14.953-4.442 0-7.84-1.633-10.064-4.877h-.148v4.211h-8.508V61.365M210.353 97.053h-2.913V.006h2.913v97.047" fill="#231f20"/></svg>