<svg xmlns="http://www.w3.org/2000/svg" viewBox="0 0 202.05 54"><path d="M65.63 31.38h-2.87l3.43-11.2h3.51l.03.07 3.42 11.13h-2.87l-.59-2.14h-3.46l-.6 2.14zm1.24-4.45h2.15l-1.07-3.92-1.08 3.92zm68.82-4.21h6.26v1.96h-3.8V26h3.5v1.97h-3.5v1.45h3.8v1.96h-6.26v-8.66zm11.57 6.34h-1.43v2.31h-2.46v-8.66h4.13c2.41 0 3.18.93 3.18 2.58v1.17c0 1-.28 1.55-1.03 2.08l1.9 2.83h-2.75l-1.54-2.31zm.16-4.36h-1.6v2.43h1.6c.62 0 .85-.25.85-.75v-.97c0-.48-.23-.71-.85-.71zm7.09 1.4v5.28h-2.33v-8.66h2.93l2.88 5.29v-5.29h2.33v8.66h-2.93l-2.88-5.28zm6.96 4.84l.4-1.83c.75.22 1.85.42 2.76.42s1.1-.18 1.1-.68c0-.55-.1-.68-1.67-.93-2.26-.37-2.5-1.25-2.5-2.83 0-1.9 1.15-2.53 3.43-2.53.83 0 2.13.13 2.96.37l-.28 1.95c-.97-.2-1.88-.3-2.66-.3-.8 0-.98.12-.98.6 0 .58.08.67 1.57.93 2.43.43 2.6 1 2.6 2.63 0 1.86-.67 2.81-3.6 2.81-1-.01-2.2-.21-3.13-.61zm12.4.44h-2.46v-6.53h-2.52v-2.13h7.49v2.13h-2.51v6.53zm3.53-8.66h6.26v1.96h-3.8V26h3.5v1.97h-3.5v1.45h3.8v1.96h-6.26v-8.66zm7.75 0h2.46v8.66h-2.46v-8.66zm6.34 3.38v5.28h-2.33v-8.66h2.93l2.88 5.29v-5.29h2.33v8.66h-2.93l-2.88-5.28zM74.06 22.72h2.46v6.53h3.63v2.13h-6.09v-8.66zm7.07 0h2.46v6.53h3.63v2.13h-6.09v-8.66zm7.16 0h2.46v8.66h-2.46v-8.66zm9.06 7.36h-2.98l-.37 1.3h-2.41l2.75-8.66h3.03l2.76 8.66h-2.41l-.37-1.3zm-2.43-1.92h1.88l-.95-3.45-.93 3.45zm8.29-2.06v5.28h-2.33v-8.66h2.93l2.88 5.29v-5.29h2.33v8.66h-2.93l-2.88-5.28zm7.22 2.63v-3.36c0-1.85 1.13-2.81 3.61-2.81.95 0 1.93.12 2.85.3l-.25 2.03c-.95-.15-1.73-.23-2.6-.23-.82 0-1.15.3-1.15.98v2.83c0 .68.33.98 1.15.98.87 0 1.68-.07 2.6-.23l.25 2.03c-.93.2-1.9.3-2.85.3-2.48-.01-3.61-.97-3.61-2.82zm7.85-6.01h6.26v1.96h-3.8V26h3.5v1.97h-3.5v1.45h3.8v1.96h-6.26v-8.66zm16.12-.14v.95c0 .95-.61 1.71-1.44 1.99.82.28 1.44 1.04 1.44 2v1.08c0 1.57-.93 2.77-3.15 2.77h-5.27V20.18h5.63c1.78 0 2.79.93 2.79 2.4zm-5.91 2.13h2.43c.67 0 1.02-.42 1.02-1v-.64c0-.75-.59-.9-1.37-.9h-2.08v2.54zm3.45 3.14c0-.58-.35-1-1.02-1h-2.43v2.54h2.08c.78 0 1.37-.15 1.37-.9v-.64zM54 54H0V0h54v54z"/><path d="M13.5 26.33h27v1.35h-27v-1.35zm10.16-4.06h-4.11l4.92-16.06h5.03l.04.1 4.9 15.96h-4.11l-.85-3.07h-4.96l-.86 3.07zm1.77-6.38h3.09l-1.53-5.63-1.56 5.63zm16.39-9.68v3.37h2.58v34.83h-2.58v3.37h5.96V6.21h-5.96zm-35.6 0v41.58h5.96v-3.37H9.59V9.59h2.58V6.21H6.22zm26.95 28.96v1.37c0 1.37-.88 2.46-2.06 2.86 1.18.4 2.06 1.49 2.06 2.86v1.55c0 2.25-1.33 3.98-4.52 3.98H21.1V31.73h8.08c2.54 0 3.99 1.33 3.99 3.44zm-8.48 3.05h3.49c.96 0 1.47-.6 1.47-1.43v-.92c0-1.08-.84-1.29-1.97-1.29H24.7v3.64zm4.95 4.51c0-.83-.51-1.43-1.47-1.43h-3.49v3.64h2.98c1.12 0 1.97-.22 1.97-1.29v-.92z" fill="#fff"/><path d="M200.45 20.22c.88 0 1.6.66 1.6 1.61 0 .95-.72 1.6-1.6 1.6-.89 0-1.61-.65-1.61-1.6 0-.95.71-1.61 1.61-1.61zm0 2.98c.77 0 1.34-.56 1.34-1.37 0-.82-.57-1.37-1.34-1.37-.76 0-1.35.55-1.35 1.37 0 .82.59 1.37 1.35 1.37zm.14-1.24h-.49v.66h-.25v-1.7h.51c.5 0 .8.08.8.51 0 .2-.1.37-.32.46l.39.72h-.28l-.36-.65zm-.13-.78h-.36v.54h.38c.29 0 .41-.09.41-.28 0-.21-.19-.26-.43-.26z"/></svg>